G75*
G70*
%OFA0B0*%
%FSLAX24Y24*%
%IPPOS*%
%LPD*%
%AMOC8*
5,1,8,0,0,1.08239X$1,22.5*
%
%ADD10C,0.0160*%
%ADD11C,0.0150*%
%ADD12C,0.0070*%
%ADD13C,0.0380*%
%ADD14C,0.0170*%
%ADD15C,0.0300*%
%ADD16C,0.0100*%
%ADD17C,0.0050*%
%ADD18C,0.0080*%
%ADD19C,0.0060*%
%ADD20R,0.0340X0.0240*%
%ADD21R,0.0240X0.0340*%
D10*
X001901Y001206D02*
X041201Y001206D01*
X041201Y029206D01*
X001901Y029206D01*
X001901Y001206D01*
X004601Y002206D02*
X004601Y010206D01*
X027101Y010206D01*
X027101Y002206D01*
X004601Y002206D01*
X042601Y001706D02*
X042601Y014206D01*
X053601Y014206D01*
X053601Y001706D01*
X042601Y001706D01*
X054801Y001756D02*
X102451Y001756D01*
X102451Y038706D01*
X054801Y038706D01*
X054801Y001756D01*
X103601Y001706D02*
X103601Y031706D01*
X118601Y031706D01*
X118601Y001706D01*
X103601Y001706D01*
D11*
X107901Y015781D02*
X107676Y016006D01*
X107901Y015781D02*
X108351Y015781D01*
X108577Y016006D01*
X108577Y016231D01*
X108351Y016456D01*
X107901Y016456D01*
X107676Y016681D01*
X107676Y016906D01*
X107901Y017132D01*
X108351Y017132D01*
X108577Y016906D01*
X109057Y016681D02*
X109057Y016006D01*
X109282Y015781D01*
X109507Y016006D01*
X109732Y015781D01*
X109958Y016006D01*
X109958Y016681D01*
X110438Y016681D02*
X110663Y016681D01*
X110663Y015781D01*
X110438Y015781D02*
X110888Y015781D01*
X111584Y016006D02*
X111809Y015781D01*
X111584Y016006D02*
X111584Y016906D01*
X111359Y016681D02*
X111809Y016681D01*
X112280Y016456D02*
X112280Y016006D01*
X112505Y015781D01*
X113180Y015781D01*
X113661Y015781D02*
X113661Y017132D01*
X113886Y016681D02*
X114336Y016681D01*
X114561Y016456D01*
X114561Y015781D01*
X113661Y016456D02*
X113886Y016681D01*
X113180Y016681D02*
X112505Y016681D01*
X112280Y016456D01*
X112495Y017781D02*
X112044Y017781D01*
X111819Y018006D01*
X111819Y018456D01*
X112044Y018681D01*
X112495Y018681D01*
X112720Y018456D01*
X112720Y018231D01*
X111819Y018231D01*
X111339Y018006D02*
X111114Y017781D01*
X110888Y018006D01*
X110663Y017781D01*
X110438Y018006D01*
X110438Y018681D01*
X109958Y018456D02*
X109732Y018681D01*
X109282Y018681D01*
X109057Y018456D01*
X109057Y018006D01*
X109282Y017781D01*
X109732Y017781D01*
X109958Y018006D01*
X109958Y018456D01*
X110663Y017357D02*
X110663Y017132D01*
X111339Y018006D02*
X111339Y018681D01*
X113200Y018681D02*
X113200Y017781D01*
X113200Y018231D02*
X113651Y018681D01*
X113876Y018681D01*
X108577Y018456D02*
X108351Y018231D01*
X107676Y018231D01*
X107676Y017781D02*
X107676Y019132D01*
X108351Y019132D01*
X108577Y018906D01*
X108577Y018456D01*
X090103Y020055D02*
X089878Y019830D01*
X089653Y019830D01*
X090103Y020055D02*
X090103Y021181D01*
X090103Y020281D02*
X089427Y020281D01*
X089202Y020506D01*
X089202Y021181D01*
X088507Y021632D02*
X088507Y020281D01*
X088282Y020281D02*
X088732Y020281D01*
X087801Y020506D02*
X087576Y020281D01*
X086900Y020281D01*
X086900Y019830D02*
X086900Y021181D01*
X087576Y021181D01*
X087801Y020956D01*
X087801Y020506D01*
X088282Y021632D02*
X088507Y021632D01*
X086420Y020956D02*
X086420Y020506D01*
X086195Y020281D01*
X085519Y020281D01*
X085519Y019830D02*
X085519Y021181D01*
X086195Y021181D01*
X086420Y020956D01*
X085039Y021181D02*
X085039Y020281D01*
X084363Y020281D01*
X084138Y020506D01*
X084138Y021181D01*
X083658Y021406D02*
X083433Y021632D01*
X082982Y021632D01*
X082757Y021406D01*
X082757Y021181D01*
X082982Y020956D01*
X083433Y020956D01*
X083658Y020731D01*
X083658Y020506D01*
X083433Y020281D01*
X082982Y020281D01*
X082757Y020506D01*
X080900Y021181D02*
X080675Y021181D01*
X080225Y020731D01*
X080225Y020281D02*
X080225Y021181D01*
X079745Y020956D02*
X079745Y020731D01*
X078844Y020731D01*
X078844Y020956D02*
X079069Y021181D01*
X079519Y021181D01*
X079745Y020956D01*
X079519Y020281D02*
X079069Y020281D01*
X078844Y020506D01*
X078844Y020956D01*
X078363Y021181D02*
X078363Y020506D01*
X078138Y020281D01*
X077913Y020506D01*
X077688Y020281D01*
X077463Y020506D01*
X077463Y021181D01*
X076982Y020956D02*
X076757Y021181D01*
X076307Y021181D01*
X076081Y020956D01*
X076081Y020506D01*
X076307Y020281D01*
X076757Y020281D01*
X076982Y020506D01*
X076982Y020956D01*
X075601Y020956D02*
X075376Y020731D01*
X074700Y020731D01*
X074700Y020281D02*
X074700Y021632D01*
X075376Y021632D01*
X075601Y021406D01*
X075601Y020956D01*
X072839Y020281D02*
X071938Y021632D01*
X071458Y021632D02*
X070557Y021632D01*
X071007Y021632D02*
X071007Y020281D01*
X070077Y020281D02*
X070077Y021181D01*
X069626Y021632D01*
X069176Y021181D01*
X069176Y020281D01*
X069176Y020956D02*
X070077Y020956D01*
X071938Y020281D02*
X072839Y021632D01*
X051982Y009906D02*
X051982Y009681D01*
X051081Y008781D01*
X051982Y008781D01*
X050601Y009006D02*
X050376Y008781D01*
X049926Y008781D01*
X049700Y009006D01*
X049220Y008781D02*
X048319Y008781D01*
X049220Y009681D01*
X049220Y009906D01*
X048995Y010132D01*
X048544Y010132D01*
X048319Y009906D01*
X047839Y009456D02*
X046938Y009456D01*
X046458Y009231D02*
X046458Y009006D01*
X046232Y008781D01*
X045782Y008781D01*
X045557Y009006D01*
X045782Y009456D02*
X045557Y009681D01*
X045557Y009906D01*
X045782Y010132D01*
X046232Y010132D01*
X046458Y009906D01*
X046232Y009456D02*
X046458Y009231D01*
X046232Y009456D02*
X045782Y009456D01*
X045077Y009456D02*
X045077Y009906D01*
X044851Y010132D01*
X044176Y010132D01*
X044176Y008781D01*
X044176Y009231D02*
X044851Y009231D01*
X045077Y009456D01*
X044626Y009231D02*
X045077Y008781D01*
X046176Y007632D02*
X046851Y007632D01*
X047077Y007406D01*
X047077Y006956D01*
X046851Y006731D01*
X046176Y006731D01*
X046176Y006281D02*
X046176Y007632D01*
X047557Y006956D02*
X047557Y006506D01*
X047782Y006281D01*
X048232Y006281D01*
X048458Y006506D01*
X048458Y006956D01*
X048232Y007181D01*
X047782Y007181D01*
X047557Y006956D01*
X048938Y006731D02*
X049388Y007181D01*
X049614Y007181D01*
X050089Y007181D02*
X050539Y007181D01*
X050314Y007406D02*
X050314Y006506D01*
X050539Y006281D01*
X048938Y006281D02*
X048938Y007181D01*
X050601Y009006D02*
X050601Y009231D01*
X050376Y009456D01*
X050151Y009456D01*
X050376Y009456D02*
X050601Y009681D01*
X050601Y009906D01*
X050376Y010132D01*
X049926Y010132D01*
X049700Y009906D01*
X051081Y009906D02*
X051307Y010132D01*
X051757Y010132D01*
X051982Y009906D01*
X031893Y023781D02*
X031893Y024681D01*
X031893Y024231D02*
X032343Y024681D01*
X032568Y024681D01*
X031412Y024456D02*
X031412Y024231D01*
X030512Y024231D01*
X030512Y024456D02*
X030737Y024681D01*
X031187Y024681D01*
X031412Y024456D01*
X031187Y023781D02*
X030737Y023781D01*
X030512Y024006D01*
X030512Y024456D01*
X030041Y024681D02*
X029591Y024681D01*
X029816Y024906D02*
X029816Y024006D01*
X030041Y023781D01*
X029111Y023781D02*
X029111Y024681D01*
X029111Y023781D02*
X028435Y023781D01*
X028210Y024006D01*
X028210Y024681D01*
X027729Y024456D02*
X027729Y024006D01*
X027504Y023781D01*
X026829Y023781D01*
X026829Y023330D02*
X026829Y024681D01*
X027504Y024681D01*
X027729Y024456D01*
X026348Y024456D02*
X026348Y023781D01*
X025898Y023781D02*
X025898Y024456D01*
X026123Y024681D01*
X026348Y024456D01*
X025898Y024456D02*
X025673Y024681D01*
X025448Y024681D01*
X025448Y023781D01*
X024967Y024006D02*
X024967Y024456D01*
X024742Y024681D01*
X024292Y024681D01*
X024066Y024456D01*
X024066Y024006D01*
X024292Y023781D01*
X024742Y023781D01*
X024967Y024006D01*
X023586Y024006D02*
X023361Y023781D01*
X022910Y023781D01*
X022685Y024006D01*
X022685Y024906D01*
X022910Y025132D01*
X023361Y025132D01*
X023586Y024906D01*
X020824Y025132D02*
X019923Y023781D01*
X020824Y023781D02*
X019923Y025132D01*
X019443Y025132D02*
X018542Y025132D01*
X018992Y025132D02*
X018992Y023781D01*
X018071Y023781D02*
X017621Y023781D01*
X017846Y023781D02*
X017846Y025132D01*
X017621Y025132D02*
X018071Y025132D01*
X017141Y024456D02*
X016240Y024456D01*
X015760Y024456D02*
X015534Y024681D01*
X015084Y024681D01*
X014859Y024456D01*
X014859Y024006D01*
X015084Y023781D01*
X015534Y023781D01*
X015760Y024006D01*
X015760Y024456D01*
X014378Y024681D02*
X013703Y024681D01*
X013478Y024456D01*
X013478Y024006D01*
X013703Y023781D01*
X014378Y023781D01*
X013007Y023781D02*
X012557Y023781D01*
X012782Y023781D02*
X012782Y024681D01*
X012557Y024681D01*
X012782Y025132D02*
X012782Y025357D01*
X012077Y024906D02*
X011851Y025132D01*
X011176Y025132D01*
X011176Y023781D01*
X011176Y024231D02*
X011851Y024231D01*
X012077Y024456D01*
X012077Y024906D01*
X012232Y006632D02*
X011782Y006632D01*
X011557Y006406D01*
X011557Y006181D01*
X011782Y005956D01*
X012232Y005956D01*
X012458Y005731D01*
X012458Y005506D01*
X012232Y005281D01*
X011782Y005281D01*
X011557Y005506D01*
X011077Y005506D02*
X011077Y006632D01*
X010176Y006632D02*
X010176Y005506D01*
X010401Y005281D01*
X010851Y005281D01*
X011077Y005506D01*
X012232Y006632D02*
X012458Y006406D01*
X012938Y006632D02*
X012938Y005281D01*
X013614Y005281D01*
X013839Y005506D01*
X013839Y005731D01*
X013614Y005956D01*
X012938Y005956D01*
X013614Y005956D02*
X013839Y006181D01*
X013839Y006406D01*
X013614Y006632D01*
X012938Y006632D01*
X015700Y006632D02*
X015700Y005281D01*
X015700Y005731D02*
X016376Y005731D01*
X016601Y005956D01*
X016601Y006406D01*
X016376Y006632D01*
X015700Y006632D01*
X017081Y005956D02*
X017081Y005506D01*
X017307Y005281D01*
X017757Y005281D01*
X017982Y005506D01*
X017982Y005956D01*
X017757Y006181D01*
X017307Y006181D01*
X017081Y005956D01*
X018463Y005731D02*
X018913Y006181D01*
X019138Y006181D01*
X019614Y006181D02*
X020064Y006181D01*
X019839Y006406D02*
X019839Y005506D01*
X020064Y005281D01*
X020534Y005281D02*
X021210Y005281D01*
X021435Y005506D01*
X021210Y005731D01*
X020759Y005731D01*
X020534Y005956D01*
X020759Y006181D01*
X021435Y006181D01*
X018463Y006181D02*
X018463Y005281D01*
D12*
X029886Y006241D02*
X029886Y006871D01*
X030201Y006871D01*
X030306Y006766D01*
X030306Y006556D01*
X030201Y006451D01*
X029886Y006451D01*
X030530Y006556D02*
X030635Y006661D01*
X030846Y006661D01*
X030951Y006556D01*
X030951Y006241D01*
X031175Y006346D02*
X031280Y006241D01*
X031490Y006241D01*
X031595Y006346D01*
X031595Y006556D01*
X031490Y006661D01*
X031280Y006661D01*
X031175Y006556D01*
X031175Y006346D01*
X031819Y006241D02*
X031819Y006661D01*
X032135Y006661D01*
X032240Y006556D01*
X032240Y006241D01*
X032464Y006346D02*
X032464Y006556D01*
X032569Y006661D01*
X032779Y006661D01*
X032884Y006556D01*
X032884Y006451D01*
X032464Y006451D01*
X032464Y006346D02*
X032569Y006241D01*
X032779Y006241D01*
X033108Y006241D02*
X033424Y006241D01*
X033529Y006346D01*
X033424Y006451D01*
X033214Y006451D01*
X033108Y006556D01*
X033214Y006661D01*
X033529Y006661D01*
X035886Y006871D02*
X035886Y006241D01*
X036306Y006241D02*
X036306Y006871D01*
X036096Y006661D01*
X035886Y006871D01*
X036530Y006661D02*
X036635Y006661D01*
X036635Y006241D01*
X036530Y006241D02*
X036740Y006241D01*
X036960Y006346D02*
X037065Y006241D01*
X037380Y006241D01*
X037380Y006661D02*
X037065Y006661D01*
X036960Y006556D01*
X036960Y006346D01*
X036635Y006871D02*
X036635Y006976D01*
X030530Y006871D02*
X030530Y006241D01*
X059685Y006341D02*
X060316Y006341D01*
X060211Y006565D02*
X059685Y006565D01*
X059685Y006341D02*
X059895Y006130D01*
X059685Y005920D01*
X060316Y005920D01*
X060316Y005701D02*
X060316Y005491D01*
X060316Y005596D02*
X059685Y005596D01*
X059685Y005491D02*
X059685Y005701D01*
X060211Y006565D02*
X060316Y006670D01*
X060316Y006880D01*
X060211Y006985D01*
X059685Y006985D01*
X059790Y007854D02*
X060211Y007854D01*
X060316Y007959D01*
X060316Y008169D01*
X060211Y008274D01*
X060211Y008498D02*
X060316Y008603D01*
X060316Y008814D01*
X060211Y008919D01*
X060001Y008919D01*
X059895Y008814D01*
X059895Y008603D01*
X060001Y008498D01*
X060211Y008498D01*
X059790Y008274D02*
X059685Y008169D01*
X059685Y007959D01*
X059790Y007854D01*
X059895Y009143D02*
X059895Y009248D01*
X060001Y009353D01*
X059895Y009458D01*
X060001Y009563D01*
X060316Y009563D01*
X060316Y009353D02*
X060001Y009353D01*
X059895Y009143D02*
X060316Y009143D01*
X060316Y009787D02*
X059895Y009787D01*
X059895Y009892D01*
X060001Y009998D01*
X059895Y010103D01*
X060001Y010208D01*
X060316Y010208D01*
X060316Y009998D02*
X060001Y009998D01*
X064185Y009028D02*
X064185Y008818D01*
X064290Y008713D01*
X064711Y008713D01*
X064816Y008818D01*
X064816Y009028D01*
X064711Y009134D01*
X064711Y009358D02*
X064816Y009463D01*
X064816Y009673D01*
X064711Y009778D01*
X064501Y009778D01*
X064395Y009673D01*
X064395Y009463D01*
X064501Y009358D01*
X064711Y009358D01*
X064290Y009134D02*
X064185Y009028D01*
X064395Y010002D02*
X064395Y010107D01*
X064501Y010212D01*
X064395Y010317D01*
X064501Y010423D01*
X064816Y010423D01*
X064816Y010212D02*
X064501Y010212D01*
X064395Y010002D02*
X064816Y010002D01*
X064816Y010647D02*
X064395Y010647D01*
X064395Y010752D01*
X064501Y010857D01*
X064395Y010962D01*
X064501Y011067D01*
X064816Y011067D01*
X064816Y010857D02*
X064501Y010857D01*
X064501Y007844D02*
X064606Y007844D01*
X064606Y007424D01*
X064711Y007424D02*
X064501Y007424D01*
X064395Y007529D01*
X064395Y007739D01*
X064501Y007844D01*
X064816Y007739D02*
X064816Y007529D01*
X064711Y007424D01*
X064606Y007200D02*
X064606Y006780D01*
X064711Y006780D02*
X064501Y006780D01*
X064395Y006885D01*
X064395Y007095D01*
X064501Y007200D01*
X064606Y007200D01*
X064816Y007095D02*
X064816Y006885D01*
X064711Y006780D01*
X064711Y006555D02*
X064816Y006450D01*
X064816Y006135D01*
X064185Y006135D01*
X064185Y006450D01*
X064290Y006555D01*
X064395Y006555D01*
X064501Y006450D01*
X064501Y006135D01*
X064501Y006450D02*
X064606Y006555D01*
X064711Y006555D01*
X064816Y005911D02*
X064185Y005491D01*
X064185Y005911D02*
X064816Y005491D01*
X068685Y005596D02*
X068790Y005491D01*
X069211Y005491D01*
X069316Y005596D01*
X069316Y005806D01*
X069211Y005911D01*
X069001Y005911D01*
X069001Y005701D01*
X068790Y005911D02*
X068685Y005806D01*
X068685Y005596D01*
X068685Y006135D02*
X068685Y006450D01*
X068790Y006555D01*
X069001Y006555D01*
X069106Y006450D01*
X069106Y006135D01*
X069316Y006135D02*
X068685Y006135D01*
X068790Y006780D02*
X068895Y006780D01*
X069001Y006885D01*
X069001Y007095D01*
X069106Y007200D01*
X069211Y007200D01*
X069316Y007095D01*
X069316Y006885D01*
X069211Y006780D01*
X068790Y006780D02*
X068685Y006885D01*
X068685Y007095D01*
X068790Y007200D01*
X068685Y008069D02*
X069316Y008069D01*
X069316Y008489D01*
X069211Y008713D02*
X069316Y008818D01*
X069316Y009028D01*
X069211Y009134D01*
X069001Y009134D01*
X068895Y009028D01*
X068895Y008818D01*
X069001Y008713D01*
X069211Y008713D01*
X069211Y009358D02*
X069316Y009463D01*
X069316Y009778D01*
X069316Y010002D02*
X068685Y010002D01*
X068895Y009778D02*
X068895Y009463D01*
X069001Y009358D01*
X069211Y009358D01*
X069106Y010002D02*
X068895Y010317D01*
X069106Y010002D02*
X069316Y010317D01*
X073185Y009573D02*
X073816Y009573D01*
X073816Y009348D02*
X073816Y009033D01*
X073711Y008928D01*
X073501Y008928D01*
X073395Y009033D01*
X073395Y009348D01*
X073921Y009348D01*
X074026Y009243D01*
X074026Y009138D01*
X073816Y008708D02*
X073816Y008498D01*
X073816Y008603D02*
X073395Y008603D01*
X073395Y008498D01*
X073185Y008603D02*
X073080Y008603D01*
X073185Y008174D02*
X073816Y008174D01*
X073816Y008069D02*
X073816Y008279D01*
X073816Y007844D02*
X073185Y007844D01*
X073395Y007844D02*
X073395Y007529D01*
X073501Y007424D01*
X073711Y007424D01*
X073816Y007529D01*
X073816Y007844D01*
X073816Y007200D02*
X073816Y006885D01*
X073711Y006780D01*
X073606Y006885D01*
X073606Y007200D01*
X073501Y007200D02*
X073816Y007200D01*
X073501Y007200D02*
X073395Y007095D01*
X073395Y006885D01*
X073501Y006555D02*
X073606Y006555D01*
X073606Y006135D01*
X073711Y006135D02*
X073501Y006135D01*
X073395Y006240D01*
X073395Y006450D01*
X073501Y006555D01*
X073816Y006450D02*
X073816Y006240D01*
X073711Y006135D01*
X073816Y005911D02*
X073185Y005911D01*
X073501Y005911D02*
X073501Y005491D01*
X073816Y005491D02*
X073185Y005491D01*
X073185Y008069D02*
X073185Y008174D01*
X073501Y009573D02*
X073395Y009678D01*
X073395Y009888D01*
X073501Y009993D01*
X073816Y009993D01*
X073711Y010322D02*
X073816Y010427D01*
X073711Y010322D02*
X073290Y010322D01*
X073395Y010217D02*
X073395Y010427D01*
X073501Y010647D02*
X073395Y010752D01*
X073395Y011067D01*
X073606Y010962D02*
X073606Y010752D01*
X073501Y010647D01*
X073816Y010647D02*
X073816Y010962D01*
X073711Y011067D01*
X073606Y010962D01*
X077790Y010752D02*
X078211Y010752D01*
X078316Y010857D01*
X078316Y011076D02*
X078316Y011392D01*
X078211Y011497D01*
X078106Y011392D01*
X078106Y011181D01*
X078001Y011076D01*
X077895Y011181D01*
X077895Y011497D01*
X077895Y010857D02*
X077895Y010647D01*
X078001Y010423D02*
X078316Y010423D01*
X078001Y010423D02*
X077895Y010317D01*
X077895Y010107D01*
X078001Y010002D01*
X077895Y009778D02*
X077895Y009463D01*
X078001Y009358D01*
X078211Y009358D01*
X078316Y009463D01*
X078316Y009778D01*
X078421Y009778D02*
X077895Y009778D01*
X077685Y010002D02*
X078316Y010002D01*
X078421Y009778D02*
X078526Y009673D01*
X078526Y009568D01*
X078316Y009138D02*
X078316Y008928D01*
X078316Y009033D02*
X077895Y009033D01*
X077895Y008928D01*
X077685Y009033D02*
X077580Y009033D01*
X077685Y008603D02*
X078316Y008603D01*
X078316Y008498D02*
X078316Y008708D01*
X078106Y008274D02*
X078106Y007854D01*
X078211Y007854D02*
X078001Y007854D01*
X077895Y007959D01*
X077895Y008169D01*
X078001Y008274D01*
X078106Y008274D01*
X078316Y008169D02*
X078316Y007959D01*
X078211Y007854D01*
X078316Y007632D02*
X078106Y007317D01*
X077895Y007632D01*
X077685Y007317D02*
X078316Y007317D01*
X078316Y007092D02*
X078316Y006777D01*
X078211Y006672D01*
X078106Y006777D01*
X078106Y007092D01*
X078001Y007092D02*
X078316Y007092D01*
X078001Y007092D02*
X077895Y006987D01*
X077895Y006777D01*
X077895Y006450D02*
X077895Y006345D01*
X078106Y006135D01*
X078316Y006135D02*
X077895Y006135D01*
X077895Y005911D02*
X078001Y005806D01*
X078001Y005491D01*
X078001Y005806D02*
X078106Y005911D01*
X078211Y005911D01*
X078316Y005806D01*
X078316Y005491D01*
X077685Y005491D01*
X077685Y005806D01*
X077790Y005911D01*
X077895Y005911D01*
X077685Y008498D02*
X077685Y008603D01*
X082185Y008704D02*
X082185Y008283D01*
X082185Y008494D02*
X082816Y008494D01*
X082711Y008928D02*
X082816Y009033D01*
X082816Y009348D01*
X082395Y009348D01*
X082395Y009573D02*
X082816Y009573D01*
X082606Y009573D02*
X082395Y009783D01*
X082395Y009888D01*
X082395Y010110D02*
X082395Y010425D01*
X082501Y010530D01*
X082816Y010530D01*
X082816Y010110D02*
X082395Y010110D01*
X082395Y008928D02*
X082711Y008928D01*
X082816Y007419D02*
X082711Y007314D01*
X082290Y007314D01*
X082395Y007209D02*
X082395Y007419D01*
X082501Y006990D02*
X082501Y006780D01*
X082501Y006555D02*
X082606Y006555D01*
X082606Y006135D01*
X082711Y006135D02*
X082501Y006135D01*
X082395Y006240D01*
X082395Y006450D01*
X082501Y006555D01*
X082816Y006450D02*
X082816Y006240D01*
X082711Y006135D01*
X082816Y005911D02*
X082816Y005491D01*
X082185Y005491D01*
X082290Y006885D02*
X082185Y006990D01*
X082290Y006885D02*
X082816Y006885D01*
X086580Y006240D02*
X086685Y006240D01*
X086895Y006240D02*
X087316Y006240D01*
X087316Y006135D02*
X087316Y006345D01*
X087211Y006565D02*
X087316Y006670D01*
X087316Y006985D01*
X087421Y006985D02*
X086895Y006985D01*
X086895Y006670D01*
X087001Y006565D01*
X087211Y006565D01*
X087526Y006775D02*
X087526Y006880D01*
X087421Y006985D01*
X087316Y007209D02*
X086685Y007209D01*
X086895Y007314D02*
X086895Y007524D01*
X087001Y007630D01*
X087316Y007630D01*
X087211Y007959D02*
X087316Y008064D01*
X087211Y007959D02*
X086790Y007959D01*
X086895Y007854D02*
X086895Y008064D01*
X086895Y007314D02*
X087001Y007209D01*
X086895Y006240D02*
X086895Y006135D01*
X086790Y005911D02*
X087001Y005911D01*
X087106Y005806D01*
X087106Y005491D01*
X087106Y005701D02*
X087316Y005911D01*
X087316Y005491D02*
X086685Y005491D01*
X086685Y005806D01*
X086790Y005911D01*
X086685Y008928D02*
X086685Y009348D01*
X086685Y009138D02*
X087316Y009138D01*
X087211Y009573D02*
X087316Y009678D01*
X087316Y009993D01*
X086895Y009993D01*
X086895Y010217D02*
X087316Y010217D01*
X087106Y010217D02*
X086895Y010427D01*
X086895Y010532D01*
X086895Y010754D02*
X086895Y011069D01*
X087001Y011174D01*
X087316Y011174D01*
X087316Y010754D02*
X086895Y010754D01*
X086895Y009573D02*
X087211Y009573D01*
X091290Y007851D02*
X091711Y007851D01*
X091816Y007956D01*
X091711Y008176D02*
X091501Y008176D01*
X091395Y008281D01*
X091395Y008491D01*
X091501Y008596D01*
X091606Y008596D01*
X091606Y008176D01*
X091711Y008176D02*
X091816Y008281D01*
X091816Y008491D01*
X091816Y008821D02*
X091395Y008821D01*
X091395Y009031D02*
X091606Y008821D01*
X091395Y009031D02*
X091395Y009136D01*
X091395Y007956D02*
X091395Y007746D01*
X091395Y007524D02*
X091395Y007419D01*
X091606Y007209D01*
X091816Y007209D02*
X091395Y007209D01*
X091501Y006985D02*
X091816Y006985D01*
X091816Y006670D01*
X091711Y006565D01*
X091606Y006670D01*
X091606Y006985D01*
X091501Y006985D02*
X091395Y006880D01*
X091395Y006670D01*
X091395Y006345D02*
X091395Y006135D01*
X091290Y006240D02*
X091711Y006240D01*
X091816Y006345D01*
X091711Y005911D02*
X091816Y005806D01*
X091816Y005596D01*
X091711Y005491D01*
X091501Y005596D02*
X091501Y005806D01*
X091606Y005911D01*
X091711Y005911D01*
X091501Y005596D02*
X091395Y005491D01*
X091290Y005491D01*
X091185Y005596D01*
X091185Y005806D01*
X091290Y005911D01*
X095685Y005911D02*
X096316Y005911D01*
X096211Y006135D02*
X096316Y006240D01*
X096316Y006450D01*
X096211Y006555D01*
X096001Y006555D01*
X095895Y006450D01*
X095895Y006240D01*
X096001Y006135D01*
X096211Y006135D01*
X096001Y005911D02*
X096001Y005491D01*
X096316Y005491D02*
X095685Y005491D01*
X095895Y006780D02*
X096316Y006780D01*
X096106Y006780D02*
X095895Y006990D01*
X095895Y007095D01*
X095895Y007317D02*
X095895Y007632D01*
X096001Y007737D01*
X096316Y007737D01*
X096316Y007317D02*
X095895Y007317D01*
X050066Y037991D02*
X049435Y037991D01*
X049435Y038306D01*
X049540Y038411D01*
X049751Y038411D01*
X049856Y038306D01*
X049856Y037991D01*
X049751Y038635D02*
X049751Y039055D01*
X050066Y038950D02*
X049435Y038950D01*
X049751Y038635D01*
X050066Y039924D02*
X050066Y040134D01*
X050066Y040029D02*
X049435Y040029D01*
X049435Y039924D02*
X049435Y040134D01*
X049645Y040354D02*
X049645Y040669D01*
X049751Y040774D01*
X050066Y040774D01*
X050066Y040354D02*
X049645Y040354D01*
X037566Y041241D02*
X036935Y041241D01*
X036935Y041556D01*
X037040Y041661D01*
X037251Y041661D01*
X037356Y041556D01*
X037356Y041241D01*
X037251Y041885D02*
X037461Y041885D01*
X037566Y041990D01*
X037566Y042200D01*
X037461Y042305D01*
X037251Y042305D01*
X037145Y042200D01*
X037145Y041990D01*
X037251Y041885D01*
X037145Y042530D02*
X037461Y042530D01*
X037566Y042635D01*
X037461Y042740D01*
X037566Y042845D01*
X037461Y042950D01*
X037145Y042950D01*
X037251Y043174D02*
X037145Y043279D01*
X037145Y043489D01*
X037251Y043594D01*
X037356Y043594D01*
X037356Y043174D01*
X037461Y043174D02*
X037251Y043174D01*
X037461Y043174D02*
X037566Y043279D01*
X037566Y043489D01*
X037566Y043819D02*
X037145Y043819D01*
X037145Y044029D02*
X037145Y044134D01*
X037145Y044029D02*
X037356Y043819D01*
X037461Y045000D02*
X037566Y045105D01*
X037566Y045315D01*
X037461Y045421D01*
X037356Y045421D01*
X037251Y045315D01*
X037251Y045105D01*
X037145Y045000D01*
X037040Y045000D01*
X036935Y045105D01*
X036935Y045315D01*
X037040Y045421D01*
X037145Y045645D02*
X037461Y045645D01*
X037566Y045750D01*
X037566Y046065D01*
X037145Y046065D01*
X037145Y046289D02*
X037145Y046605D01*
X037251Y046710D01*
X037461Y046710D01*
X037566Y046605D01*
X037566Y046289D01*
X037776Y046289D02*
X037145Y046289D01*
X037145Y046934D02*
X037145Y047249D01*
X037251Y047354D01*
X037461Y047354D01*
X037566Y047249D01*
X037566Y046934D01*
X037776Y046934D02*
X037145Y046934D01*
X036935Y047578D02*
X036935Y047683D01*
X037566Y047683D01*
X037566Y047578D02*
X037566Y047789D01*
X037461Y048008D02*
X037566Y048113D01*
X037566Y048428D01*
X037671Y048428D02*
X037776Y048323D01*
X037776Y048218D01*
X037671Y048428D02*
X037145Y048428D01*
X037145Y048008D02*
X037461Y048008D01*
X037566Y049297D02*
X037566Y049507D01*
X037566Y049402D02*
X036935Y049402D01*
X036935Y049297D02*
X036935Y049507D01*
X037145Y049727D02*
X037145Y050042D01*
X037251Y050147D01*
X037566Y050147D01*
X037566Y049727D02*
X037145Y049727D01*
X041635Y061998D02*
X042266Y061998D01*
X042266Y062418D01*
X042266Y062643D02*
X041845Y063063D01*
X041845Y063287D02*
X041845Y063602D01*
X041951Y063707D01*
X042161Y063707D01*
X042266Y063602D01*
X042266Y063287D01*
X042476Y063287D02*
X041845Y063287D01*
X042266Y063063D02*
X041845Y062643D01*
X041635Y062418D02*
X041635Y061998D01*
X041951Y061998D02*
X041951Y062208D01*
X042161Y063932D02*
X042056Y064037D01*
X042056Y064352D01*
X041951Y064352D02*
X042266Y064352D01*
X042266Y064037D01*
X042161Y063932D01*
X041845Y064037D02*
X041845Y064247D01*
X041951Y064352D01*
X041845Y064576D02*
X041845Y064891D01*
X041951Y064996D01*
X042266Y064996D01*
X042266Y065221D02*
X042266Y065536D01*
X042161Y065641D01*
X042056Y065536D01*
X042056Y065326D01*
X041951Y065221D01*
X041845Y065326D01*
X041845Y065641D01*
X041845Y065865D02*
X041845Y065970D01*
X042266Y065970D01*
X042266Y065865D02*
X042266Y066075D01*
X042161Y066295D02*
X041951Y066295D01*
X041845Y066400D01*
X041845Y066610D01*
X041951Y066715D01*
X042161Y066715D01*
X042266Y066610D01*
X042266Y066400D01*
X042161Y066295D01*
X041635Y065970D02*
X041530Y065970D01*
X041845Y066939D02*
X041845Y067255D01*
X041951Y067360D01*
X042266Y067360D01*
X042266Y066939D02*
X041845Y066939D01*
X041635Y068228D02*
X041635Y068544D01*
X041740Y068649D01*
X041951Y068649D01*
X042056Y068544D01*
X042056Y068228D01*
X042266Y068228D02*
X041635Y068228D01*
X041635Y068873D02*
X042266Y068873D01*
X042056Y069083D01*
X042266Y069293D01*
X041635Y069293D01*
X041635Y069518D02*
X041635Y069833D01*
X041740Y069938D01*
X041951Y069938D01*
X042056Y069833D01*
X042056Y069518D01*
X042056Y069728D02*
X042266Y069938D01*
X042266Y069518D02*
X041635Y069518D01*
X041845Y070807D02*
X041635Y071017D01*
X042266Y071017D01*
X042266Y070807D02*
X042266Y071227D01*
X042266Y071451D02*
X041845Y071871D01*
X041740Y071871D01*
X041635Y071766D01*
X041635Y071556D01*
X041740Y071451D01*
X042266Y071451D02*
X042266Y071871D01*
X042056Y072096D02*
X042266Y072306D01*
X042056Y072516D01*
X041635Y072516D01*
X041635Y072096D02*
X042056Y072096D01*
X038766Y072306D02*
X038556Y072516D01*
X038135Y072516D01*
X038135Y072096D02*
X038556Y072096D01*
X038766Y072306D01*
X038661Y071871D02*
X038766Y071766D01*
X038766Y071556D01*
X038661Y071451D01*
X038451Y071451D02*
X038345Y071661D01*
X038345Y071766D01*
X038451Y071871D01*
X038661Y071871D01*
X038451Y071451D02*
X038135Y071451D01*
X038135Y071871D01*
X038240Y070582D02*
X038451Y070582D01*
X038556Y070477D01*
X038556Y070162D01*
X038766Y070162D02*
X038135Y070162D01*
X038135Y070477D01*
X038240Y070582D01*
X038556Y070372D02*
X038766Y070582D01*
X038766Y069938D02*
X038135Y069938D01*
X038135Y069518D02*
X038766Y069518D01*
X038556Y069728D01*
X038766Y069938D01*
X038451Y069293D02*
X038556Y069188D01*
X038556Y068873D01*
X038766Y068873D02*
X038135Y068873D01*
X038135Y069188D01*
X038240Y069293D01*
X038451Y069293D01*
X038451Y068004D02*
X038766Y068004D01*
X038451Y068004D02*
X038345Y067899D01*
X038345Y067584D01*
X038766Y067584D01*
X038661Y067360D02*
X038451Y067360D01*
X038345Y067255D01*
X038345Y067044D01*
X038451Y066939D01*
X038661Y066939D01*
X038766Y067044D01*
X038766Y067255D01*
X038661Y067360D01*
X038766Y066720D02*
X038766Y066510D01*
X038766Y066615D02*
X038345Y066615D01*
X038345Y066510D01*
X038345Y066286D02*
X038345Y065970D01*
X038451Y065865D01*
X038556Y065970D01*
X038556Y066180D01*
X038661Y066286D01*
X038766Y066180D01*
X038766Y065865D01*
X038766Y065641D02*
X038451Y065641D01*
X038345Y065536D01*
X038345Y065221D01*
X038766Y065221D01*
X038766Y064996D02*
X038766Y064681D01*
X038661Y064576D01*
X038556Y064681D01*
X038556Y064996D01*
X038451Y064996D02*
X038766Y064996D01*
X038451Y064996D02*
X038345Y064891D01*
X038345Y064681D01*
X038451Y064352D02*
X038661Y064352D01*
X038766Y064247D01*
X038766Y063932D01*
X038976Y063932D02*
X038345Y063932D01*
X038345Y064247D01*
X038451Y064352D01*
X038345Y063707D02*
X038766Y063287D01*
X038766Y063063D02*
X038766Y062643D01*
X038135Y062643D01*
X038135Y063063D01*
X038345Y063287D02*
X038766Y063707D01*
X038451Y062853D02*
X038451Y062643D01*
X035266Y062643D02*
X035266Y063063D01*
X035266Y063287D02*
X034845Y063707D01*
X034845Y063932D02*
X034845Y064247D01*
X034951Y064352D01*
X035161Y064352D01*
X035266Y064247D01*
X035266Y063932D01*
X035476Y063932D02*
X034845Y063932D01*
X035266Y063707D02*
X034845Y063287D01*
X034635Y063063D02*
X034635Y062643D01*
X035266Y062643D01*
X034951Y062643D02*
X034951Y062853D01*
X035161Y064576D02*
X035056Y064681D01*
X035056Y064996D01*
X034951Y064996D02*
X035266Y064996D01*
X035266Y064681D01*
X035161Y064576D01*
X034845Y064681D02*
X034845Y064891D01*
X034951Y064996D01*
X034845Y065221D02*
X035266Y065221D01*
X035266Y065641D02*
X034951Y065641D01*
X034845Y065536D01*
X034845Y065221D01*
X034951Y065865D02*
X034845Y065970D01*
X034845Y066286D01*
X034845Y066510D02*
X034845Y066615D01*
X035266Y066615D01*
X035266Y066510D02*
X035266Y066720D01*
X035161Y066939D02*
X035266Y067044D01*
X035266Y067255D01*
X035161Y067360D01*
X034951Y067360D01*
X034845Y067255D01*
X034845Y067044D01*
X034951Y066939D01*
X035161Y066939D01*
X034635Y066615D02*
X034530Y066615D01*
X035056Y066180D02*
X035056Y065970D01*
X034951Y065865D01*
X035266Y065865D02*
X035266Y066180D01*
X035161Y066286D01*
X035056Y066180D01*
X035266Y067584D02*
X034845Y067584D01*
X034845Y067899D01*
X034951Y068004D01*
X035266Y068004D01*
X035266Y068873D02*
X034635Y068873D01*
X034635Y069188D01*
X034740Y069293D01*
X034951Y069293D01*
X035056Y069188D01*
X035056Y068873D01*
X035266Y069518D02*
X034635Y069518D01*
X034635Y069938D02*
X035266Y069938D01*
X035056Y069728D01*
X035266Y069518D01*
X035266Y070162D02*
X034635Y070162D01*
X034635Y070477D01*
X034740Y070582D01*
X034951Y070582D01*
X035056Y070477D01*
X035056Y070162D01*
X035056Y070372D02*
X035266Y070582D01*
X035161Y071451D02*
X035266Y071556D01*
X035266Y071766D01*
X035161Y071871D01*
X034951Y071871D01*
X034845Y071766D01*
X034845Y071661D01*
X034951Y071451D01*
X034635Y071451D01*
X034635Y071871D01*
X034635Y072096D02*
X035056Y072096D01*
X035266Y072306D01*
X035056Y072516D01*
X034635Y072516D01*
X031766Y072306D02*
X031556Y072516D01*
X031135Y072516D01*
X031135Y072096D02*
X031556Y072096D01*
X031766Y072306D01*
X031661Y071871D02*
X031766Y071766D01*
X031766Y071556D01*
X031661Y071451D01*
X031661Y071234D02*
X031766Y071234D01*
X031766Y071129D01*
X031661Y071129D01*
X031661Y071234D01*
X031661Y070905D02*
X031766Y070800D01*
X031766Y070589D01*
X031661Y070484D01*
X031451Y070694D02*
X031451Y070800D01*
X031556Y070905D01*
X031661Y070905D01*
X031451Y070800D02*
X031345Y070905D01*
X031240Y070905D01*
X031135Y070800D01*
X031135Y070589D01*
X031240Y070484D01*
X031240Y069616D02*
X031451Y069616D01*
X031556Y069510D01*
X031556Y069195D01*
X031766Y069195D02*
X031135Y069195D01*
X031135Y069510D01*
X031240Y069616D01*
X031556Y069405D02*
X031766Y069616D01*
X031766Y068971D02*
X031135Y068971D01*
X031135Y068551D02*
X031766Y068551D01*
X031556Y068761D01*
X031766Y068971D01*
X031451Y068327D02*
X031240Y068327D01*
X031135Y068221D01*
X031135Y067906D01*
X031766Y067906D01*
X031556Y067906D02*
X031556Y068221D01*
X031451Y068327D01*
X031451Y067037D02*
X031766Y067037D01*
X031451Y067037D02*
X031345Y066932D01*
X031345Y066617D01*
X031766Y066617D01*
X031661Y066393D02*
X031451Y066393D01*
X031345Y066288D01*
X031345Y066078D01*
X031451Y065973D01*
X031661Y065973D01*
X031766Y066078D01*
X031766Y066288D01*
X031661Y066393D01*
X031766Y065753D02*
X031766Y065543D01*
X031766Y065648D02*
X031345Y065648D01*
X031345Y065543D01*
X031345Y065319D02*
X031345Y065003D01*
X031451Y064898D01*
X031556Y065003D01*
X031556Y065214D01*
X031661Y065319D01*
X031766Y065214D01*
X031766Y064898D01*
X031766Y064674D02*
X031451Y064674D01*
X031345Y064569D01*
X031345Y064254D01*
X031766Y064254D01*
X031766Y064030D02*
X031766Y063714D01*
X031661Y063609D01*
X031556Y063714D01*
X031556Y064030D01*
X031451Y064030D02*
X031766Y064030D01*
X031451Y064030D02*
X031345Y063925D01*
X031345Y063714D01*
X031451Y063385D02*
X031661Y063385D01*
X031766Y063280D01*
X031766Y062965D01*
X031976Y062965D02*
X031345Y062965D01*
X031345Y063280D01*
X031451Y063385D01*
X031345Y062741D02*
X031766Y062320D01*
X031766Y062096D02*
X031766Y061676D01*
X031135Y061676D01*
X031135Y062096D01*
X031345Y062320D02*
X031766Y062741D01*
X031451Y061886D02*
X031451Y061676D01*
X028266Y061676D02*
X028266Y062096D01*
X028266Y062320D02*
X027845Y062741D01*
X027845Y062965D02*
X027845Y063280D01*
X027951Y063385D01*
X028161Y063385D01*
X028266Y063280D01*
X028266Y062965D01*
X028476Y062965D02*
X027845Y062965D01*
X028266Y062741D02*
X027845Y062320D01*
X027635Y062096D02*
X027635Y061676D01*
X028266Y061676D01*
X027951Y061676D02*
X027951Y061886D01*
X028161Y063609D02*
X028056Y063714D01*
X028056Y064030D01*
X027951Y064030D02*
X028266Y064030D01*
X028266Y063714D01*
X028161Y063609D01*
X027845Y063714D02*
X027845Y063925D01*
X027951Y064030D01*
X027845Y064254D02*
X027845Y064569D01*
X027951Y064674D01*
X028266Y064674D01*
X028266Y064898D02*
X028266Y065214D01*
X028161Y065319D01*
X028056Y065214D01*
X028056Y065003D01*
X027951Y064898D01*
X027845Y065003D01*
X027845Y065319D01*
X027845Y065543D02*
X027845Y065648D01*
X028266Y065648D01*
X028266Y065543D02*
X028266Y065753D01*
X028161Y065973D02*
X028266Y066078D01*
X028266Y066288D01*
X028161Y066393D01*
X027951Y066393D01*
X027845Y066288D01*
X027845Y066078D01*
X027951Y065973D01*
X028161Y065973D01*
X027635Y065648D02*
X027530Y065648D01*
X027845Y066617D02*
X027845Y066932D01*
X027951Y067037D01*
X028266Y067037D01*
X028266Y066617D02*
X027845Y066617D01*
X027635Y067906D02*
X027635Y068221D01*
X027740Y068327D01*
X027951Y068327D01*
X028056Y068221D01*
X028056Y067906D01*
X028266Y067906D02*
X027635Y067906D01*
X027635Y068551D02*
X028266Y068551D01*
X028056Y068761D01*
X028266Y068971D01*
X027635Y068971D01*
X027635Y069195D02*
X027635Y069510D01*
X027740Y069616D01*
X027951Y069616D01*
X028056Y069510D01*
X028056Y069195D01*
X028266Y069195D02*
X027635Y069195D01*
X028056Y069405D02*
X028266Y069616D01*
X028161Y070484D02*
X028266Y070589D01*
X028266Y070800D01*
X028161Y070905D01*
X028056Y070905D01*
X027951Y070800D01*
X027951Y070694D01*
X027951Y070800D02*
X027845Y070905D01*
X027740Y070905D01*
X027635Y070800D01*
X027635Y070589D01*
X027740Y070484D01*
X028161Y071129D02*
X028161Y071234D01*
X028266Y071234D01*
X028266Y071129D01*
X028161Y071129D01*
X028161Y071451D02*
X028266Y071556D01*
X028266Y071766D01*
X028161Y071871D01*
X028056Y071871D01*
X027951Y071766D01*
X027951Y071661D01*
X027951Y071766D02*
X027845Y071871D01*
X027740Y071871D01*
X027635Y071766D01*
X027635Y071556D01*
X027740Y071451D01*
X027635Y072096D02*
X028056Y072096D01*
X028266Y072306D01*
X028056Y072516D01*
X027635Y072516D01*
X024188Y071741D02*
X023978Y071741D01*
X024083Y071741D02*
X024083Y072371D01*
X023978Y072371D01*
X023753Y072056D02*
X023753Y071951D01*
X023333Y071951D01*
X023333Y072056D02*
X023438Y072161D01*
X023648Y072161D01*
X023753Y072056D01*
X023648Y071741D02*
X023438Y071741D01*
X023333Y071846D01*
X023333Y072056D01*
X023109Y072056D02*
X023109Y071951D01*
X022688Y071951D01*
X022688Y072056D02*
X022794Y072161D01*
X023004Y072161D01*
X023109Y072056D01*
X023004Y071741D02*
X022794Y071741D01*
X022688Y071846D01*
X022688Y072056D01*
X022464Y072056D02*
X022464Y071741D01*
X022464Y072056D02*
X022359Y072161D01*
X022149Y072161D01*
X022044Y072056D01*
X022044Y072371D02*
X022044Y071741D01*
X021820Y071741D02*
X021820Y072371D01*
X021399Y072371D02*
X021399Y071741D01*
X021610Y071951D01*
X021820Y071741D01*
X020531Y071741D02*
X020215Y071741D01*
X020110Y071846D01*
X020110Y072056D01*
X020215Y072161D01*
X020531Y072161D01*
X020531Y071635D01*
X020426Y071530D01*
X020321Y071530D01*
X019886Y071741D02*
X019886Y072056D01*
X019781Y072161D01*
X019466Y072161D01*
X019466Y071741D01*
X019246Y071741D02*
X019036Y071741D01*
X019141Y071741D02*
X019141Y072161D01*
X019036Y072161D01*
X018814Y072161D02*
X018709Y072161D01*
X018499Y071951D01*
X018499Y071741D02*
X018499Y072161D01*
X018275Y072056D02*
X018275Y071951D01*
X017855Y071951D01*
X017855Y072056D02*
X017960Y072161D01*
X018170Y072161D01*
X018275Y072056D01*
X018170Y071741D02*
X017960Y071741D01*
X017855Y071846D01*
X017855Y072056D01*
X017630Y072056D02*
X017630Y071951D01*
X017210Y071951D01*
X017210Y072056D02*
X017315Y072161D01*
X017525Y072161D01*
X017630Y072056D01*
X017525Y071741D02*
X017315Y071741D01*
X017210Y071846D01*
X017210Y072056D01*
X016990Y072161D02*
X016780Y072161D01*
X016885Y072266D02*
X016885Y071846D01*
X016990Y071741D01*
X016556Y071846D02*
X016556Y071951D01*
X016451Y072056D01*
X016241Y072056D01*
X016136Y072161D01*
X016136Y072266D01*
X016241Y072371D01*
X016451Y072371D01*
X016556Y072266D01*
X016556Y071846D02*
X016451Y071741D01*
X016241Y071741D01*
X016136Y071846D01*
X019141Y072371D02*
X019141Y072476D01*
X009849Y072161D02*
X009534Y072161D01*
X009429Y072056D01*
X009534Y071951D01*
X009744Y071951D01*
X009849Y071846D01*
X009744Y071741D01*
X009429Y071741D01*
X009209Y071741D02*
X009104Y071846D01*
X009104Y072266D01*
X008999Y072161D02*
X009209Y072161D01*
X008775Y072056D02*
X008775Y071741D01*
X008775Y072056D02*
X008670Y072161D01*
X008460Y072161D01*
X008355Y072056D01*
X008130Y072161D02*
X007815Y072161D01*
X007710Y072056D01*
X007710Y071846D01*
X007815Y071741D01*
X008130Y071741D01*
X008130Y071635D02*
X008130Y072161D01*
X008355Y072371D02*
X008355Y071741D01*
X008130Y071635D02*
X008025Y071530D01*
X007920Y071530D01*
X007490Y071741D02*
X007280Y071741D01*
X007385Y071741D02*
X007385Y072161D01*
X007280Y072161D01*
X007385Y072371D02*
X007385Y072476D01*
X006636Y072371D02*
X006636Y071741D01*
X007056Y071741D01*
X027845Y064254D02*
X028266Y064254D01*
X031030Y065648D02*
X031135Y065648D01*
X038030Y066615D02*
X038135Y066615D01*
X041845Y064576D02*
X042266Y064576D01*
X045345Y064576D02*
X045345Y064891D01*
X045451Y064996D01*
X045766Y064996D01*
X045766Y065221D02*
X045766Y065536D01*
X045661Y065641D01*
X045556Y065536D01*
X045556Y065326D01*
X045451Y065221D01*
X045345Y065326D01*
X045345Y065641D01*
X045345Y065865D02*
X045345Y065970D01*
X045766Y065970D01*
X045766Y065865D02*
X045766Y066075D01*
X045661Y066295D02*
X045766Y066400D01*
X045766Y066610D01*
X045661Y066715D01*
X045451Y066715D01*
X045345Y066610D01*
X045345Y066400D01*
X045451Y066295D01*
X045661Y066295D01*
X045135Y065970D02*
X045030Y065970D01*
X045345Y066939D02*
X045345Y067255D01*
X045451Y067360D01*
X045766Y067360D01*
X045766Y066939D02*
X045345Y066939D01*
X045135Y068228D02*
X045135Y068544D01*
X045240Y068649D01*
X045451Y068649D01*
X045556Y068544D01*
X045556Y068228D01*
X045766Y068228D02*
X045135Y068228D01*
X045135Y068873D02*
X045766Y068873D01*
X045556Y069083D01*
X045766Y069293D01*
X045135Y069293D01*
X045135Y069518D02*
X045135Y069833D01*
X045240Y069938D01*
X045451Y069938D01*
X045556Y069833D01*
X045556Y069518D01*
X045556Y069728D02*
X045766Y069938D01*
X045766Y069518D02*
X045135Y069518D01*
X045345Y070807D02*
X045135Y071017D01*
X045766Y071017D01*
X045766Y070807D02*
X045766Y071227D01*
X045766Y071451D02*
X045345Y071871D01*
X045240Y071871D01*
X045135Y071766D01*
X045135Y071556D01*
X045240Y071451D01*
X045766Y071451D02*
X045766Y071871D01*
X045556Y072096D02*
X045766Y072306D01*
X045556Y072516D01*
X045135Y072516D01*
X045135Y072096D02*
X045556Y072096D01*
X048635Y072096D02*
X048635Y072411D01*
X048740Y072516D01*
X048951Y072516D01*
X049056Y072411D01*
X049056Y072096D01*
X049056Y072306D02*
X049266Y072516D01*
X049266Y072096D02*
X048635Y072096D01*
X048635Y071871D02*
X049266Y071871D01*
X049056Y071661D01*
X049266Y071451D01*
X048635Y071451D01*
X048740Y071227D02*
X048951Y071227D01*
X049056Y071122D01*
X049056Y070807D01*
X049266Y070807D02*
X048635Y070807D01*
X048635Y071122D01*
X048740Y071227D01*
X048951Y069938D02*
X049266Y069938D01*
X048951Y069938D02*
X048845Y069833D01*
X048845Y069518D01*
X049266Y069518D01*
X049056Y069293D02*
X049056Y068873D01*
X049161Y068873D02*
X048951Y068873D01*
X048845Y068978D01*
X048845Y069188D01*
X048951Y069293D01*
X049056Y069293D01*
X049266Y069188D02*
X049266Y068978D01*
X049161Y068873D01*
X049056Y068649D02*
X049056Y068228D01*
X049161Y068228D02*
X048951Y068228D01*
X048845Y068334D01*
X048845Y068544D01*
X048951Y068649D01*
X049056Y068649D01*
X049266Y068544D02*
X049266Y068334D01*
X049161Y068228D01*
X048845Y068007D02*
X048845Y067902D01*
X049056Y067691D01*
X049266Y067691D02*
X048845Y067691D01*
X048845Y067467D02*
X048845Y067152D01*
X048951Y067047D01*
X049161Y067047D01*
X049266Y067152D01*
X049266Y067467D01*
X049161Y066823D02*
X049056Y066718D01*
X049056Y066507D01*
X048951Y066402D01*
X048845Y066507D01*
X048845Y066823D01*
X049161Y066823D02*
X049266Y066718D01*
X049266Y066402D01*
X049266Y066178D02*
X048951Y066178D01*
X048845Y066073D01*
X048845Y065863D01*
X048951Y065758D01*
X048845Y065534D02*
X048845Y065218D01*
X048951Y065113D01*
X049161Y065113D01*
X049266Y065218D01*
X049266Y065534D01*
X049266Y065758D02*
X048635Y065758D01*
X048845Y064889D02*
X049266Y064889D01*
X049266Y064574D01*
X049161Y064469D01*
X048845Y064469D01*
X048951Y064245D02*
X048845Y064139D01*
X048845Y063929D01*
X048951Y063824D01*
X049161Y063824D01*
X049266Y063929D01*
X049266Y064139D01*
X049161Y064245D01*
X048951Y064245D01*
X048635Y063600D02*
X048635Y063180D01*
X048635Y063390D02*
X049266Y063390D01*
X045976Y063287D02*
X045345Y063287D01*
X045345Y063602D01*
X045451Y063707D01*
X045661Y063707D01*
X045766Y063602D01*
X045766Y063287D01*
X045766Y063063D02*
X045345Y062643D01*
X045135Y062418D02*
X045135Y061998D01*
X045766Y061998D01*
X045766Y062418D01*
X045766Y062643D02*
X045345Y063063D01*
X045451Y062208D02*
X045451Y061998D01*
X045661Y063932D02*
X045556Y064037D01*
X045556Y064352D01*
X045451Y064352D02*
X045766Y064352D01*
X045766Y064037D01*
X045661Y063932D01*
X045345Y064037D02*
X045345Y064247D01*
X045451Y064352D01*
X045345Y064576D02*
X045766Y064576D01*
X052135Y065650D02*
X052135Y065966D01*
X052240Y066071D01*
X052345Y066071D01*
X052451Y065966D01*
X052451Y065650D01*
X052766Y065650D02*
X052766Y065966D01*
X052661Y066071D01*
X052556Y066071D01*
X052451Y065966D01*
X052556Y066295D02*
X052345Y066505D01*
X052345Y066610D01*
X052345Y066295D02*
X052766Y066295D01*
X052661Y066832D02*
X052556Y066937D01*
X052556Y067252D01*
X052451Y067252D02*
X052766Y067252D01*
X052766Y066937D01*
X052661Y066832D01*
X052345Y066937D02*
X052345Y067147D01*
X052451Y067252D01*
X052556Y067477D02*
X052345Y067792D01*
X052451Y068014D02*
X052345Y068119D01*
X052345Y068329D01*
X052451Y068434D01*
X052556Y068434D01*
X052556Y068014D01*
X052661Y068014D02*
X052451Y068014D01*
X052661Y068014D02*
X052766Y068119D01*
X052766Y068329D01*
X052766Y067792D02*
X052556Y067477D01*
X052766Y067477D02*
X052135Y067477D01*
X052135Y065650D02*
X052766Y065650D01*
X055530Y066089D02*
X055635Y066089D01*
X055845Y066089D02*
X056266Y066089D01*
X056266Y065984D02*
X056266Y066195D01*
X056266Y066624D02*
X055845Y066834D01*
X055951Y067059D02*
X055845Y067164D01*
X055845Y067374D01*
X055951Y067479D01*
X056056Y067479D01*
X056056Y067059D01*
X056161Y067059D02*
X055951Y067059D01*
X056161Y067059D02*
X056266Y067164D01*
X056266Y067374D01*
X056266Y067703D02*
X055845Y067703D01*
X055845Y067913D02*
X056056Y067703D01*
X055845Y067913D02*
X055845Y068018D01*
X056266Y066624D02*
X055845Y066414D01*
X055845Y066089D02*
X055845Y065984D01*
X055845Y065763D02*
X055845Y065657D01*
X056056Y065447D01*
X056266Y065447D02*
X055845Y065447D01*
X055740Y065223D02*
X055635Y065118D01*
X055635Y064803D01*
X056266Y064803D01*
X056266Y065118D01*
X056161Y065223D01*
X055740Y065223D01*
X055951Y063934D02*
X056266Y063934D01*
X055951Y063934D02*
X055845Y063829D01*
X055845Y063514D01*
X056266Y063514D01*
X055845Y063292D02*
X055845Y063187D01*
X056056Y062977D01*
X056266Y062977D02*
X055845Y062977D01*
X055951Y062752D02*
X055845Y062647D01*
X055845Y062437D01*
X055951Y062332D01*
X056161Y062332D01*
X056266Y062437D01*
X056266Y062647D01*
X056161Y062752D01*
X055951Y062752D01*
X055951Y062108D02*
X055951Y061688D01*
X056266Y061688D02*
X055635Y061688D01*
X055635Y062108D02*
X056266Y062108D01*
X059240Y062652D02*
X059661Y062652D01*
X059766Y062757D01*
X059661Y062977D02*
X059451Y062977D01*
X059345Y063082D01*
X059345Y063292D01*
X059451Y063397D01*
X059556Y063397D01*
X059556Y062977D01*
X059661Y062977D02*
X059766Y063082D01*
X059766Y063292D01*
X059766Y063621D02*
X059345Y063621D01*
X059345Y063831D02*
X059556Y063621D01*
X059345Y063831D02*
X059345Y063936D01*
X059135Y064803D02*
X059135Y065118D01*
X059240Y065223D01*
X059661Y065223D01*
X059766Y065118D01*
X059766Y064803D01*
X059135Y064803D01*
X059345Y065447D02*
X059766Y065447D01*
X059556Y065447D02*
X059345Y065657D01*
X059345Y065762D01*
X059345Y065984D02*
X059345Y066089D01*
X059766Y066089D01*
X059766Y065984D02*
X059766Y066194D01*
X059766Y066624D02*
X059345Y066834D01*
X059451Y067059D02*
X059345Y067164D01*
X059345Y067374D01*
X059451Y067479D01*
X059556Y067479D01*
X059556Y067059D01*
X059661Y067059D02*
X059451Y067059D01*
X059661Y067059D02*
X059766Y067164D01*
X059766Y067374D01*
X059766Y067703D02*
X059345Y067703D01*
X059345Y067913D02*
X059556Y067703D01*
X059345Y067913D02*
X059345Y068018D01*
X059766Y066624D02*
X059345Y066414D01*
X059135Y066089D02*
X059030Y066089D01*
X059345Y062757D02*
X059345Y062547D01*
X059345Y062325D02*
X059345Y062220D01*
X059556Y062010D01*
X059766Y062010D02*
X059345Y062010D01*
X059451Y061786D02*
X059766Y061786D01*
X059766Y061470D01*
X059661Y061365D01*
X059556Y061470D01*
X059556Y061786D01*
X059451Y061786D02*
X059345Y061681D01*
X059345Y061470D01*
X059345Y061146D02*
X059345Y060936D01*
X059240Y061041D02*
X059661Y061041D01*
X059766Y061146D01*
X059661Y060711D02*
X059766Y060606D01*
X059766Y060396D01*
X059661Y060291D01*
X059451Y060396D02*
X059451Y060606D01*
X059556Y060711D01*
X059661Y060711D01*
X059451Y060396D02*
X059345Y060291D01*
X059240Y060291D01*
X059135Y060396D01*
X059135Y060606D01*
X059240Y060711D01*
X068636Y062741D02*
X068636Y063161D01*
X068846Y063371D01*
X069056Y063161D01*
X069056Y062741D01*
X069280Y062951D02*
X069490Y062741D01*
X069701Y062951D01*
X069701Y063371D01*
X069925Y063371D02*
X069925Y062741D01*
X069925Y062951D02*
X070240Y062951D01*
X070345Y063056D01*
X070345Y063266D01*
X070240Y063371D01*
X069925Y063371D01*
X070135Y062951D02*
X070345Y062741D01*
X070569Y062741D02*
X070990Y063161D01*
X070990Y063266D01*
X070885Y063371D01*
X070674Y063371D01*
X070569Y063266D01*
X070569Y062741D02*
X070990Y062741D01*
X069280Y062951D02*
X069280Y063371D01*
X069056Y063056D02*
X068636Y063056D01*
X069520Y067991D02*
X069310Y068201D01*
X069520Y068411D01*
X069941Y068411D01*
X069626Y068411D02*
X069626Y067991D01*
X069520Y067991D02*
X069941Y067991D01*
X069941Y068845D02*
X069310Y068845D01*
X069310Y068635D02*
X069310Y069055D01*
X069310Y069280D02*
X069520Y069490D01*
X069310Y069700D01*
X069941Y069700D01*
X069941Y069924D02*
X069941Y070344D01*
X069836Y070569D02*
X069941Y070674D01*
X069941Y070884D01*
X069836Y070989D01*
X069626Y070989D01*
X069626Y070779D01*
X069836Y070569D02*
X069415Y070569D01*
X069310Y070674D01*
X069310Y070884D01*
X069415Y070989D01*
X069520Y071213D02*
X069310Y071423D01*
X069520Y071634D01*
X069941Y071634D01*
X069941Y071858D02*
X069941Y072278D01*
X069941Y072068D02*
X069310Y072068D01*
X069520Y071858D01*
X069626Y071634D02*
X069626Y071213D01*
X069520Y071213D02*
X069941Y071213D01*
X069310Y070344D02*
X069310Y069924D01*
X069941Y069924D01*
X069626Y069924D02*
X069626Y070134D01*
X069941Y069280D02*
X069310Y069280D01*
X069626Y072502D02*
X069626Y072817D01*
X069731Y072923D01*
X069836Y072923D01*
X069941Y072817D01*
X069941Y072607D01*
X069836Y072502D01*
X069626Y072502D01*
X069415Y072712D01*
X069310Y072923D01*
X069415Y073147D02*
X069520Y073147D01*
X069626Y073252D01*
X069626Y073462D01*
X069731Y073567D01*
X069836Y073567D01*
X069941Y073462D01*
X069941Y073252D01*
X069836Y073147D01*
X069731Y073147D01*
X069626Y073252D01*
X069626Y073462D02*
X069520Y073567D01*
X069415Y073567D01*
X069310Y073462D01*
X069310Y073252D01*
X069415Y073147D01*
X065524Y076041D02*
X065419Y076146D01*
X065419Y076566D01*
X065314Y076461D02*
X065524Y076461D01*
X065090Y076356D02*
X065090Y076251D01*
X064669Y076251D01*
X064669Y076356D02*
X064774Y076461D01*
X064985Y076461D01*
X065090Y076356D01*
X064985Y076041D02*
X064774Y076041D01*
X064669Y076146D01*
X064669Y076356D01*
X064445Y076461D02*
X064130Y076461D01*
X064025Y076356D01*
X064130Y076251D01*
X064340Y076251D01*
X064445Y076146D01*
X064340Y076041D01*
X064025Y076041D01*
X063801Y076251D02*
X063380Y076251D01*
X063380Y076356D02*
X063485Y076461D01*
X063696Y076461D01*
X063801Y076356D01*
X063801Y076251D01*
X063696Y076041D02*
X063485Y076041D01*
X063380Y076146D01*
X063380Y076356D01*
X063156Y076356D02*
X063051Y076251D01*
X062736Y076251D01*
X062946Y076251D02*
X063156Y076041D01*
X063156Y076356D02*
X063156Y076566D01*
X063051Y076671D01*
X062736Y076671D01*
X062736Y076041D01*
X052766Y072516D02*
X052451Y072516D01*
X052345Y072411D01*
X052345Y072201D01*
X052451Y072096D01*
X052345Y071872D02*
X052345Y071556D01*
X052451Y071451D01*
X052661Y071451D01*
X052766Y071556D01*
X052766Y071872D01*
X052766Y072096D02*
X052135Y072096D01*
X052345Y071232D02*
X052345Y071021D01*
X052240Y071127D02*
X052661Y071127D01*
X052766Y071232D01*
X052766Y070802D02*
X052766Y070592D01*
X052766Y070697D02*
X052345Y070697D01*
X052345Y070592D01*
X052345Y070368D02*
X052661Y070368D01*
X052766Y070263D01*
X052661Y070157D01*
X052766Y070052D01*
X052661Y069947D01*
X052345Y069947D01*
X052240Y069723D02*
X052135Y069618D01*
X052135Y069408D01*
X052240Y069303D01*
X052345Y069303D01*
X052451Y069408D01*
X052451Y069618D01*
X052556Y069723D01*
X052661Y069723D01*
X052766Y069618D01*
X052766Y069408D01*
X052661Y069303D01*
X052135Y070697D02*
X052030Y070697D01*
X031661Y071871D02*
X031556Y071871D01*
X031451Y071766D01*
X031451Y071661D01*
X031451Y071766D02*
X031345Y071871D01*
X031240Y071871D01*
X031135Y071766D01*
X031135Y071556D01*
X031240Y071451D01*
X015566Y054804D02*
X015461Y054699D01*
X015040Y054699D01*
X015145Y054594D02*
X015145Y054804D01*
X015145Y054370D02*
X015566Y054370D01*
X015566Y054054D01*
X015461Y053949D01*
X015145Y053949D01*
X015040Y053725D02*
X014935Y053620D01*
X014935Y053410D01*
X015040Y053305D01*
X015461Y053305D01*
X015566Y053410D01*
X015566Y053620D01*
X015461Y053725D01*
X015040Y053725D01*
X015145Y052438D02*
X015145Y052333D01*
X015356Y052123D01*
X015566Y052123D02*
X015145Y052123D01*
X015251Y051899D02*
X015356Y051899D01*
X015356Y051479D01*
X015461Y051479D02*
X015251Y051479D01*
X015145Y051584D01*
X015145Y051794D01*
X015251Y051899D01*
X015566Y051794D02*
X015566Y051584D01*
X015461Y051479D01*
X015461Y051255D02*
X015145Y051255D01*
X015461Y051255D02*
X015566Y051149D01*
X015461Y051044D01*
X015566Y050939D01*
X015461Y050834D01*
X015145Y050834D01*
X015251Y050610D02*
X015145Y050505D01*
X015145Y050295D01*
X015251Y050190D01*
X015461Y050190D01*
X015566Y050295D01*
X015566Y050505D01*
X015461Y050610D01*
X015251Y050610D01*
X015251Y049965D02*
X015356Y049860D01*
X015356Y049545D01*
X015566Y049545D02*
X014935Y049545D01*
X014935Y049860D01*
X015040Y049965D01*
X015251Y049965D01*
X015145Y048676D02*
X015145Y048361D01*
X015251Y048256D01*
X015461Y048256D01*
X015566Y048361D01*
X015566Y048676D01*
X014935Y048676D01*
X015145Y048034D02*
X015145Y047929D01*
X015356Y047719D01*
X015566Y047719D02*
X015145Y047719D01*
X015251Y047495D02*
X015566Y047495D01*
X015566Y047180D01*
X015461Y047074D01*
X015356Y047180D01*
X015356Y047495D01*
X015251Y047495D02*
X015145Y047390D01*
X015145Y047180D01*
X015251Y046850D02*
X015145Y046745D01*
X015145Y046535D01*
X015251Y046430D01*
X015461Y046430D01*
X015566Y046535D01*
X015566Y046745D01*
X015461Y046850D01*
X015251Y046850D01*
X015251Y046206D02*
X015145Y046101D01*
X015145Y045785D01*
X014935Y045785D02*
X015566Y045785D01*
X015566Y046101D01*
X015461Y046206D01*
X015251Y046206D01*
X015145Y045564D02*
X015145Y045458D01*
X015356Y045248D01*
X015566Y045248D02*
X015145Y045248D01*
X015251Y045024D02*
X015356Y045024D01*
X015356Y044604D01*
X015461Y044604D02*
X015251Y044604D01*
X015145Y044709D01*
X015145Y044919D01*
X015251Y045024D01*
X015566Y044919D02*
X015566Y044709D01*
X015461Y044604D01*
X015566Y044380D02*
X015251Y044380D01*
X015145Y044274D01*
X015145Y044064D01*
X015251Y043959D01*
X015145Y043740D02*
X015145Y043530D01*
X015040Y043635D02*
X015461Y043635D01*
X015566Y043740D01*
X015566Y043959D02*
X014935Y043959D01*
X015251Y043305D02*
X015145Y043200D01*
X015145Y042990D01*
X015251Y042885D01*
X015461Y042885D01*
X015566Y042990D01*
X015566Y043200D01*
X015461Y043305D01*
X015251Y043305D01*
X015566Y042661D02*
X014935Y042661D01*
X015145Y042451D01*
X014935Y042241D01*
X015566Y042241D01*
X007864Y037871D02*
X007864Y037241D01*
X007759Y037241D02*
X007969Y037241D01*
X007535Y037451D02*
X007114Y037451D01*
X007114Y037556D02*
X007219Y037661D01*
X007429Y037661D01*
X007535Y037556D01*
X007535Y037451D01*
X007429Y037241D02*
X007219Y037241D01*
X007114Y037346D01*
X007114Y037556D01*
X006890Y037556D02*
X006890Y037241D01*
X006890Y037556D02*
X006785Y037661D01*
X006470Y037661D01*
X006470Y037241D01*
X006246Y037241D02*
X005930Y037241D01*
X005825Y037346D01*
X005930Y037451D01*
X006246Y037451D01*
X006246Y037556D02*
X006246Y037241D01*
X006246Y037556D02*
X006140Y037661D01*
X005930Y037661D01*
X005601Y037766D02*
X005601Y037556D01*
X005496Y037451D01*
X005181Y037451D01*
X005181Y037241D02*
X005181Y037871D01*
X005496Y037871D01*
X005601Y037766D01*
X005174Y036976D02*
X005174Y036871D01*
X005174Y036661D02*
X005174Y036241D01*
X005069Y036241D02*
X005280Y036241D01*
X005499Y036346D02*
X005604Y036241D01*
X005814Y036241D01*
X005919Y036346D01*
X005919Y036556D01*
X005814Y036661D01*
X005604Y036661D01*
X005499Y036556D01*
X005499Y036346D01*
X005174Y036661D02*
X005069Y036661D01*
X004845Y036661D02*
X004530Y036661D01*
X004425Y036556D01*
X004425Y036346D01*
X004530Y036241D01*
X004845Y036241D01*
X004845Y036871D01*
X004317Y037241D02*
X004212Y037346D01*
X004212Y037766D01*
X004317Y037661D02*
X004106Y037661D01*
X003882Y037556D02*
X003777Y037661D01*
X003462Y037661D01*
X003462Y037241D01*
X003238Y037346D02*
X003238Y037556D01*
X003133Y037661D01*
X002922Y037661D01*
X002817Y037556D01*
X002817Y037346D01*
X002922Y037241D01*
X003133Y037241D01*
X003238Y037346D01*
X003346Y036871D02*
X003556Y036661D01*
X003556Y036241D01*
X003780Y036346D02*
X003885Y036241D01*
X004201Y036241D01*
X004201Y036661D01*
X003780Y036661D02*
X003780Y036346D01*
X003556Y036556D02*
X003136Y036556D01*
X003136Y036661D02*
X003346Y036871D01*
X003136Y036661D02*
X003136Y036241D01*
X003882Y037241D02*
X003882Y037556D01*
X002596Y037661D02*
X002490Y037661D01*
X002280Y037451D01*
X002280Y037241D02*
X002280Y037661D01*
X002056Y037871D02*
X001636Y037871D01*
X001636Y037241D01*
X001636Y037556D02*
X001846Y037556D01*
X007759Y037871D02*
X007864Y037871D01*
X068136Y051241D02*
X068136Y051661D01*
X068346Y051661D02*
X068451Y051661D01*
X068346Y051661D02*
X068136Y051451D01*
X068673Y051556D02*
X068778Y051661D01*
X069093Y051661D01*
X068988Y051451D02*
X068778Y051451D01*
X068673Y051556D01*
X068673Y051241D02*
X068988Y051241D01*
X069093Y051346D01*
X068988Y051451D01*
X069317Y051556D02*
X069317Y051346D01*
X069422Y051241D01*
X069633Y051241D01*
X069738Y051346D01*
X069738Y051556D01*
X069633Y051661D01*
X069422Y051661D01*
X069317Y051556D01*
X069962Y051661D02*
X069962Y051241D01*
X070172Y051241D02*
X070172Y051556D01*
X070277Y051661D01*
X070382Y051556D01*
X070382Y051241D01*
X070606Y051346D02*
X070606Y051556D01*
X070712Y051661D01*
X070922Y051661D01*
X071027Y051556D01*
X071027Y051451D01*
X070606Y051451D01*
X070606Y051346D02*
X070712Y051241D01*
X070922Y051241D01*
X071251Y051241D02*
X071251Y051661D01*
X071461Y051661D02*
X071566Y051661D01*
X071461Y051661D02*
X071251Y051451D01*
X071788Y051556D02*
X071893Y051661D01*
X072208Y051661D01*
X072103Y051451D02*
X072208Y051346D01*
X072103Y051241D01*
X071788Y051241D01*
X071893Y051451D02*
X071788Y051556D01*
X071893Y051451D02*
X072103Y051451D01*
X072433Y051346D02*
X072433Y051766D01*
X072538Y051871D01*
X072748Y051871D01*
X072853Y051766D01*
X072853Y051556D01*
X072748Y051451D01*
X072748Y051661D01*
X072538Y051661D01*
X072538Y051451D01*
X072748Y051451D01*
X072853Y051346D02*
X072748Y051241D01*
X072538Y051241D01*
X072433Y051346D01*
X073077Y051346D02*
X073182Y051241D01*
X073497Y051241D01*
X073722Y051346D02*
X073827Y051451D01*
X074142Y051451D01*
X074142Y051556D02*
X074142Y051241D01*
X073827Y051241D01*
X073722Y051346D01*
X073827Y051661D02*
X074037Y051661D01*
X074142Y051556D01*
X074366Y051871D02*
X074471Y051871D01*
X074471Y051241D01*
X074366Y051241D02*
X074576Y051241D01*
X074796Y051241D02*
X075111Y051241D01*
X075216Y051346D01*
X075216Y051556D01*
X075111Y051661D01*
X074796Y051661D01*
X074796Y051030D01*
X075440Y051346D02*
X075545Y051241D01*
X075756Y051241D01*
X075861Y051346D01*
X075861Y051556D01*
X075756Y051661D01*
X075545Y051661D01*
X075440Y051556D01*
X075440Y051346D01*
X076085Y051241D02*
X076295Y051241D01*
X076190Y051241D02*
X076190Y051871D01*
X076085Y051871D01*
X076079Y052241D02*
X076394Y052241D01*
X076499Y052346D01*
X076394Y052451D01*
X076184Y052451D01*
X076079Y052556D01*
X076184Y052661D01*
X076499Y052661D01*
X076726Y053241D02*
X076726Y053661D01*
X076936Y053871D01*
X077146Y053661D01*
X077146Y053241D01*
X077146Y053556D02*
X076726Y053556D01*
X075857Y053661D02*
X075647Y053241D01*
X075437Y053661D01*
X075212Y053556D02*
X075212Y053451D01*
X074792Y053451D01*
X074792Y053556D02*
X074897Y053661D01*
X075107Y053661D01*
X075212Y053556D01*
X075107Y053241D02*
X074897Y053241D01*
X074792Y053346D01*
X074792Y053556D01*
X074568Y053556D02*
X074463Y053451D01*
X074147Y053451D01*
X074147Y053241D02*
X074147Y053871D01*
X074463Y053871D01*
X074568Y053766D01*
X074568Y053556D01*
X074358Y053451D02*
X074568Y053241D01*
X074568Y052661D02*
X074463Y052556D01*
X074463Y052241D01*
X074253Y052241D02*
X074253Y052661D01*
X074358Y052661D01*
X074463Y052556D01*
X074568Y052661D02*
X074673Y052556D01*
X074673Y052241D01*
X074897Y052346D02*
X075003Y052241D01*
X075213Y052241D01*
X075318Y052451D02*
X074897Y052451D01*
X074897Y052556D02*
X075003Y052661D01*
X075213Y052661D01*
X075318Y052556D01*
X075318Y052451D01*
X075542Y052451D02*
X075752Y052661D01*
X075857Y052661D01*
X075542Y052661D02*
X075542Y052241D01*
X074897Y052346D02*
X074897Y052556D01*
X074029Y052556D02*
X073924Y052661D01*
X073714Y052661D01*
X073608Y052556D01*
X073608Y052346D01*
X073714Y052241D01*
X073924Y052241D01*
X074029Y052346D01*
X074029Y052556D01*
X073384Y052451D02*
X073384Y052346D01*
X073279Y052241D01*
X073069Y052241D01*
X072964Y052346D01*
X073069Y052556D02*
X073279Y052556D01*
X073384Y052451D01*
X073384Y052766D02*
X073279Y052871D01*
X073069Y052871D01*
X072964Y052766D01*
X072964Y052661D01*
X073069Y052556D01*
X073174Y053241D02*
X072964Y053241D01*
X072858Y053346D01*
X073279Y053766D01*
X073279Y053346D01*
X073174Y053241D01*
X072858Y053346D02*
X072858Y053766D01*
X072964Y053871D01*
X073174Y053871D01*
X073279Y053766D01*
X072634Y053241D02*
X072214Y053241D01*
X072424Y053241D02*
X072424Y053871D01*
X072214Y053661D01*
X071990Y053871D02*
X071569Y053241D01*
X071345Y053241D02*
X070925Y053241D01*
X071345Y053661D01*
X071345Y053766D01*
X071240Y053871D01*
X071030Y053871D01*
X070925Y053766D01*
X070701Y053871D02*
X070280Y053241D01*
X070056Y053241D02*
X069636Y053241D01*
X070056Y053661D01*
X070056Y053766D01*
X069951Y053871D01*
X069741Y053871D01*
X069636Y053766D01*
X070386Y052871D02*
X070701Y052871D01*
X070806Y052766D01*
X070806Y052661D01*
X070701Y052556D01*
X070386Y052556D01*
X070701Y052556D02*
X070806Y052451D01*
X070806Y052346D01*
X070701Y052241D01*
X070386Y052241D01*
X070386Y052871D01*
X071030Y052556D02*
X071030Y052346D01*
X071135Y052241D01*
X071346Y052241D01*
X071451Y052346D01*
X071451Y052556D01*
X071346Y052661D01*
X071135Y052661D01*
X071030Y052556D01*
X071675Y052661D02*
X071990Y052661D01*
X072095Y052556D01*
X072095Y052346D01*
X071990Y052241D01*
X071675Y052241D01*
X071675Y052871D01*
X073077Y051556D02*
X073077Y051346D01*
X073077Y051556D02*
X073182Y051661D01*
X073497Y051661D01*
X076515Y051661D02*
X076515Y051346D01*
X076620Y051241D01*
X076935Y051241D01*
X076935Y051135D02*
X076830Y051030D01*
X076725Y051030D01*
X076935Y051135D02*
X076935Y051661D01*
X077159Y051346D02*
X077264Y051346D01*
X077264Y051241D01*
X077159Y051241D01*
X077159Y051346D01*
X077481Y051346D02*
X077481Y051556D01*
X077586Y051661D01*
X077797Y051661D01*
X077902Y051556D01*
X077902Y051451D01*
X077481Y051451D01*
X077481Y051346D02*
X077586Y051241D01*
X077797Y051241D01*
X078126Y051346D02*
X078126Y051556D01*
X078231Y051661D01*
X078546Y051661D01*
X078546Y051871D02*
X078546Y051241D01*
X078231Y051241D01*
X078126Y051346D01*
X078770Y051346D02*
X078770Y051661D01*
X078770Y051346D02*
X078876Y051241D01*
X079191Y051241D01*
X079191Y051661D01*
X070172Y051556D02*
X070067Y051661D01*
X069962Y051661D01*
X084536Y058546D02*
X084641Y058441D01*
X084851Y058441D01*
X084956Y058546D01*
X084956Y059071D01*
X085180Y058861D02*
X085390Y059071D01*
X085601Y058861D01*
X085601Y058441D01*
X085825Y058441D02*
X085825Y059071D01*
X086140Y059071D01*
X086245Y058966D01*
X086245Y058756D01*
X086140Y058651D01*
X085825Y058651D01*
X086035Y058651D02*
X086245Y058441D01*
X086680Y058441D02*
X086680Y059071D01*
X086890Y059071D02*
X086469Y059071D01*
X087114Y058861D02*
X087324Y059071D01*
X087324Y058441D01*
X087114Y058441D02*
X087534Y058441D01*
X085601Y058756D02*
X085180Y058756D01*
X085180Y058861D02*
X085180Y058441D01*
X084536Y058546D02*
X084536Y059071D01*
X095636Y060341D02*
X095636Y060971D01*
X095951Y060971D01*
X096056Y060866D01*
X096056Y060656D01*
X095951Y060551D01*
X095636Y060551D01*
X095846Y060551D02*
X096056Y060341D01*
X096280Y060446D02*
X096280Y060656D01*
X096385Y060761D01*
X096596Y060761D01*
X096701Y060656D01*
X096701Y060551D01*
X096280Y060551D01*
X096280Y060446D02*
X096385Y060341D01*
X096596Y060341D01*
X096925Y060341D02*
X097240Y060341D01*
X097345Y060446D01*
X097240Y060551D01*
X097030Y060551D01*
X096925Y060656D01*
X097030Y060761D01*
X097345Y060761D01*
X097569Y060656D02*
X097674Y060761D01*
X097885Y060761D01*
X097990Y060656D01*
X097990Y060551D01*
X097569Y060551D01*
X097569Y060446D02*
X097569Y060656D01*
X097569Y060446D02*
X097674Y060341D01*
X097885Y060341D01*
X098319Y060446D02*
X098424Y060341D01*
X098319Y060446D02*
X098319Y060866D01*
X098214Y060761D02*
X098424Y060761D01*
X098280Y055621D02*
X098280Y054991D01*
X098490Y054991D02*
X098069Y054991D01*
X097845Y054991D02*
X097635Y055201D01*
X097740Y055201D02*
X097425Y055201D01*
X097425Y054991D02*
X097425Y055621D01*
X097740Y055621D01*
X097845Y055516D01*
X097845Y055306D01*
X097740Y055201D01*
X098069Y055411D02*
X098280Y055621D01*
X097201Y055621D02*
X097201Y055201D01*
X096990Y054991D01*
X096780Y055201D01*
X096780Y055621D01*
X096556Y055411D02*
X096346Y055621D01*
X096136Y055411D01*
X096136Y054991D01*
X096136Y055306D02*
X096556Y055306D01*
X096556Y055411D02*
X096556Y054991D01*
X096915Y050317D02*
X097020Y050317D01*
X097126Y050212D01*
X097126Y050002D01*
X097020Y049897D01*
X096915Y049897D01*
X096810Y050002D01*
X096810Y050212D01*
X096915Y050317D01*
X097126Y050212D02*
X097231Y050317D01*
X097336Y050317D01*
X097441Y050212D01*
X097441Y050002D01*
X097336Y049897D01*
X097231Y049897D01*
X097126Y050002D01*
X097231Y049673D02*
X097126Y049567D01*
X097126Y049252D01*
X097336Y049252D01*
X097441Y049357D01*
X097441Y049567D01*
X097336Y049673D01*
X097231Y049673D01*
X096915Y049462D02*
X097126Y049252D01*
X096915Y049462D02*
X096810Y049673D01*
X096810Y048818D02*
X097441Y048818D01*
X097441Y048608D02*
X097441Y049028D01*
X097020Y048608D02*
X096810Y048818D01*
X097020Y048384D02*
X097441Y048384D01*
X097126Y048384D02*
X097126Y047963D01*
X097020Y047963D02*
X096810Y048173D01*
X097020Y048384D01*
X097020Y047963D02*
X097441Y047963D01*
X097336Y047739D02*
X097441Y047634D01*
X097441Y047424D01*
X097336Y047319D01*
X096915Y047319D01*
X096810Y047424D01*
X096810Y047634D01*
X096915Y047739D01*
X097126Y047739D02*
X097126Y047529D01*
X097126Y047739D02*
X097336Y047739D01*
X097441Y047094D02*
X097441Y046674D01*
X096810Y046674D01*
X096810Y047094D01*
X097126Y046884D02*
X097126Y046674D01*
X097441Y046450D02*
X096810Y046450D01*
X097020Y046240D01*
X096810Y046030D01*
X097441Y046030D01*
X097441Y045595D02*
X096810Y045595D01*
X096810Y045385D02*
X096810Y045805D01*
X097020Y045161D02*
X097441Y045161D01*
X097126Y045161D02*
X097126Y044741D01*
X097020Y044741D02*
X096810Y044951D01*
X097020Y045161D01*
X097020Y044741D02*
X097441Y044741D01*
X109486Y041966D02*
X109486Y041546D01*
X109591Y041441D01*
X109801Y041441D01*
X109906Y041546D01*
X110130Y041546D02*
X110235Y041441D01*
X110446Y041441D01*
X110551Y041546D01*
X110551Y041966D01*
X110446Y042071D01*
X110235Y042071D01*
X110130Y041966D01*
X110130Y041546D01*
X109906Y041966D02*
X109801Y042071D01*
X109591Y042071D01*
X109486Y041966D01*
X110775Y042071D02*
X111195Y041441D01*
X111195Y042071D01*
X111419Y041861D02*
X111630Y042071D01*
X111630Y041441D01*
X111840Y041441D02*
X111419Y041441D01*
X110775Y041441D02*
X110775Y042071D01*
X112064Y041861D02*
X112274Y042071D01*
X112274Y041441D01*
X112064Y041441D02*
X112484Y041441D01*
X111775Y053491D02*
X111355Y053491D01*
X111565Y053491D02*
X111565Y054121D01*
X111355Y053911D01*
X111130Y054121D02*
X111130Y053596D01*
X111025Y053491D01*
X110815Y053491D01*
X110710Y053596D01*
X110710Y054121D01*
X110486Y054121D02*
X110486Y053491D01*
X110065Y053491D02*
X110065Y054121D01*
X110276Y053911D01*
X110486Y054121D01*
X109846Y054121D02*
X109636Y054121D01*
X109741Y054121D02*
X109741Y053491D01*
X109636Y053491D02*
X109846Y053491D01*
X085695Y070241D02*
X085590Y070346D01*
X085590Y070766D01*
X085485Y070661D02*
X085695Y070661D01*
X085261Y070661D02*
X084946Y070661D01*
X084841Y070556D01*
X084841Y070346D01*
X084946Y070241D01*
X085261Y070241D01*
X084617Y070451D02*
X084196Y070451D01*
X084196Y070556D02*
X084301Y070661D01*
X084511Y070661D01*
X084617Y070556D01*
X084617Y070451D01*
X084511Y070241D02*
X084301Y070241D01*
X084196Y070346D01*
X084196Y070556D01*
X083972Y070556D02*
X083972Y070241D01*
X083972Y070556D02*
X083867Y070661D01*
X083552Y070661D01*
X083552Y070241D01*
X083328Y070241D02*
X083328Y070556D01*
X083222Y070661D01*
X082907Y070661D01*
X082907Y070241D01*
X082683Y070346D02*
X082683Y070556D01*
X082578Y070661D01*
X082368Y070661D01*
X082263Y070556D01*
X082263Y070346D01*
X082368Y070241D01*
X082578Y070241D01*
X082683Y070346D01*
X082039Y070241D02*
X081723Y070241D01*
X081618Y070346D01*
X081618Y070556D01*
X081723Y070661D01*
X082039Y070661D01*
X081394Y070661D02*
X081079Y070661D01*
X080974Y070556D01*
X081079Y070451D01*
X081289Y070451D01*
X081394Y070346D01*
X081289Y070241D01*
X080974Y070241D01*
X080754Y070241D02*
X080544Y070241D01*
X080649Y070241D02*
X080649Y070661D01*
X080544Y070661D01*
X080649Y070871D02*
X080649Y070976D01*
X080320Y070766D02*
X080215Y070871D01*
X079899Y070871D01*
X079899Y070241D01*
X080215Y070241D01*
X080320Y070346D01*
X080320Y070766D01*
X080857Y069871D02*
X080857Y069241D01*
X080542Y069241D01*
X080436Y069346D01*
X080436Y069556D01*
X080542Y069661D01*
X080857Y069661D01*
X080212Y069556D02*
X080212Y069241D01*
X080212Y069556D02*
X080107Y069661D01*
X079792Y069661D01*
X079792Y069241D01*
X079568Y069241D02*
X079253Y069241D01*
X079147Y069346D01*
X079253Y069451D01*
X079568Y069451D01*
X079568Y069556D02*
X079568Y069241D01*
X079568Y069556D02*
X079463Y069661D01*
X079253Y069661D01*
X079038Y070241D02*
X078933Y070241D01*
X078933Y070346D01*
X079038Y070346D01*
X079038Y070241D01*
X079038Y070556D02*
X078933Y070556D01*
X078933Y070661D01*
X079038Y070661D01*
X079038Y070556D01*
X078708Y070556D02*
X078498Y070556D01*
X078708Y070556D02*
X078708Y070346D01*
X078603Y070241D01*
X078393Y070241D01*
X078288Y070346D01*
X078288Y070766D01*
X078393Y070871D01*
X078603Y070871D01*
X078708Y070766D01*
X078064Y070871D02*
X078064Y070241D01*
X077644Y070871D01*
X077644Y070241D01*
X077424Y070241D02*
X077214Y070241D01*
X077319Y070241D02*
X077319Y070871D01*
X077214Y070871D02*
X077424Y070871D01*
X076990Y070871D02*
X076990Y070241D01*
X076569Y070871D01*
X076569Y070241D01*
X076345Y070241D02*
X076135Y070451D01*
X076240Y070451D02*
X075925Y070451D01*
X075925Y070241D02*
X075925Y070871D01*
X076240Y070871D01*
X076345Y070766D01*
X076345Y070556D01*
X076240Y070451D01*
X075701Y070556D02*
X075280Y070556D01*
X075280Y070661D02*
X075490Y070871D01*
X075701Y070661D01*
X075701Y070241D01*
X075280Y070241D02*
X075280Y070661D01*
X075056Y070871D02*
X075056Y070241D01*
X074846Y070451D01*
X074636Y070241D01*
X074636Y070871D01*
X074741Y069661D02*
X075056Y069661D01*
X075280Y069661D02*
X075490Y069661D01*
X075385Y069766D02*
X075385Y069346D01*
X075490Y069241D01*
X075710Y069346D02*
X075815Y069451D01*
X076130Y069451D01*
X076130Y069556D02*
X076130Y069241D01*
X075815Y069241D01*
X075710Y069346D01*
X075815Y069661D02*
X076025Y069661D01*
X076130Y069556D01*
X076355Y069661D02*
X076355Y069241D01*
X076355Y069451D02*
X076565Y069661D01*
X076670Y069661D01*
X076892Y069661D02*
X077102Y069661D01*
X076997Y069766D02*
X076997Y069346D01*
X077102Y069241D01*
X077321Y069346D02*
X077321Y069556D01*
X077426Y069661D01*
X077637Y069661D01*
X077742Y069556D01*
X077742Y069451D01*
X077321Y069451D01*
X077321Y069346D02*
X077426Y069241D01*
X077637Y069241D01*
X077966Y069241D02*
X077966Y069661D01*
X077966Y069451D02*
X078176Y069661D01*
X078281Y069661D01*
X077851Y068661D02*
X077956Y068556D01*
X077956Y068451D01*
X077536Y068451D01*
X077536Y068556D02*
X077641Y068661D01*
X077851Y068661D01*
X077536Y068556D02*
X077536Y068346D01*
X077641Y068241D01*
X077851Y068241D01*
X077314Y068661D02*
X077209Y068661D01*
X076999Y068451D01*
X076999Y068241D02*
X076999Y068661D01*
X076775Y068556D02*
X076670Y068661D01*
X076460Y068661D01*
X076355Y068556D01*
X076355Y068346D01*
X076460Y068241D01*
X076670Y068241D01*
X076775Y068346D01*
X076775Y068556D01*
X076135Y068556D02*
X075925Y068556D01*
X075701Y068556D02*
X075596Y068661D01*
X075385Y068661D01*
X075280Y068556D01*
X075280Y068346D01*
X075385Y068241D01*
X075596Y068241D01*
X075701Y068451D02*
X075280Y068451D01*
X075056Y068556D02*
X074951Y068661D01*
X074636Y068661D01*
X074636Y068871D02*
X074636Y068241D01*
X074951Y068241D01*
X075056Y068346D01*
X075056Y068556D01*
X075701Y068556D02*
X075701Y068451D01*
X076030Y068241D02*
X076030Y068766D01*
X076135Y068871D01*
X075056Y069346D02*
X074951Y069451D01*
X074741Y069451D01*
X074636Y069556D01*
X074741Y069661D01*
X074636Y069241D02*
X074951Y069241D01*
X075056Y069346D01*
X078825Y068556D02*
X079035Y068556D01*
X078930Y068766D02*
X078930Y068241D01*
X079255Y068241D02*
X079465Y068241D01*
X079360Y068241D02*
X079360Y068871D01*
X079255Y068871D01*
X079035Y068871D02*
X078930Y068766D01*
X079685Y068346D02*
X079790Y068451D01*
X080105Y068451D01*
X080105Y068556D02*
X080105Y068241D01*
X079790Y068241D01*
X079685Y068346D01*
X079790Y068661D02*
X080000Y068661D01*
X080105Y068556D01*
X080329Y068556D02*
X080434Y068661D01*
X080749Y068661D01*
X080644Y068451D02*
X080434Y068451D01*
X080329Y068556D01*
X080329Y068241D02*
X080644Y068241D01*
X080749Y068346D01*
X080644Y068451D01*
X080974Y068556D02*
X081079Y068661D01*
X081289Y068661D01*
X081394Y068556D01*
X081394Y068241D01*
X081618Y068241D02*
X081828Y068241D01*
X081723Y068241D02*
X081723Y068661D01*
X081618Y068661D01*
X081723Y068871D02*
X081723Y068976D01*
X081726Y069241D02*
X081726Y069871D01*
X081831Y069661D02*
X081726Y069556D01*
X081831Y069661D02*
X082041Y069661D01*
X082146Y069556D01*
X082146Y069241D01*
X082370Y069346D02*
X082475Y069241D01*
X082685Y069241D01*
X082790Y069346D01*
X082790Y069556D01*
X082685Y069661D01*
X082475Y069661D01*
X082370Y069556D01*
X082370Y069346D01*
X083015Y069451D02*
X083225Y069661D01*
X083330Y069661D01*
X083552Y069661D02*
X083867Y069661D01*
X083972Y069556D01*
X083972Y069241D01*
X083552Y069241D02*
X083552Y069661D01*
X083015Y069661D02*
X083015Y069241D01*
X083337Y068976D02*
X083337Y068556D01*
X083337Y068346D02*
X083337Y068241D01*
X083113Y068241D02*
X082797Y068241D01*
X082692Y068346D01*
X082692Y068556D01*
X082797Y068661D01*
X083113Y068661D01*
X083113Y068135D01*
X083008Y068030D01*
X082903Y068030D01*
X082468Y068241D02*
X082468Y068556D01*
X082363Y068661D01*
X082048Y068661D01*
X082048Y068241D01*
X080974Y068241D02*
X080974Y068871D01*
X089886Y074096D02*
X089886Y074516D01*
X089991Y074621D01*
X090201Y074621D01*
X090306Y074516D01*
X090306Y074306D02*
X090096Y074306D01*
X090306Y074306D02*
X090306Y074096D01*
X090201Y073991D01*
X089991Y073991D01*
X089886Y074096D01*
X090530Y074201D02*
X090846Y074201D01*
X090951Y074306D01*
X090951Y074516D01*
X090846Y074621D01*
X090530Y074621D01*
X090530Y073991D01*
X091175Y074096D02*
X091280Y073991D01*
X091490Y073991D01*
X091595Y074096D01*
X091595Y074201D01*
X091490Y074306D01*
X091280Y074306D01*
X091175Y074411D01*
X091175Y074516D01*
X091280Y074621D01*
X091490Y074621D01*
X091595Y074516D01*
X091819Y074411D02*
X092030Y074621D01*
X092030Y073991D01*
X092240Y073991D02*
X091819Y073991D01*
X085484Y075441D02*
X085064Y075441D01*
X085484Y075861D01*
X085484Y075966D01*
X085379Y076071D01*
X085169Y076071D01*
X085064Y075966D01*
X084630Y076071D02*
X084630Y075441D01*
X084840Y075441D02*
X084419Y075441D01*
X084195Y075441D02*
X084195Y076071D01*
X084419Y075861D02*
X084630Y076071D01*
X084195Y075441D02*
X083775Y076071D01*
X083775Y075441D01*
X083551Y075546D02*
X083551Y075966D01*
X083446Y076071D01*
X083235Y076071D01*
X083130Y075966D01*
X083130Y075546D01*
X083235Y075441D01*
X083446Y075441D01*
X083551Y075546D01*
X082906Y075546D02*
X082801Y075441D01*
X082591Y075441D01*
X082486Y075546D01*
X082486Y075966D01*
X082591Y076071D01*
X082801Y076071D01*
X082906Y075966D01*
X108636Y073921D02*
X109056Y073291D01*
X109280Y073291D02*
X109596Y073291D01*
X109701Y073396D01*
X109701Y073501D01*
X109596Y073606D01*
X109280Y073606D01*
X109280Y073921D02*
X109596Y073921D01*
X109701Y073816D01*
X109701Y073711D01*
X109596Y073606D01*
X109925Y073606D02*
X110135Y073606D01*
X109925Y073921D02*
X109925Y073291D01*
X110345Y073291D01*
X110569Y073291D02*
X110990Y073291D01*
X111214Y073291D02*
X111634Y073291D01*
X111424Y073291D02*
X111424Y073921D01*
X111214Y073711D01*
X110990Y073921D02*
X110569Y073921D01*
X110569Y073291D01*
X110569Y073606D02*
X110780Y073606D01*
X110345Y073921D02*
X109925Y073921D01*
X109280Y073921D02*
X109280Y073291D01*
X108636Y073291D02*
X109056Y073921D01*
D13*
X064103Y052557D02*
X064103Y052197D01*
X063383Y051476D01*
X063383Y050396D01*
X061765Y050396D02*
X060323Y050396D01*
X060323Y052557D01*
X059426Y052197D02*
X059066Y052557D01*
X058345Y052557D01*
X057985Y052197D01*
X057985Y050756D01*
X058345Y050396D01*
X059066Y050396D01*
X059426Y050756D01*
X059426Y052197D01*
X057087Y052197D02*
X057087Y051476D01*
X056727Y051116D01*
X055646Y051116D01*
X055646Y050396D02*
X055646Y052557D01*
X056727Y052557D01*
X057087Y052197D01*
X052410Y050396D02*
X050968Y050396D01*
X050968Y052557D01*
X050071Y051837D02*
X050071Y050396D01*
X048630Y050396D02*
X048630Y051837D01*
X049350Y052557D01*
X050071Y051837D01*
X050071Y051476D02*
X048630Y051476D01*
X047732Y050756D02*
X047372Y050396D01*
X046651Y050396D01*
X046291Y050756D01*
X046291Y052197D01*
X046651Y052557D01*
X047372Y052557D01*
X047732Y052197D01*
X062662Y052197D02*
X063383Y051476D01*
X062662Y052197D02*
X062662Y052557D01*
D14*
X062990Y049622D02*
X062990Y048734D01*
X063433Y048291D01*
X063877Y048734D01*
X063877Y049622D01*
X064371Y048956D02*
X064593Y049178D01*
X065036Y049178D01*
X065258Y048956D01*
X065258Y048734D01*
X064371Y048734D01*
X064371Y048512D02*
X064371Y048956D01*
X064371Y048512D02*
X064593Y048291D01*
X065036Y048291D01*
X065752Y048291D02*
X065752Y049622D01*
X065974Y049178D02*
X066417Y049178D01*
X066639Y048956D01*
X066639Y048291D01*
X067133Y048291D02*
X067577Y048291D01*
X067355Y048291D02*
X067355Y049178D01*
X067133Y049178D01*
X067355Y049622D02*
X067355Y049844D01*
X068054Y048956D02*
X068276Y049178D01*
X068941Y049178D01*
X069435Y049622D02*
X069657Y049622D01*
X069657Y048291D01*
X069435Y048291D02*
X069879Y048291D01*
X070356Y048512D02*
X070356Y048956D01*
X070578Y049178D01*
X071021Y049178D01*
X071243Y048956D01*
X071243Y048734D01*
X070356Y048734D01*
X070356Y048512D02*
X070578Y048291D01*
X071021Y048291D01*
X073118Y049622D02*
X074005Y049622D01*
X073562Y049622D02*
X073562Y048291D01*
X074499Y048512D02*
X074499Y048956D01*
X074721Y049178D01*
X075165Y049178D01*
X075387Y048956D01*
X075387Y048734D01*
X074499Y048734D01*
X074499Y048512D02*
X074721Y048291D01*
X075165Y048291D01*
X075880Y048512D02*
X076102Y048734D01*
X076768Y048734D01*
X076768Y048956D02*
X076768Y048291D01*
X076102Y048291D01*
X075880Y048512D01*
X076102Y049178D02*
X076546Y049178D01*
X076768Y048956D01*
X077261Y049178D02*
X077483Y049178D01*
X077705Y048956D01*
X077927Y049178D01*
X078149Y048956D01*
X078149Y048291D01*
X077705Y048291D02*
X077705Y048956D01*
X077261Y049178D02*
X077261Y048291D01*
X068941Y048291D02*
X068276Y048291D01*
X068054Y048512D01*
X068054Y048956D01*
X065974Y049178D02*
X065752Y048956D01*
X061115Y048956D02*
X061115Y048734D01*
X060227Y048734D01*
X060227Y048512D02*
X060227Y048956D01*
X060449Y049178D01*
X060893Y049178D01*
X061115Y048956D01*
X060893Y048291D02*
X060449Y048291D01*
X060227Y048512D01*
X059734Y048291D02*
X059068Y048291D01*
X058846Y048512D01*
X058846Y048956D01*
X059068Y049178D01*
X059734Y049178D01*
X059734Y048069D01*
X059512Y047847D01*
X059290Y047847D01*
X058352Y048291D02*
X057687Y048291D01*
X057465Y048512D01*
X057687Y048734D01*
X058352Y048734D01*
X058352Y048956D02*
X058352Y048291D01*
X058352Y048956D02*
X058131Y049178D01*
X057687Y049178D01*
X056971Y048956D02*
X056749Y049178D01*
X056306Y049178D01*
X056084Y048956D01*
X056084Y048512D01*
X056306Y048291D01*
X056749Y048291D01*
X056971Y048734D02*
X056084Y048734D01*
X055607Y048291D02*
X055163Y048291D01*
X055385Y048291D02*
X055385Y049622D01*
X055163Y049622D01*
X054464Y049622D02*
X054464Y049844D01*
X054464Y049178D02*
X054464Y048291D01*
X054242Y048291D02*
X054686Y048291D01*
X054464Y049178D02*
X054242Y049178D01*
X053749Y048956D02*
X053749Y048291D01*
X053305Y048291D02*
X053305Y048956D01*
X053527Y049178D01*
X053749Y048956D01*
X053305Y048956D02*
X053083Y049178D01*
X052861Y049178D01*
X052861Y048291D01*
X052376Y049178D02*
X052154Y049178D01*
X051710Y048734D01*
X051710Y048291D02*
X051710Y049178D01*
X051217Y048956D02*
X051217Y048734D01*
X050329Y048734D01*
X050329Y048512D02*
X050329Y048956D01*
X050551Y049178D01*
X050995Y049178D01*
X051217Y048956D01*
X050995Y048291D02*
X050551Y048291D01*
X050329Y048512D01*
X049835Y048512D02*
X049614Y048291D01*
X048948Y048291D01*
X048948Y047847D02*
X048948Y049178D01*
X049614Y049178D01*
X049835Y048956D01*
X049835Y048512D01*
X048454Y048291D02*
X048454Y049178D01*
X047567Y049178D02*
X047567Y048512D01*
X047789Y048291D01*
X048454Y048291D01*
X047073Y048512D02*
X046851Y048291D01*
X046408Y048291D01*
X046186Y048512D01*
X046408Y048956D02*
X046851Y048956D01*
X047073Y048734D01*
X047073Y048512D01*
X046408Y048956D02*
X046186Y049178D01*
X046186Y049400D01*
X046408Y049622D01*
X046851Y049622D01*
X047073Y049400D01*
X056971Y048956D02*
X056971Y048734D01*
D15*
X056592Y047057D02*
X057443Y047057D01*
X057727Y046773D01*
X057727Y046206D01*
X057443Y045923D01*
X056592Y045923D01*
X057159Y045923D02*
X057727Y045356D01*
X058434Y045356D02*
X059285Y045356D01*
X059568Y045639D01*
X059568Y045923D01*
X059285Y046206D01*
X058434Y046206D01*
X058434Y045356D02*
X058434Y047057D01*
X059285Y047057D01*
X059568Y046773D01*
X059568Y046490D01*
X059285Y046206D01*
X060275Y046206D02*
X061410Y046206D01*
X061410Y046490D02*
X061410Y045356D01*
X062117Y045356D02*
X062117Y047057D01*
X063251Y045356D01*
X063251Y047057D01*
X061410Y046490D02*
X060843Y047057D01*
X060275Y046490D01*
X060275Y045356D01*
X056592Y045356D02*
X056592Y047057D01*
X055885Y047057D02*
X055885Y045639D01*
X055601Y045356D01*
X055034Y045356D01*
X054751Y045639D01*
X054751Y047057D01*
X065800Y046773D02*
X065800Y045639D01*
X066084Y045356D01*
X066651Y045356D01*
X066934Y045639D01*
X067642Y045639D02*
X067925Y045356D01*
X068492Y045356D01*
X068776Y045639D01*
X068776Y046773D01*
X068492Y047057D01*
X067925Y047057D01*
X067642Y046773D01*
X067642Y045639D01*
X069483Y045356D02*
X069483Y047057D01*
X070617Y045356D01*
X070617Y047057D01*
X071325Y046773D02*
X071325Y045639D01*
X071608Y045356D01*
X072175Y045356D01*
X072459Y045639D01*
X073166Y045356D02*
X074300Y045356D01*
X075008Y045356D02*
X075008Y047057D01*
X075858Y047057D01*
X076142Y046773D01*
X076142Y046206D01*
X075858Y045923D01*
X075008Y045923D01*
X073733Y046206D02*
X073166Y046206D01*
X073166Y045356D02*
X073166Y047057D01*
X074300Y047057D01*
X072459Y046773D02*
X072175Y047057D01*
X071608Y047057D01*
X071325Y046773D01*
X066934Y046773D02*
X066651Y047057D01*
X066084Y047057D01*
X065800Y046773D01*
X076849Y047057D02*
X077984Y047057D01*
X077416Y047057D02*
X077416Y045356D01*
D16*
X076547Y043306D02*
X076547Y043156D01*
X076547Y042856D02*
X076547Y042256D01*
X076397Y042256D02*
X076697Y042256D01*
X077161Y042406D02*
X077161Y043006D01*
X077011Y042856D02*
X077311Y042856D01*
X077625Y042706D02*
X077775Y042856D01*
X078225Y042856D01*
X078075Y042556D02*
X078225Y042406D01*
X078075Y042256D01*
X077625Y042256D01*
X077311Y042256D02*
X077161Y042406D01*
X077625Y042706D02*
X077775Y042556D01*
X078075Y042556D01*
X076547Y042856D02*
X076397Y042856D01*
X076077Y042856D02*
X076077Y042256D01*
X075626Y042256D01*
X075476Y042406D01*
X075476Y042856D01*
X075156Y042856D02*
X074706Y042856D01*
X074556Y042706D01*
X074556Y042406D01*
X074706Y042256D01*
X075156Y042256D01*
X075667Y041356D02*
X075517Y041206D01*
X075517Y040906D01*
X075667Y040756D01*
X076117Y040756D01*
X076437Y040906D02*
X076588Y040756D01*
X076888Y040756D01*
X077038Y040906D01*
X077038Y041206D01*
X076888Y041356D01*
X076588Y041356D01*
X076437Y041206D01*
X076437Y040906D01*
X076117Y041356D02*
X075667Y041356D01*
X075206Y040906D02*
X075206Y040756D01*
X075056Y040756D01*
X075056Y040906D01*
X075206Y040906D01*
X074736Y040906D02*
X074736Y041206D01*
X074586Y041356D01*
X074136Y041356D01*
X074136Y041656D02*
X074136Y040756D01*
X074586Y040756D01*
X074736Y040906D01*
X073815Y040756D02*
X073365Y040756D01*
X073215Y040906D01*
X073215Y041206D01*
X073365Y041356D01*
X073815Y041356D01*
X073788Y042256D02*
X073788Y042856D01*
X073788Y042556D02*
X074089Y042856D01*
X074239Y042856D01*
X073325Y042856D02*
X073325Y042256D01*
X073175Y042256D02*
X073475Y042256D01*
X073325Y042856D02*
X073175Y042856D01*
X073325Y043156D02*
X073325Y043306D01*
X072854Y043006D02*
X072704Y043156D01*
X072404Y043156D01*
X072254Y043006D01*
X072254Y042406D01*
X072404Y042256D01*
X072704Y042256D01*
X072854Y042406D01*
X072744Y041356D02*
X072895Y041206D01*
X072895Y040906D01*
X072744Y040756D01*
X072294Y040756D01*
X072294Y040455D02*
X072294Y041356D01*
X072744Y041356D01*
X071974Y041206D02*
X071373Y041206D01*
X071824Y041656D01*
X071824Y040756D01*
X071063Y040756D02*
X070913Y040756D01*
X070913Y040906D01*
X071063Y040906D01*
X071063Y040756D01*
X070593Y040906D02*
X070593Y041356D01*
X070593Y040906D02*
X070443Y040756D01*
X070293Y040906D01*
X070142Y040756D01*
X069992Y040906D01*
X069992Y041356D01*
X069672Y041356D02*
X069672Y040906D01*
X069522Y040756D01*
X069372Y040906D01*
X069222Y040756D01*
X069072Y040906D01*
X069072Y041356D01*
X068751Y041356D02*
X068751Y040906D01*
X068601Y040756D01*
X068451Y040906D01*
X068301Y040756D01*
X068151Y040906D01*
X068151Y041356D01*
X068251Y042256D02*
X068251Y042706D01*
X068100Y042856D01*
X067650Y042856D01*
X067650Y042256D01*
X067330Y042256D02*
X066879Y042256D01*
X066729Y042406D01*
X066879Y042556D01*
X067330Y042556D01*
X067330Y042706D02*
X067330Y042256D01*
X067330Y042706D02*
X067180Y042856D01*
X066879Y042856D01*
X066409Y042856D02*
X066109Y042256D01*
X065809Y042856D01*
X065488Y042856D02*
X065038Y042856D01*
X064888Y042706D01*
X064888Y042406D01*
X065038Y042256D01*
X065488Y042256D01*
X065488Y043156D01*
X064568Y042856D02*
X064568Y042256D01*
X064568Y042706D02*
X063967Y042706D01*
X063967Y042856D02*
X064267Y043156D01*
X064568Y042856D01*
X063967Y042856D02*
X063967Y042256D01*
X062726Y042256D02*
X062276Y042256D01*
X062126Y042406D01*
X062126Y042856D01*
X061805Y042706D02*
X061655Y042856D01*
X061205Y042856D01*
X061205Y043156D02*
X061205Y042256D01*
X061655Y042256D01*
X061805Y042406D01*
X061805Y042706D01*
X062726Y042856D02*
X062726Y042105D01*
X062576Y041955D01*
X062426Y041955D01*
X059964Y042256D02*
X059513Y042256D01*
X059363Y042406D01*
X059363Y042706D01*
X059513Y042856D01*
X059964Y042856D01*
X059964Y043156D02*
X059964Y042256D01*
X059043Y042556D02*
X058443Y042556D01*
X058443Y042706D02*
X058593Y042856D01*
X058893Y042856D01*
X059043Y042706D01*
X059043Y042556D01*
X058893Y042256D02*
X058593Y042256D01*
X058443Y042406D01*
X058443Y042706D01*
X058126Y042856D02*
X057976Y042856D01*
X057675Y042556D01*
X057675Y042256D02*
X057675Y042856D01*
X057355Y042706D02*
X057205Y042856D01*
X056905Y042856D01*
X056755Y042706D01*
X056755Y042406D01*
X056905Y042256D01*
X057205Y042256D01*
X057355Y042406D01*
X057355Y042706D01*
X056434Y042856D02*
X055984Y042856D01*
X055834Y042706D01*
X055984Y042556D01*
X056284Y042556D01*
X056434Y042406D01*
X056284Y042256D01*
X055834Y042256D01*
X055514Y042256D02*
X055514Y042706D01*
X055363Y042856D01*
X054913Y042856D01*
X054913Y042256D01*
X054593Y042406D02*
X054593Y042706D01*
X054443Y042856D01*
X054142Y042856D01*
X053992Y042706D01*
X053992Y042406D01*
X054142Y042256D01*
X054443Y042256D01*
X054593Y042406D01*
X053672Y042406D02*
X053672Y042706D01*
X053522Y042856D01*
X053072Y042856D01*
X053072Y041955D01*
X053072Y042256D02*
X053522Y042256D01*
X053672Y042406D01*
X052751Y042406D02*
X052751Y042556D01*
X052601Y042706D01*
X052301Y042706D01*
X052151Y042856D01*
X052151Y043006D01*
X052301Y043156D01*
X052601Y043156D01*
X052751Y043006D01*
X052751Y042406D02*
X052601Y042256D01*
X052301Y042256D01*
X052151Y042406D01*
X068571Y042406D02*
X068721Y042256D01*
X069171Y042256D01*
X069492Y042406D02*
X069492Y042706D01*
X069642Y042856D01*
X069942Y042856D01*
X070092Y042706D01*
X070092Y042556D01*
X069492Y042556D01*
X069492Y042406D02*
X069642Y042256D01*
X069942Y042256D01*
X070412Y042406D02*
X070412Y042706D01*
X070562Y042856D01*
X071013Y042856D01*
X071013Y043156D02*
X071013Y042256D01*
X070562Y042256D01*
X070412Y042406D01*
X069171Y042856D02*
X068721Y042856D01*
X068571Y042706D01*
X068571Y042406D01*
X077358Y041356D02*
X077358Y040756D01*
X077658Y040756D02*
X077658Y041206D01*
X077809Y041356D01*
X077959Y041206D01*
X077959Y040756D01*
X077658Y041206D02*
X077508Y041356D01*
X077358Y041356D01*
X079601Y004456D02*
X079558Y004510D01*
X079512Y004562D01*
X079463Y004611D01*
X079411Y004658D01*
X079357Y004701D01*
X079301Y004742D01*
X079242Y004779D01*
X079182Y004813D01*
X079119Y004843D01*
X079056Y004870D01*
X078990Y004894D01*
X078924Y004914D01*
X078856Y004930D01*
X078788Y004942D01*
X078719Y004950D01*
X078650Y004955D01*
X078580Y004956D01*
X078511Y004953D01*
X078442Y004946D01*
X078374Y004935D01*
X078306Y004921D01*
X078239Y004902D01*
X078173Y004880D01*
X078108Y004855D01*
X078045Y004826D01*
X077984Y004793D01*
X077925Y004757D01*
X077868Y004718D01*
X077812Y004676D01*
X077760Y004631D01*
X077710Y004583D01*
X077663Y004532D01*
X077618Y004478D01*
X077577Y004423D01*
X077539Y004365D01*
X077504Y004305D01*
X077472Y004243D01*
X077444Y004180D01*
X077420Y004115D01*
X077399Y004049D01*
X077382Y003981D01*
X077368Y003913D01*
X077359Y003844D01*
X077353Y003775D01*
X077351Y003706D01*
X077353Y003637D01*
X077359Y003568D01*
X077368Y003499D01*
X077382Y003431D01*
X077399Y003363D01*
X077420Y003297D01*
X077444Y003232D01*
X077472Y003169D01*
X077504Y003107D01*
X077539Y003047D01*
X077577Y002989D01*
X077618Y002934D01*
X077663Y002880D01*
X077710Y002829D01*
X077760Y002781D01*
X077812Y002736D01*
X077868Y002694D01*
X077925Y002655D01*
X077984Y002619D01*
X078045Y002586D01*
X078108Y002557D01*
X078173Y002532D01*
X078239Y002510D01*
X078306Y002491D01*
X078374Y002477D01*
X078442Y002466D01*
X078511Y002459D01*
X078580Y002456D01*
X078650Y002457D01*
X078719Y002462D01*
X078788Y002470D01*
X078856Y002482D01*
X078924Y002498D01*
X078990Y002518D01*
X079056Y002542D01*
X079119Y002569D01*
X079182Y002599D01*
X079242Y002633D01*
X079301Y002670D01*
X079357Y002711D01*
X079411Y002754D01*
X079463Y002801D01*
X079512Y002850D01*
X079558Y002902D01*
X079601Y002956D01*
X084101Y002956D02*
X084058Y002902D01*
X084012Y002850D01*
X083963Y002801D01*
X083911Y002754D01*
X083857Y002711D01*
X083801Y002670D01*
X083742Y002633D01*
X083682Y002599D01*
X083619Y002569D01*
X083556Y002542D01*
X083490Y002518D01*
X083424Y002498D01*
X083356Y002482D01*
X083288Y002470D01*
X083219Y002462D01*
X083150Y002457D01*
X083080Y002456D01*
X083011Y002459D01*
X082942Y002466D01*
X082874Y002477D01*
X082806Y002491D01*
X082739Y002510D01*
X082673Y002532D01*
X082608Y002557D01*
X082545Y002586D01*
X082484Y002619D01*
X082425Y002655D01*
X082368Y002694D01*
X082312Y002736D01*
X082260Y002781D01*
X082210Y002829D01*
X082163Y002880D01*
X082118Y002934D01*
X082077Y002989D01*
X082039Y003047D01*
X082004Y003107D01*
X081972Y003169D01*
X081944Y003232D01*
X081920Y003297D01*
X081899Y003363D01*
X081882Y003431D01*
X081868Y003499D01*
X081859Y003568D01*
X081853Y003637D01*
X081851Y003706D01*
X081853Y003775D01*
X081859Y003844D01*
X081868Y003913D01*
X081882Y003981D01*
X081899Y004049D01*
X081920Y004115D01*
X081944Y004180D01*
X081972Y004243D01*
X082004Y004305D01*
X082039Y004365D01*
X082077Y004423D01*
X082118Y004478D01*
X082163Y004532D01*
X082210Y004583D01*
X082260Y004631D01*
X082312Y004676D01*
X082368Y004718D01*
X082425Y004757D01*
X082484Y004793D01*
X082545Y004826D01*
X082608Y004855D01*
X082673Y004880D01*
X082739Y004902D01*
X082806Y004921D01*
X082874Y004935D01*
X082942Y004946D01*
X083011Y004953D01*
X083080Y004956D01*
X083150Y004955D01*
X083219Y004950D01*
X083288Y004942D01*
X083356Y004930D01*
X083424Y004914D01*
X083490Y004894D01*
X083556Y004870D01*
X083619Y004843D01*
X083682Y004813D01*
X083742Y004779D01*
X083801Y004742D01*
X083857Y004701D01*
X083911Y004658D01*
X083963Y004611D01*
X084012Y004562D01*
X084058Y004510D01*
X084101Y004456D01*
X088601Y004456D02*
X088558Y004510D01*
X088512Y004562D01*
X088463Y004611D01*
X088411Y004658D01*
X088357Y004701D01*
X088301Y004742D01*
X088242Y004779D01*
X088182Y004813D01*
X088119Y004843D01*
X088056Y004870D01*
X087990Y004894D01*
X087924Y004914D01*
X087856Y004930D01*
X087788Y004942D01*
X087719Y004950D01*
X087650Y004955D01*
X087580Y004956D01*
X087511Y004953D01*
X087442Y004946D01*
X087374Y004935D01*
X087306Y004921D01*
X087239Y004902D01*
X087173Y004880D01*
X087108Y004855D01*
X087045Y004826D01*
X086984Y004793D01*
X086925Y004757D01*
X086868Y004718D01*
X086812Y004676D01*
X086760Y004631D01*
X086710Y004583D01*
X086663Y004532D01*
X086618Y004478D01*
X086577Y004423D01*
X086539Y004365D01*
X086504Y004305D01*
X086472Y004243D01*
X086444Y004180D01*
X086420Y004115D01*
X086399Y004049D01*
X086382Y003981D01*
X086368Y003913D01*
X086359Y003844D01*
X086353Y003775D01*
X086351Y003706D01*
X086353Y003637D01*
X086359Y003568D01*
X086368Y003499D01*
X086382Y003431D01*
X086399Y003363D01*
X086420Y003297D01*
X086444Y003232D01*
X086472Y003169D01*
X086504Y003107D01*
X086539Y003047D01*
X086577Y002989D01*
X086618Y002934D01*
X086663Y002880D01*
X086710Y002829D01*
X086760Y002781D01*
X086812Y002736D01*
X086868Y002694D01*
X086925Y002655D01*
X086984Y002619D01*
X087045Y002586D01*
X087108Y002557D01*
X087173Y002532D01*
X087239Y002510D01*
X087306Y002491D01*
X087374Y002477D01*
X087442Y002466D01*
X087511Y002459D01*
X087580Y002456D01*
X087650Y002457D01*
X087719Y002462D01*
X087788Y002470D01*
X087856Y002482D01*
X087924Y002498D01*
X087990Y002518D01*
X088056Y002542D01*
X088119Y002569D01*
X088182Y002599D01*
X088242Y002633D01*
X088301Y002670D01*
X088357Y002711D01*
X088411Y002754D01*
X088463Y002801D01*
X088512Y002850D01*
X088558Y002902D01*
X088601Y002956D01*
X093101Y002956D02*
X093058Y002902D01*
X093012Y002850D01*
X092963Y002801D01*
X092911Y002754D01*
X092857Y002711D01*
X092801Y002670D01*
X092742Y002633D01*
X092682Y002599D01*
X092619Y002569D01*
X092556Y002542D01*
X092490Y002518D01*
X092424Y002498D01*
X092356Y002482D01*
X092288Y002470D01*
X092219Y002462D01*
X092150Y002457D01*
X092080Y002456D01*
X092011Y002459D01*
X091942Y002466D01*
X091874Y002477D01*
X091806Y002491D01*
X091739Y002510D01*
X091673Y002532D01*
X091608Y002557D01*
X091545Y002586D01*
X091484Y002619D01*
X091425Y002655D01*
X091368Y002694D01*
X091312Y002736D01*
X091260Y002781D01*
X091210Y002829D01*
X091163Y002880D01*
X091118Y002934D01*
X091077Y002989D01*
X091039Y003047D01*
X091004Y003107D01*
X090972Y003169D01*
X090944Y003232D01*
X090920Y003297D01*
X090899Y003363D01*
X090882Y003431D01*
X090868Y003499D01*
X090859Y003568D01*
X090853Y003637D01*
X090851Y003706D01*
X090853Y003775D01*
X090859Y003844D01*
X090868Y003913D01*
X090882Y003981D01*
X090899Y004049D01*
X090920Y004115D01*
X090944Y004180D01*
X090972Y004243D01*
X091004Y004305D01*
X091039Y004365D01*
X091077Y004423D01*
X091118Y004478D01*
X091163Y004532D01*
X091210Y004583D01*
X091260Y004631D01*
X091312Y004676D01*
X091368Y004718D01*
X091425Y004757D01*
X091484Y004793D01*
X091545Y004826D01*
X091608Y004855D01*
X091673Y004880D01*
X091739Y004902D01*
X091806Y004921D01*
X091874Y004935D01*
X091942Y004946D01*
X092011Y004953D01*
X092080Y004956D01*
X092150Y004955D01*
X092219Y004950D01*
X092288Y004942D01*
X092356Y004930D01*
X092424Y004914D01*
X092490Y004894D01*
X092556Y004870D01*
X092619Y004843D01*
X092682Y004813D01*
X092742Y004779D01*
X092801Y004742D01*
X092857Y004701D01*
X092911Y004658D01*
X092963Y004611D01*
X093012Y004562D01*
X093058Y004510D01*
X093101Y004456D01*
X097601Y004456D02*
X097558Y004510D01*
X097512Y004562D01*
X097463Y004611D01*
X097411Y004658D01*
X097357Y004701D01*
X097301Y004742D01*
X097242Y004779D01*
X097182Y004813D01*
X097119Y004843D01*
X097056Y004870D01*
X096990Y004894D01*
X096924Y004914D01*
X096856Y004930D01*
X096788Y004942D01*
X096719Y004950D01*
X096650Y004955D01*
X096580Y004956D01*
X096511Y004953D01*
X096442Y004946D01*
X096374Y004935D01*
X096306Y004921D01*
X096239Y004902D01*
X096173Y004880D01*
X096108Y004855D01*
X096045Y004826D01*
X095984Y004793D01*
X095925Y004757D01*
X095868Y004718D01*
X095812Y004676D01*
X095760Y004631D01*
X095710Y004583D01*
X095663Y004532D01*
X095618Y004478D01*
X095577Y004423D01*
X095539Y004365D01*
X095504Y004305D01*
X095472Y004243D01*
X095444Y004180D01*
X095420Y004115D01*
X095399Y004049D01*
X095382Y003981D01*
X095368Y003913D01*
X095359Y003844D01*
X095353Y003775D01*
X095351Y003706D01*
X095353Y003637D01*
X095359Y003568D01*
X095368Y003499D01*
X095382Y003431D01*
X095399Y003363D01*
X095420Y003297D01*
X095444Y003232D01*
X095472Y003169D01*
X095504Y003107D01*
X095539Y003047D01*
X095577Y002989D01*
X095618Y002934D01*
X095663Y002880D01*
X095710Y002829D01*
X095760Y002781D01*
X095812Y002736D01*
X095868Y002694D01*
X095925Y002655D01*
X095984Y002619D01*
X096045Y002586D01*
X096108Y002557D01*
X096173Y002532D01*
X096239Y002510D01*
X096306Y002491D01*
X096374Y002477D01*
X096442Y002466D01*
X096511Y002459D01*
X096580Y002456D01*
X096650Y002457D01*
X096719Y002462D01*
X096788Y002470D01*
X096856Y002482D01*
X096924Y002498D01*
X096990Y002518D01*
X097056Y002542D01*
X097119Y002569D01*
X097182Y002599D01*
X097242Y002633D01*
X097301Y002670D01*
X097357Y002711D01*
X097411Y002754D01*
X097463Y002801D01*
X097512Y002850D01*
X097558Y002902D01*
X097601Y002956D01*
X075101Y002956D02*
X075058Y002902D01*
X075012Y002850D01*
X074963Y002801D01*
X074911Y002754D01*
X074857Y002711D01*
X074801Y002670D01*
X074742Y002633D01*
X074682Y002599D01*
X074619Y002569D01*
X074556Y002542D01*
X074490Y002518D01*
X074424Y002498D01*
X074356Y002482D01*
X074288Y002470D01*
X074219Y002462D01*
X074150Y002457D01*
X074080Y002456D01*
X074011Y002459D01*
X073942Y002466D01*
X073874Y002477D01*
X073806Y002491D01*
X073739Y002510D01*
X073673Y002532D01*
X073608Y002557D01*
X073545Y002586D01*
X073484Y002619D01*
X073425Y002655D01*
X073368Y002694D01*
X073312Y002736D01*
X073260Y002781D01*
X073210Y002829D01*
X073163Y002880D01*
X073118Y002934D01*
X073077Y002989D01*
X073039Y003047D01*
X073004Y003107D01*
X072972Y003169D01*
X072944Y003232D01*
X072920Y003297D01*
X072899Y003363D01*
X072882Y003431D01*
X072868Y003499D01*
X072859Y003568D01*
X072853Y003637D01*
X072851Y003706D01*
X072853Y003775D01*
X072859Y003844D01*
X072868Y003913D01*
X072882Y003981D01*
X072899Y004049D01*
X072920Y004115D01*
X072944Y004180D01*
X072972Y004243D01*
X073004Y004305D01*
X073039Y004365D01*
X073077Y004423D01*
X073118Y004478D01*
X073163Y004532D01*
X073210Y004583D01*
X073260Y004631D01*
X073312Y004676D01*
X073368Y004718D01*
X073425Y004757D01*
X073484Y004793D01*
X073545Y004826D01*
X073608Y004855D01*
X073673Y004880D01*
X073739Y004902D01*
X073806Y004921D01*
X073874Y004935D01*
X073942Y004946D01*
X074011Y004953D01*
X074080Y004956D01*
X074150Y004955D01*
X074219Y004950D01*
X074288Y004942D01*
X074356Y004930D01*
X074424Y004914D01*
X074490Y004894D01*
X074556Y004870D01*
X074619Y004843D01*
X074682Y004813D01*
X074742Y004779D01*
X074801Y004742D01*
X074857Y004701D01*
X074911Y004658D01*
X074963Y004611D01*
X075012Y004562D01*
X075058Y004510D01*
X075101Y004456D01*
X070601Y004456D02*
X070558Y004510D01*
X070512Y004562D01*
X070463Y004611D01*
X070411Y004658D01*
X070357Y004701D01*
X070301Y004742D01*
X070242Y004779D01*
X070182Y004813D01*
X070119Y004843D01*
X070056Y004870D01*
X069990Y004894D01*
X069924Y004914D01*
X069856Y004930D01*
X069788Y004942D01*
X069719Y004950D01*
X069650Y004955D01*
X069580Y004956D01*
X069511Y004953D01*
X069442Y004946D01*
X069374Y004935D01*
X069306Y004921D01*
X069239Y004902D01*
X069173Y004880D01*
X069108Y004855D01*
X069045Y004826D01*
X068984Y004793D01*
X068925Y004757D01*
X068868Y004718D01*
X068812Y004676D01*
X068760Y004631D01*
X068710Y004583D01*
X068663Y004532D01*
X068618Y004478D01*
X068577Y004423D01*
X068539Y004365D01*
X068504Y004305D01*
X068472Y004243D01*
X068444Y004180D01*
X068420Y004115D01*
X068399Y004049D01*
X068382Y003981D01*
X068368Y003913D01*
X068359Y003844D01*
X068353Y003775D01*
X068351Y003706D01*
X068353Y003637D01*
X068359Y003568D01*
X068368Y003499D01*
X068382Y003431D01*
X068399Y003363D01*
X068420Y003297D01*
X068444Y003232D01*
X068472Y003169D01*
X068504Y003107D01*
X068539Y003047D01*
X068577Y002989D01*
X068618Y002934D01*
X068663Y002880D01*
X068710Y002829D01*
X068760Y002781D01*
X068812Y002736D01*
X068868Y002694D01*
X068925Y002655D01*
X068984Y002619D01*
X069045Y002586D01*
X069108Y002557D01*
X069173Y002532D01*
X069239Y002510D01*
X069306Y002491D01*
X069374Y002477D01*
X069442Y002466D01*
X069511Y002459D01*
X069580Y002456D01*
X069650Y002457D01*
X069719Y002462D01*
X069788Y002470D01*
X069856Y002482D01*
X069924Y002498D01*
X069990Y002518D01*
X070056Y002542D01*
X070119Y002569D01*
X070182Y002599D01*
X070242Y002633D01*
X070301Y002670D01*
X070357Y002711D01*
X070411Y002754D01*
X070463Y002801D01*
X070512Y002850D01*
X070558Y002902D01*
X070601Y002956D01*
X066101Y002956D02*
X066058Y002902D01*
X066012Y002850D01*
X065963Y002801D01*
X065911Y002754D01*
X065857Y002711D01*
X065801Y002670D01*
X065742Y002633D01*
X065682Y002599D01*
X065619Y002569D01*
X065556Y002542D01*
X065490Y002518D01*
X065424Y002498D01*
X065356Y002482D01*
X065288Y002470D01*
X065219Y002462D01*
X065150Y002457D01*
X065080Y002456D01*
X065011Y002459D01*
X064942Y002466D01*
X064874Y002477D01*
X064806Y002491D01*
X064739Y002510D01*
X064673Y002532D01*
X064608Y002557D01*
X064545Y002586D01*
X064484Y002619D01*
X064425Y002655D01*
X064368Y002694D01*
X064312Y002736D01*
X064260Y002781D01*
X064210Y002829D01*
X064163Y002880D01*
X064118Y002934D01*
X064077Y002989D01*
X064039Y003047D01*
X064004Y003107D01*
X063972Y003169D01*
X063944Y003232D01*
X063920Y003297D01*
X063899Y003363D01*
X063882Y003431D01*
X063868Y003499D01*
X063859Y003568D01*
X063853Y003637D01*
X063851Y003706D01*
X063853Y003775D01*
X063859Y003844D01*
X063868Y003913D01*
X063882Y003981D01*
X063899Y004049D01*
X063920Y004115D01*
X063944Y004180D01*
X063972Y004243D01*
X064004Y004305D01*
X064039Y004365D01*
X064077Y004423D01*
X064118Y004478D01*
X064163Y004532D01*
X064210Y004583D01*
X064260Y004631D01*
X064312Y004676D01*
X064368Y004718D01*
X064425Y004757D01*
X064484Y004793D01*
X064545Y004826D01*
X064608Y004855D01*
X064673Y004880D01*
X064739Y004902D01*
X064806Y004921D01*
X064874Y004935D01*
X064942Y004946D01*
X065011Y004953D01*
X065080Y004956D01*
X065150Y004955D01*
X065219Y004950D01*
X065288Y004942D01*
X065356Y004930D01*
X065424Y004914D01*
X065490Y004894D01*
X065556Y004870D01*
X065619Y004843D01*
X065682Y004813D01*
X065742Y004779D01*
X065801Y004742D01*
X065857Y004701D01*
X065911Y004658D01*
X065963Y004611D01*
X066012Y004562D01*
X066058Y004510D01*
X066101Y004456D01*
X061601Y004456D02*
X061558Y004510D01*
X061512Y004562D01*
X061463Y004611D01*
X061411Y004658D01*
X061357Y004701D01*
X061301Y004742D01*
X061242Y004779D01*
X061182Y004813D01*
X061119Y004843D01*
X061056Y004870D01*
X060990Y004894D01*
X060924Y004914D01*
X060856Y004930D01*
X060788Y004942D01*
X060719Y004950D01*
X060650Y004955D01*
X060580Y004956D01*
X060511Y004953D01*
X060442Y004946D01*
X060374Y004935D01*
X060306Y004921D01*
X060239Y004902D01*
X060173Y004880D01*
X060108Y004855D01*
X060045Y004826D01*
X059984Y004793D01*
X059925Y004757D01*
X059868Y004718D01*
X059812Y004676D01*
X059760Y004631D01*
X059710Y004583D01*
X059663Y004532D01*
X059618Y004478D01*
X059577Y004423D01*
X059539Y004365D01*
X059504Y004305D01*
X059472Y004243D01*
X059444Y004180D01*
X059420Y004115D01*
X059399Y004049D01*
X059382Y003981D01*
X059368Y003913D01*
X059359Y003844D01*
X059353Y003775D01*
X059351Y003706D01*
X059353Y003637D01*
X059359Y003568D01*
X059368Y003499D01*
X059382Y003431D01*
X059399Y003363D01*
X059420Y003297D01*
X059444Y003232D01*
X059472Y003169D01*
X059504Y003107D01*
X059539Y003047D01*
X059577Y002989D01*
X059618Y002934D01*
X059663Y002880D01*
X059710Y002829D01*
X059760Y002781D01*
X059812Y002736D01*
X059868Y002694D01*
X059925Y002655D01*
X059984Y002619D01*
X060045Y002586D01*
X060108Y002557D01*
X060173Y002532D01*
X060239Y002510D01*
X060306Y002491D01*
X060374Y002477D01*
X060442Y002466D01*
X060511Y002459D01*
X060580Y002456D01*
X060650Y002457D01*
X060719Y002462D01*
X060788Y002470D01*
X060856Y002482D01*
X060924Y002498D01*
X060990Y002518D01*
X061056Y002542D01*
X061119Y002569D01*
X061182Y002599D01*
X061242Y002633D01*
X061301Y002670D01*
X061357Y002711D01*
X061411Y002754D01*
X061463Y002801D01*
X061512Y002850D01*
X061558Y002902D01*
X061601Y002956D01*
D17*
X061915Y002981D02*
X062366Y002981D01*
X062366Y003281D01*
X062366Y003441D02*
X062366Y003741D01*
X062366Y003901D02*
X062366Y004126D01*
X062291Y004201D01*
X061990Y004201D01*
X061915Y004126D01*
X061915Y003901D01*
X062366Y003901D01*
X062141Y003591D02*
X062141Y003441D01*
X062366Y003441D02*
X061915Y003441D01*
X061915Y003741D01*
X062066Y004362D02*
X061915Y004512D01*
X062366Y004512D01*
X062366Y004362D02*
X062366Y004662D01*
X061301Y007760D02*
X060850Y007760D01*
X060850Y007985D01*
X060925Y008060D01*
X061076Y008060D01*
X061151Y007985D01*
X061151Y007760D01*
X061151Y007910D02*
X061301Y008060D01*
X061301Y008220D02*
X061001Y008520D01*
X060925Y008520D01*
X060850Y008445D01*
X060850Y008295D01*
X060925Y008220D01*
X061301Y008220D02*
X061301Y008520D01*
X065350Y008445D02*
X065425Y008520D01*
X065501Y008520D01*
X065576Y008445D01*
X065651Y008520D01*
X065726Y008520D01*
X065801Y008445D01*
X065801Y008295D01*
X065726Y008220D01*
X065801Y008060D02*
X065651Y007910D01*
X065651Y007985D02*
X065651Y007760D01*
X065801Y007760D02*
X065350Y007760D01*
X065350Y007985D01*
X065425Y008060D01*
X065576Y008060D01*
X065651Y007985D01*
X065425Y008220D02*
X065350Y008295D01*
X065350Y008445D01*
X065576Y008445D02*
X065576Y008370D01*
X069850Y008445D02*
X070076Y008220D01*
X070076Y008520D01*
X070301Y008445D02*
X069850Y008445D01*
X069925Y008060D02*
X070076Y008060D01*
X070151Y007985D01*
X070151Y007760D01*
X070301Y007760D02*
X069850Y007760D01*
X069850Y007985D01*
X069925Y008060D01*
X070151Y007910D02*
X070301Y008060D01*
X074350Y008160D02*
X074801Y008160D01*
X074801Y008010D02*
X074801Y008310D01*
X074726Y008470D02*
X074801Y008545D01*
X074801Y008695D01*
X074726Y008770D01*
X074425Y008770D01*
X074350Y008695D01*
X074350Y008545D01*
X074425Y008470D01*
X074501Y008470D01*
X074576Y008545D01*
X074576Y008770D01*
X074350Y008160D02*
X074501Y008010D01*
X074576Y007850D02*
X074425Y007850D01*
X074350Y007775D01*
X074350Y007549D01*
X074801Y007549D01*
X074651Y007549D02*
X074651Y007775D01*
X074576Y007850D01*
X074651Y007699D02*
X074801Y007850D01*
X078850Y007775D02*
X078925Y007850D01*
X079076Y007850D01*
X079151Y007775D01*
X079151Y007549D01*
X079301Y007549D02*
X078850Y007549D01*
X078850Y007775D01*
X078925Y008010D02*
X078850Y008085D01*
X078850Y008235D01*
X078925Y008310D01*
X079001Y008310D01*
X079301Y008010D01*
X079301Y008310D01*
X079226Y008470D02*
X078925Y008770D01*
X079226Y008770D01*
X079301Y008695D01*
X079301Y008545D01*
X079226Y008470D01*
X078925Y008470D01*
X078850Y008545D01*
X078850Y008695D01*
X078925Y008770D01*
X079301Y007850D02*
X079151Y007699D01*
X079915Y004662D02*
X079915Y004362D01*
X080141Y004362D01*
X080066Y004512D01*
X080066Y004587D01*
X080141Y004662D01*
X080291Y004662D01*
X080366Y004587D01*
X080366Y004437D01*
X080291Y004362D01*
X080291Y004201D02*
X079990Y004201D01*
X079915Y004126D01*
X079915Y003901D01*
X080366Y003901D01*
X080366Y004126D01*
X080291Y004201D01*
X080366Y003741D02*
X080366Y003441D01*
X079915Y003441D01*
X079915Y003741D01*
X080141Y003591D02*
X080141Y003441D01*
X080366Y003281D02*
X080366Y002981D01*
X079915Y002981D01*
X075866Y002981D02*
X075866Y003281D01*
X075866Y003441D02*
X075866Y003741D01*
X075866Y003901D02*
X075866Y004126D01*
X075791Y004201D01*
X075490Y004201D01*
X075415Y004126D01*
X075415Y003901D01*
X075866Y003901D01*
X075641Y003591D02*
X075641Y003441D01*
X075866Y003441D02*
X075415Y003441D01*
X075415Y003741D01*
X075641Y004362D02*
X075641Y004662D01*
X075866Y004587D02*
X075415Y004587D01*
X075641Y004362D01*
X075415Y002981D02*
X075866Y002981D01*
X071366Y002981D02*
X071366Y003281D01*
X071366Y003441D02*
X071366Y003741D01*
X071366Y003901D02*
X071366Y004126D01*
X071291Y004201D01*
X070990Y004201D01*
X070915Y004126D01*
X070915Y003901D01*
X071366Y003901D01*
X071141Y003591D02*
X071141Y003441D01*
X071366Y003441D02*
X070915Y003441D01*
X070915Y003741D01*
X070990Y004362D02*
X070915Y004437D01*
X070915Y004587D01*
X070990Y004662D01*
X071066Y004662D01*
X071141Y004587D01*
X071216Y004662D01*
X071291Y004662D01*
X071366Y004587D01*
X071366Y004437D01*
X071291Y004362D01*
X071141Y004512D02*
X071141Y004587D01*
X070915Y002981D02*
X071366Y002981D01*
X066866Y002981D02*
X066866Y003281D01*
X066866Y003441D02*
X066866Y003741D01*
X066866Y003901D02*
X066866Y004126D01*
X066791Y004201D01*
X066490Y004201D01*
X066415Y004126D01*
X066415Y003901D01*
X066866Y003901D01*
X066641Y003591D02*
X066641Y003441D01*
X066866Y003441D02*
X066415Y003441D01*
X066415Y003741D01*
X066490Y004362D02*
X066415Y004437D01*
X066415Y004587D01*
X066490Y004662D01*
X066566Y004662D01*
X066866Y004362D01*
X066866Y004662D01*
X066866Y002981D02*
X066415Y002981D01*
X083350Y007549D02*
X083350Y007775D01*
X083425Y007850D01*
X083576Y007850D01*
X083651Y007775D01*
X083651Y007549D01*
X083801Y007549D02*
X083350Y007549D01*
X083651Y007699D02*
X083801Y007850D01*
X083801Y008010D02*
X083501Y008310D01*
X083425Y008310D01*
X083350Y008235D01*
X083350Y008085D01*
X083425Y008010D01*
X083801Y008010D02*
X083801Y008310D01*
X083801Y008470D02*
X083801Y008770D01*
X083801Y008620D02*
X083350Y008620D01*
X083501Y008470D01*
X087850Y008545D02*
X087925Y008470D01*
X087850Y008545D02*
X087850Y008695D01*
X087925Y008770D01*
X088001Y008770D01*
X088301Y008470D01*
X088301Y008770D01*
X088301Y008310D02*
X088301Y008010D01*
X088001Y008310D01*
X087925Y008310D01*
X087850Y008235D01*
X087850Y008085D01*
X087925Y008010D01*
X087925Y007850D02*
X088076Y007850D01*
X088151Y007775D01*
X088151Y007549D01*
X088301Y007549D02*
X087850Y007549D01*
X087850Y007775D01*
X087925Y007850D01*
X088151Y007699D02*
X088301Y007850D01*
X092350Y007775D02*
X092425Y007850D01*
X092576Y007850D01*
X092651Y007775D01*
X092651Y007549D01*
X092801Y007549D02*
X092350Y007549D01*
X092350Y007775D01*
X092425Y008010D02*
X092350Y008085D01*
X092350Y008235D01*
X092425Y008310D01*
X092501Y008310D01*
X092801Y008010D01*
X092801Y008310D01*
X092726Y008470D02*
X092801Y008545D01*
X092801Y008695D01*
X092726Y008770D01*
X092651Y008770D01*
X092576Y008695D01*
X092576Y008620D01*
X092576Y008695D02*
X092501Y008770D01*
X092425Y008770D01*
X092350Y008695D01*
X092350Y008545D01*
X092425Y008470D01*
X092801Y007850D02*
X092651Y007699D01*
X096850Y007775D02*
X096925Y007850D01*
X097076Y007850D01*
X097151Y007775D01*
X097151Y007549D01*
X097301Y007549D02*
X096850Y007549D01*
X096850Y007775D01*
X096925Y008010D02*
X096850Y008085D01*
X096850Y008235D01*
X096925Y008310D01*
X097001Y008310D01*
X097301Y008010D01*
X097301Y008310D01*
X097076Y008470D02*
X097076Y008770D01*
X097301Y008695D02*
X096850Y008695D01*
X097076Y008470D01*
X097301Y007850D02*
X097151Y007699D01*
X097990Y004662D02*
X097915Y004587D01*
X097915Y004437D01*
X097990Y004362D01*
X098066Y004362D01*
X098141Y004437D01*
X098141Y004662D01*
X098291Y004662D02*
X097990Y004662D01*
X098291Y004662D02*
X098366Y004587D01*
X098366Y004437D01*
X098291Y004362D01*
X098291Y004201D02*
X097990Y004201D01*
X097915Y004126D01*
X097915Y003901D01*
X098366Y003901D01*
X098366Y004126D01*
X098291Y004201D01*
X098366Y003741D02*
X098366Y003441D01*
X097915Y003441D01*
X097915Y003741D01*
X098141Y003591D02*
X098141Y003441D01*
X098366Y003281D02*
X098366Y002981D01*
X097915Y002981D01*
X093866Y002981D02*
X093866Y003281D01*
X093866Y003441D02*
X093866Y003741D01*
X093866Y003901D02*
X093866Y004126D01*
X093791Y004201D01*
X093490Y004201D01*
X093415Y004126D01*
X093415Y003901D01*
X093866Y003901D01*
X093641Y003591D02*
X093641Y003441D01*
X093866Y003441D02*
X093415Y003441D01*
X093415Y003741D01*
X093490Y004362D02*
X093566Y004362D01*
X093641Y004437D01*
X093641Y004587D01*
X093716Y004662D01*
X093791Y004662D01*
X093866Y004587D01*
X093866Y004437D01*
X093791Y004362D01*
X093716Y004362D01*
X093641Y004437D01*
X093641Y004587D02*
X093566Y004662D01*
X093490Y004662D01*
X093415Y004587D01*
X093415Y004437D01*
X093490Y004362D01*
X093415Y002981D02*
X093866Y002981D01*
X089366Y002981D02*
X089366Y003281D01*
X089366Y003441D02*
X089366Y003741D01*
X089366Y003901D02*
X089366Y004126D01*
X089291Y004201D01*
X088990Y004201D01*
X088915Y004126D01*
X088915Y003901D01*
X089366Y003901D01*
X089141Y003591D02*
X089141Y003441D01*
X089366Y003441D02*
X088915Y003441D01*
X088915Y003741D01*
X088915Y004362D02*
X088915Y004662D01*
X088990Y004662D01*
X089291Y004362D01*
X089366Y004362D01*
X089366Y002981D02*
X088915Y002981D01*
X084866Y002981D02*
X084866Y003281D01*
X084866Y003441D02*
X084866Y003741D01*
X084866Y003901D02*
X084866Y004126D01*
X084791Y004201D01*
X084490Y004201D01*
X084415Y004126D01*
X084415Y003901D01*
X084866Y003901D01*
X084641Y003591D02*
X084641Y003441D01*
X084866Y003441D02*
X084415Y003441D01*
X084415Y003741D01*
X084641Y004362D02*
X084641Y004587D01*
X084716Y004662D01*
X084791Y004662D01*
X084866Y004587D01*
X084866Y004437D01*
X084791Y004362D01*
X084641Y004362D01*
X084490Y004512D01*
X084415Y004662D01*
X084415Y002981D02*
X084866Y002981D01*
X037557Y003481D02*
X037257Y003481D01*
X037557Y003781D01*
X037557Y003856D01*
X037482Y003931D01*
X037332Y003931D01*
X037257Y003856D01*
X037097Y003856D02*
X037022Y003931D01*
X036796Y003931D01*
X036796Y003481D01*
X037022Y003481D01*
X037097Y003556D01*
X037097Y003856D01*
X036636Y003931D02*
X036636Y003556D01*
X036561Y003481D01*
X036411Y003481D01*
X036336Y003556D01*
X036336Y003931D01*
X036176Y003781D02*
X036176Y003481D01*
X036176Y003706D02*
X035876Y003706D01*
X035876Y003781D02*
X036026Y003931D01*
X036176Y003781D01*
X035876Y003781D02*
X035876Y003481D01*
X032557Y003481D02*
X032257Y003481D01*
X032407Y003481D02*
X032407Y003931D01*
X032257Y003781D01*
X032097Y003856D02*
X032022Y003931D01*
X031796Y003931D01*
X031796Y003481D01*
X032022Y003481D01*
X032097Y003556D01*
X032097Y003856D01*
X031636Y003931D02*
X031636Y003556D01*
X031561Y003481D01*
X031411Y003481D01*
X031336Y003556D01*
X031336Y003931D01*
X031176Y003781D02*
X031176Y003481D01*
X031176Y003706D02*
X030876Y003706D01*
X030876Y003781D02*
X031026Y003931D01*
X031176Y003781D01*
X030876Y003781D02*
X030876Y003481D01*
X005751Y030806D02*
X003501Y030806D01*
X003501Y035806D01*
X005751Y035806D01*
X005751Y030806D01*
X004951Y032129D02*
X004650Y032129D01*
X004575Y032204D01*
X004575Y032354D01*
X004650Y032429D01*
X004650Y032589D02*
X004951Y032589D01*
X005026Y032664D01*
X005026Y032814D01*
X004951Y032889D01*
X004650Y032889D01*
X004575Y032814D01*
X004575Y032664D01*
X004650Y032589D01*
X004951Y032429D02*
X005026Y032354D01*
X005026Y032204D01*
X004951Y032129D01*
X005026Y033049D02*
X004575Y033049D01*
X005026Y033350D01*
X004575Y033350D01*
X004726Y033510D02*
X004575Y033660D01*
X005026Y033660D01*
X005026Y033510D02*
X005026Y033810D01*
X004951Y033970D02*
X004876Y033970D01*
X004801Y034045D01*
X004801Y034195D01*
X004876Y034270D01*
X004951Y034270D01*
X005026Y034195D01*
X005026Y034045D01*
X004951Y033970D01*
X004801Y034045D02*
X004726Y033970D01*
X004650Y033970D01*
X004575Y034045D01*
X004575Y034195D01*
X004650Y034270D01*
X004726Y034270D01*
X004801Y034195D01*
X009641Y040716D02*
X013441Y040716D01*
X013441Y057716D01*
X009641Y057716D01*
X009641Y040716D01*
X032201Y036056D02*
X036001Y036056D01*
X036001Y056356D01*
X032201Y056356D01*
X032201Y036056D01*
X044425Y039856D02*
X044500Y039781D01*
X044801Y039781D01*
X044876Y039856D01*
X044876Y040006D01*
X044801Y040081D01*
X044801Y040241D02*
X044876Y040316D01*
X044876Y040466D01*
X044801Y040541D01*
X044500Y040541D01*
X044425Y040466D01*
X044425Y040316D01*
X044500Y040241D01*
X044801Y040241D01*
X044500Y040081D02*
X044425Y040006D01*
X044425Y039856D01*
X044425Y040701D02*
X044876Y041001D01*
X044425Y041001D01*
X044500Y041162D02*
X044425Y041237D01*
X044425Y041387D01*
X044500Y041462D01*
X044576Y041462D01*
X044876Y041162D01*
X044876Y041462D01*
X045101Y041456D02*
X045101Y037656D01*
X048901Y037656D01*
X048901Y041456D01*
X045101Y041456D01*
X044876Y040701D02*
X044425Y040701D01*
X031851Y054581D02*
X031926Y054656D01*
X031926Y054806D01*
X031851Y054881D01*
X031851Y055041D02*
X031926Y055116D01*
X031926Y055266D01*
X031851Y055341D01*
X031550Y055341D01*
X031475Y055266D01*
X031475Y055116D01*
X031550Y055041D01*
X031851Y055041D01*
X031550Y054881D02*
X031475Y054806D01*
X031475Y054656D01*
X031550Y054581D01*
X031851Y054581D01*
X031926Y055501D02*
X031475Y055501D01*
X031926Y055801D01*
X031475Y055801D01*
X031626Y055962D02*
X031475Y056112D01*
X031926Y056112D01*
X031926Y055962D02*
X031926Y056262D01*
X026276Y067631D02*
X025825Y067631D01*
X025825Y067856D01*
X025900Y067931D01*
X026051Y067931D01*
X026126Y067856D01*
X026126Y067631D01*
X026126Y067781D02*
X026276Y067931D01*
X026276Y068091D02*
X026276Y068391D01*
X026276Y068241D02*
X025825Y068241D01*
X025976Y068091D01*
X026051Y068551D02*
X025976Y068701D01*
X025976Y068776D01*
X026051Y068851D01*
X026201Y068851D01*
X026276Y068776D01*
X026276Y068626D01*
X026201Y068551D01*
X026051Y068551D02*
X025825Y068551D01*
X025825Y068851D01*
X024776Y068776D02*
X024325Y068776D01*
X024551Y068551D01*
X024551Y068851D01*
X024776Y068391D02*
X024776Y068091D01*
X024776Y068241D02*
X024325Y068241D01*
X024476Y068091D01*
X024551Y067931D02*
X024626Y067856D01*
X024626Y067631D01*
X024626Y067781D02*
X024776Y067931D01*
X024551Y067931D02*
X024400Y067931D01*
X024325Y067856D01*
X024325Y067631D01*
X024776Y067631D01*
X023276Y067631D02*
X022825Y067631D01*
X022825Y067856D01*
X022900Y067931D01*
X023051Y067931D01*
X023126Y067856D01*
X023126Y067631D01*
X023126Y067781D02*
X023276Y067931D01*
X023276Y068091D02*
X023276Y068391D01*
X023276Y068241D02*
X022825Y068241D01*
X022976Y068091D01*
X022900Y068551D02*
X022825Y068626D01*
X022825Y068776D01*
X022900Y068851D01*
X022976Y068851D01*
X023051Y068776D01*
X023126Y068851D01*
X023201Y068851D01*
X023276Y068776D01*
X023276Y068626D01*
X023201Y068551D01*
X023051Y068701D02*
X023051Y068776D01*
X021776Y068851D02*
X021776Y068551D01*
X021476Y068851D01*
X021400Y068851D01*
X021325Y068776D01*
X021325Y068626D01*
X021400Y068551D01*
X021325Y068241D02*
X021776Y068241D01*
X021776Y068091D02*
X021776Y068391D01*
X021476Y068091D02*
X021325Y068241D01*
X021400Y067931D02*
X021551Y067931D01*
X021626Y067856D01*
X021626Y067631D01*
X021626Y067781D02*
X021776Y067931D01*
X021776Y067631D02*
X021325Y067631D01*
X021325Y067856D01*
X021400Y067931D01*
X020276Y067931D02*
X020126Y067781D01*
X020126Y067856D02*
X020126Y067631D01*
X020276Y067631D02*
X019825Y067631D01*
X019825Y067856D01*
X019900Y067931D01*
X020051Y067931D01*
X020126Y067856D01*
X020276Y068091D02*
X020276Y068391D01*
X020276Y068241D02*
X019825Y068241D01*
X019976Y068091D01*
X019976Y068551D02*
X019825Y068701D01*
X020276Y068701D01*
X020276Y068551D02*
X020276Y068851D01*
X018776Y068776D02*
X018776Y068626D01*
X018701Y068551D01*
X018400Y068851D01*
X018701Y068851D01*
X018776Y068776D01*
X018701Y068551D02*
X018400Y068551D01*
X018325Y068626D01*
X018325Y068776D01*
X018400Y068851D01*
X018776Y068391D02*
X018776Y068091D01*
X018776Y068241D02*
X018325Y068241D01*
X018476Y068091D01*
X018551Y067931D02*
X018626Y067856D01*
X018626Y067631D01*
X018626Y067781D02*
X018776Y067931D01*
X018551Y067931D02*
X018400Y067931D01*
X018325Y067856D01*
X018325Y067631D01*
X018776Y067631D01*
X017276Y067831D02*
X016825Y067831D01*
X016825Y068056D01*
X016900Y068131D01*
X017051Y068131D01*
X017126Y068056D01*
X017126Y067831D01*
X017126Y067981D02*
X017276Y068131D01*
X017201Y068291D02*
X017276Y068366D01*
X017276Y068516D01*
X017201Y068591D01*
X016900Y068591D01*
X016825Y068516D01*
X016825Y068366D01*
X016900Y068291D01*
X016976Y068291D01*
X017051Y068366D01*
X017051Y068591D01*
X015776Y068516D02*
X015776Y068366D01*
X015701Y068291D01*
X015626Y068291D01*
X015551Y068366D01*
X015551Y068516D01*
X015626Y068591D01*
X015701Y068591D01*
X015776Y068516D01*
X015551Y068516D02*
X015476Y068591D01*
X015400Y068591D01*
X015325Y068516D01*
X015325Y068366D01*
X015400Y068291D01*
X015476Y068291D01*
X015551Y068366D01*
X015551Y068131D02*
X015626Y068056D01*
X015626Y067831D01*
X015626Y067981D02*
X015776Y068131D01*
X015551Y068131D02*
X015400Y068131D01*
X015325Y068056D01*
X015325Y067831D01*
X015776Y067831D01*
X014376Y067831D02*
X013925Y067831D01*
X013925Y068056D01*
X014000Y068131D01*
X014151Y068131D01*
X014226Y068056D01*
X014226Y067831D01*
X014226Y067981D02*
X014376Y068131D01*
X014376Y068291D02*
X014301Y068291D01*
X014000Y068591D01*
X013925Y068591D01*
X013925Y068291D01*
X012776Y068366D02*
X012776Y068516D01*
X012701Y068591D01*
X012626Y068591D01*
X012551Y068516D01*
X012551Y068291D01*
X012701Y068291D01*
X012776Y068366D01*
X012776Y068131D02*
X012626Y067981D01*
X012626Y068056D02*
X012626Y067831D01*
X012776Y067831D02*
X012325Y067831D01*
X012325Y068056D01*
X012400Y068131D01*
X012551Y068131D01*
X012626Y068056D01*
X012551Y068291D02*
X012400Y068441D01*
X012325Y068591D01*
X013251Y076506D02*
X002851Y076506D01*
X002851Y081506D01*
X013251Y081506D01*
X013251Y076506D01*
X014851Y076506D02*
X014851Y081506D01*
X025251Y081506D01*
X025251Y076506D01*
X014851Y076506D01*
X019024Y077606D02*
X019099Y077531D01*
X019249Y077531D01*
X019324Y077606D01*
X019484Y077606D02*
X019559Y077531D01*
X019709Y077531D01*
X019784Y077606D01*
X019784Y077906D01*
X019709Y077981D01*
X019559Y077981D01*
X019484Y077906D01*
X019484Y077606D01*
X019324Y077906D02*
X019249Y077981D01*
X019099Y077981D01*
X019024Y077906D01*
X019024Y077606D01*
X019945Y077531D02*
X019945Y077981D01*
X020245Y077531D01*
X020245Y077981D01*
X020405Y077831D02*
X020555Y077981D01*
X020555Y077531D01*
X020405Y077531D02*
X020705Y077531D01*
X020865Y077756D02*
X021166Y077756D01*
X021090Y077981D02*
X020865Y077756D01*
X021090Y077531D02*
X021090Y077981D01*
X026851Y076506D02*
X026851Y081506D01*
X028951Y081506D01*
X028951Y076506D01*
X026851Y076506D01*
X026809Y075081D02*
X026734Y075006D01*
X026734Y074706D01*
X026809Y074631D01*
X026959Y074631D01*
X027034Y074706D01*
X027195Y074706D02*
X027270Y074631D01*
X027420Y074631D01*
X027495Y074706D01*
X027495Y075006D01*
X027420Y075081D01*
X027270Y075081D01*
X027195Y075006D01*
X027195Y074706D01*
X027034Y075006D02*
X026959Y075081D01*
X026809Y075081D01*
X027655Y075081D02*
X027955Y074631D01*
X027955Y075081D01*
X028115Y074856D02*
X028340Y074856D01*
X028416Y074781D01*
X028416Y074706D01*
X028340Y074631D01*
X028190Y074631D01*
X028115Y074706D01*
X028115Y074856D01*
X028265Y075006D01*
X028416Y075081D01*
X027655Y075081D02*
X027655Y074631D01*
X030234Y074706D02*
X030309Y074631D01*
X030459Y074631D01*
X030534Y074706D01*
X030695Y074706D02*
X030770Y074631D01*
X030920Y074631D01*
X030995Y074706D01*
X030995Y075006D01*
X030920Y075081D01*
X030770Y075081D01*
X030695Y075006D01*
X030695Y074706D01*
X030534Y075006D02*
X030459Y075081D01*
X030309Y075081D01*
X030234Y075006D01*
X030234Y074706D01*
X031155Y074631D02*
X031155Y075081D01*
X031455Y074631D01*
X031455Y075081D01*
X031615Y075081D02*
X031615Y074856D01*
X031765Y074931D01*
X031840Y074931D01*
X031916Y074856D01*
X031916Y074706D01*
X031840Y074631D01*
X031690Y074631D01*
X031615Y074706D01*
X031615Y075081D02*
X031916Y075081D01*
X032451Y076506D02*
X030351Y076506D01*
X030351Y081506D01*
X032451Y081506D01*
X032451Y076506D01*
X033851Y076506D02*
X033851Y081506D01*
X035951Y081506D01*
X035951Y076506D01*
X033851Y076506D01*
X033809Y075081D02*
X033734Y075006D01*
X033734Y074706D01*
X033809Y074631D01*
X033959Y074631D01*
X034034Y074706D01*
X034195Y074706D02*
X034270Y074631D01*
X034420Y074631D01*
X034495Y074706D01*
X034495Y075006D01*
X034420Y075081D01*
X034270Y075081D01*
X034195Y075006D01*
X034195Y074706D01*
X034034Y075006D02*
X033959Y075081D01*
X033809Y075081D01*
X034655Y075081D02*
X034955Y074631D01*
X034955Y075081D01*
X035115Y075006D02*
X035115Y074931D01*
X035190Y074856D01*
X035340Y074856D01*
X035416Y074781D01*
X035416Y074706D01*
X035340Y074631D01*
X035190Y074631D01*
X035115Y074706D01*
X035115Y074781D01*
X035190Y074856D01*
X035340Y074856D02*
X035416Y074931D01*
X035416Y075006D01*
X035340Y075081D01*
X035190Y075081D01*
X035115Y075006D01*
X034655Y075081D02*
X034655Y074631D01*
X037234Y074706D02*
X037309Y074631D01*
X037459Y074631D01*
X037534Y074706D01*
X037695Y074706D02*
X037770Y074631D01*
X037920Y074631D01*
X037995Y074706D01*
X037995Y075006D01*
X037920Y075081D01*
X037770Y075081D01*
X037695Y075006D01*
X037695Y074706D01*
X037534Y075006D02*
X037459Y075081D01*
X037309Y075081D01*
X037234Y075006D01*
X037234Y074706D01*
X038155Y074631D02*
X038155Y075081D01*
X038455Y074631D01*
X038455Y075081D01*
X038615Y075081D02*
X038916Y075081D01*
X038916Y075006D01*
X038615Y074706D01*
X038615Y074631D01*
X040524Y074706D02*
X040599Y074631D01*
X040749Y074631D01*
X040824Y074706D01*
X040984Y074706D02*
X041059Y074631D01*
X041209Y074631D01*
X041284Y074706D01*
X041284Y075006D01*
X041209Y075081D01*
X041059Y075081D01*
X040984Y075006D01*
X040984Y074706D01*
X040824Y075006D02*
X040749Y075081D01*
X040599Y075081D01*
X040524Y075006D01*
X040524Y074706D01*
X041445Y074631D02*
X041445Y075081D01*
X041745Y074631D01*
X041745Y075081D01*
X041905Y074931D02*
X042055Y075081D01*
X042055Y074631D01*
X041905Y074631D02*
X042205Y074631D01*
X042365Y074706D02*
X042666Y075006D01*
X042666Y074706D01*
X042590Y074631D01*
X042440Y074631D01*
X042365Y074706D01*
X042365Y075006D01*
X042440Y075081D01*
X042590Y075081D01*
X042666Y075006D01*
X044234Y075006D02*
X044234Y074706D01*
X044309Y074631D01*
X044459Y074631D01*
X044534Y074706D01*
X044695Y074706D02*
X044770Y074631D01*
X044920Y074631D01*
X044995Y074706D01*
X044995Y075006D01*
X044920Y075081D01*
X044770Y075081D01*
X044695Y075006D01*
X044695Y074706D01*
X044534Y075006D02*
X044459Y075081D01*
X044309Y075081D01*
X044234Y075006D01*
X045155Y075081D02*
X045455Y074631D01*
X045455Y075081D01*
X045615Y075006D02*
X045615Y074931D01*
X045690Y074856D01*
X045916Y074856D01*
X045916Y075006D02*
X045840Y075081D01*
X045690Y075081D01*
X045615Y075006D01*
X045615Y074706D02*
X045690Y074631D01*
X045840Y074631D01*
X045916Y074706D01*
X045916Y075006D01*
X045155Y075081D02*
X045155Y074631D01*
X044351Y076506D02*
X044351Y081506D01*
X046451Y081506D01*
X046451Y076506D01*
X044351Y076506D01*
X042951Y076506D02*
X042951Y081506D01*
X040851Y081506D01*
X040851Y076506D01*
X042951Y076506D01*
X039451Y076506D02*
X039451Y081506D01*
X037351Y081506D01*
X037351Y076506D01*
X039451Y076506D01*
X047851Y076506D02*
X047851Y081506D01*
X049951Y081506D01*
X049951Y076506D01*
X047851Y076506D01*
X047809Y075081D02*
X047734Y075006D01*
X047734Y074706D01*
X047809Y074631D01*
X047959Y074631D01*
X048034Y074706D01*
X048195Y074706D02*
X048270Y074631D01*
X048420Y074631D01*
X048495Y074706D01*
X048495Y075006D01*
X048420Y075081D01*
X048270Y075081D01*
X048195Y075006D01*
X048195Y074706D01*
X048034Y075006D02*
X047959Y075081D01*
X047809Y075081D01*
X048655Y075081D02*
X048955Y074631D01*
X048955Y075081D01*
X049115Y074856D02*
X049416Y074856D01*
X049340Y075081D02*
X049115Y074856D01*
X049340Y074631D02*
X049340Y075081D01*
X048655Y075081D02*
X048655Y074631D01*
X051124Y074706D02*
X051199Y074631D01*
X051349Y074631D01*
X051424Y074706D01*
X051584Y074706D02*
X051659Y074631D01*
X051809Y074631D01*
X051884Y074706D01*
X051884Y075006D01*
X051809Y075081D01*
X051659Y075081D01*
X051584Y075006D01*
X051584Y074706D01*
X051424Y075006D02*
X051349Y075081D01*
X051199Y075081D01*
X051124Y075006D01*
X051124Y074706D01*
X052045Y074631D02*
X052045Y075081D01*
X052345Y074631D01*
X052345Y075081D01*
X052505Y074931D02*
X052655Y075081D01*
X052655Y074631D01*
X052505Y074631D02*
X052805Y074631D01*
X052965Y074706D02*
X053040Y074631D01*
X053190Y074631D01*
X053266Y074706D01*
X053266Y074856D01*
X053190Y074931D01*
X053115Y074931D01*
X052965Y074856D01*
X052965Y075081D01*
X053266Y075081D01*
X054524Y075006D02*
X054524Y074706D01*
X054599Y074631D01*
X054749Y074631D01*
X054824Y074706D01*
X054984Y074706D02*
X055059Y074631D01*
X055209Y074631D01*
X055284Y074706D01*
X055284Y075006D01*
X055209Y075081D01*
X055059Y075081D01*
X054984Y075006D01*
X054984Y074706D01*
X054824Y075006D02*
X054749Y075081D01*
X054599Y075081D01*
X054524Y075006D01*
X055445Y075081D02*
X055745Y074631D01*
X055745Y075081D01*
X055905Y074931D02*
X056055Y075081D01*
X056055Y074631D01*
X055905Y074631D02*
X056205Y074631D01*
X056365Y074631D02*
X056365Y074706D01*
X056666Y075006D01*
X056666Y075081D01*
X056365Y075081D01*
X055445Y075081D02*
X055445Y074631D01*
X054851Y076506D02*
X054851Y081506D01*
X056951Y081506D01*
X056951Y076506D01*
X054851Y076506D01*
X058351Y076506D02*
X058351Y081506D01*
X060451Y081506D01*
X060451Y076506D01*
X058351Y076506D01*
X058249Y075081D02*
X058099Y075081D01*
X058024Y075006D01*
X058024Y074706D01*
X058099Y074631D01*
X058249Y074631D01*
X058324Y074706D01*
X058484Y074706D02*
X058559Y074631D01*
X058709Y074631D01*
X058784Y074706D01*
X058784Y075006D01*
X058709Y075081D01*
X058559Y075081D01*
X058484Y075006D01*
X058484Y074706D01*
X058324Y075006D02*
X058249Y075081D01*
X058945Y075081D02*
X059245Y074631D01*
X059245Y075081D01*
X059405Y074931D02*
X059555Y075081D01*
X059555Y074631D01*
X059405Y074631D02*
X059705Y074631D01*
X059865Y074706D02*
X059940Y074631D01*
X060090Y074631D01*
X060166Y074706D01*
X060166Y074781D01*
X060090Y074856D01*
X059865Y074856D01*
X059865Y074706D01*
X059865Y074856D02*
X060015Y075006D01*
X060166Y075081D01*
X058945Y075081D02*
X058945Y074631D01*
X059001Y072006D02*
X059201Y072006D01*
X060001Y072006D02*
X060101Y072006D01*
X060101Y069306D01*
X060001Y069306D01*
X059201Y069306D02*
X059001Y069306D01*
X058201Y069306D02*
X058101Y069306D01*
X058101Y070206D01*
X057976Y070091D02*
X057525Y070091D01*
X057525Y070316D01*
X057600Y070391D01*
X057751Y070391D01*
X057826Y070316D01*
X057826Y070091D01*
X057901Y069931D02*
X057600Y069931D01*
X057525Y069856D01*
X057525Y069706D01*
X057600Y069631D01*
X057901Y069631D01*
X057976Y069706D01*
X057976Y069856D01*
X057901Y069931D01*
X057525Y070551D02*
X057525Y070851D01*
X057525Y070701D02*
X057976Y070701D01*
X058101Y070206D02*
X058145Y070208D01*
X058188Y070214D01*
X058230Y070223D01*
X058272Y070236D01*
X058312Y070253D01*
X058351Y070273D01*
X058388Y070296D01*
X058422Y070323D01*
X058455Y070352D01*
X058484Y070385D01*
X058511Y070419D01*
X058534Y070456D01*
X058554Y070495D01*
X058571Y070535D01*
X058584Y070577D01*
X058593Y070619D01*
X058599Y070662D01*
X058601Y070706D01*
X058599Y070750D01*
X058593Y070793D01*
X058584Y070835D01*
X058571Y070877D01*
X058554Y070917D01*
X058534Y070956D01*
X058511Y070993D01*
X058484Y071027D01*
X058455Y071060D01*
X058422Y071089D01*
X058388Y071116D01*
X058351Y071139D01*
X058312Y071159D01*
X058272Y071176D01*
X058230Y071189D01*
X058188Y071198D01*
X058145Y071204D01*
X058101Y071206D01*
X058101Y072006D01*
X058201Y072006D01*
X057976Y071772D02*
X057976Y071472D01*
X057976Y071622D02*
X057525Y071622D01*
X057676Y071472D01*
X057600Y071312D02*
X057525Y071237D01*
X057525Y071087D01*
X057600Y071012D01*
X057901Y071012D01*
X057976Y071087D01*
X057976Y071237D01*
X057901Y071312D01*
X057600Y071312D01*
X056601Y072006D02*
X056501Y072006D01*
X056601Y072006D02*
X056601Y069306D01*
X056501Y069306D01*
X055701Y069306D02*
X055501Y069306D01*
X054701Y069306D02*
X054601Y069306D01*
X054601Y070206D01*
X054476Y070091D02*
X054025Y070091D01*
X054025Y070316D01*
X054100Y070391D01*
X054251Y070391D01*
X054326Y070316D01*
X054326Y070091D01*
X054401Y069931D02*
X054100Y069931D01*
X054025Y069856D01*
X054025Y069706D01*
X054100Y069631D01*
X054401Y069631D01*
X054476Y069706D01*
X054476Y069856D01*
X054401Y069931D01*
X054025Y070551D02*
X054025Y070851D01*
X054025Y070701D02*
X054476Y070701D01*
X054601Y070206D02*
X054645Y070208D01*
X054688Y070214D01*
X054730Y070223D01*
X054772Y070236D01*
X054812Y070253D01*
X054851Y070273D01*
X054888Y070296D01*
X054922Y070323D01*
X054955Y070352D01*
X054984Y070385D01*
X055011Y070419D01*
X055034Y070456D01*
X055054Y070495D01*
X055071Y070535D01*
X055084Y070577D01*
X055093Y070619D01*
X055099Y070662D01*
X055101Y070706D01*
X055099Y070750D01*
X055093Y070793D01*
X055084Y070835D01*
X055071Y070877D01*
X055054Y070917D01*
X055034Y070956D01*
X055011Y070993D01*
X054984Y071027D01*
X054955Y071060D01*
X054922Y071089D01*
X054888Y071116D01*
X054851Y071139D01*
X054812Y071159D01*
X054772Y071176D01*
X054730Y071189D01*
X054688Y071198D01*
X054645Y071204D01*
X054601Y071206D01*
X054601Y072006D01*
X054701Y072006D01*
X054476Y071772D02*
X054476Y071472D01*
X054176Y071772D01*
X054100Y071772D01*
X054025Y071697D01*
X054025Y071547D01*
X054100Y071472D01*
X054100Y071312D02*
X054025Y071237D01*
X054025Y071087D01*
X054100Y071012D01*
X054401Y071012D01*
X054476Y071087D01*
X054476Y071237D01*
X054401Y071312D01*
X054100Y071312D01*
X055501Y072006D02*
X055701Y072006D01*
X050776Y071276D02*
X050701Y071351D01*
X050626Y071351D01*
X050551Y071276D01*
X050551Y071051D01*
X050701Y071051D01*
X050776Y071126D01*
X050776Y071276D01*
X050551Y071051D02*
X050400Y071201D01*
X050325Y071351D01*
X050325Y070741D02*
X050776Y070741D01*
X050776Y070591D02*
X050776Y070891D01*
X050476Y070591D02*
X050325Y070741D01*
X050400Y070431D02*
X050551Y070431D01*
X050626Y070356D01*
X050626Y070131D01*
X050626Y070281D02*
X050776Y070431D01*
X050776Y070131D02*
X050325Y070131D01*
X050325Y070356D01*
X050400Y070431D01*
X054400Y066351D02*
X054476Y066351D01*
X054551Y066276D01*
X054551Y066126D01*
X054476Y066051D01*
X054400Y066051D01*
X054325Y066126D01*
X054325Y066276D01*
X054400Y066351D01*
X054551Y066276D02*
X054626Y066351D01*
X054701Y066351D01*
X054776Y066276D01*
X054776Y066126D01*
X054701Y066051D01*
X054626Y066051D01*
X054551Y066126D01*
X054776Y065891D02*
X054776Y065591D01*
X054776Y065741D02*
X054325Y065741D01*
X054476Y065591D01*
X054551Y065431D02*
X054626Y065356D01*
X054626Y065131D01*
X054626Y065281D02*
X054776Y065431D01*
X054551Y065431D02*
X054400Y065431D01*
X054325Y065356D01*
X054325Y065131D01*
X054776Y065131D01*
X057825Y065131D02*
X057825Y065356D01*
X057900Y065431D01*
X058051Y065431D01*
X058126Y065356D01*
X058126Y065131D01*
X058126Y065281D02*
X058276Y065431D01*
X058276Y065591D02*
X058276Y065891D01*
X058276Y065741D02*
X057825Y065741D01*
X057976Y065591D01*
X057825Y066051D02*
X057825Y066351D01*
X057900Y066351D01*
X058201Y066051D01*
X058276Y066051D01*
X058276Y065131D02*
X057825Y065131D01*
X061875Y064416D02*
X061875Y064266D01*
X061950Y064191D01*
X062026Y064191D01*
X062101Y064266D01*
X062101Y064491D01*
X062251Y064491D02*
X061950Y064491D01*
X061875Y064416D01*
X062251Y064491D02*
X062326Y064416D01*
X062326Y064266D01*
X062251Y064191D01*
X062251Y064031D02*
X062326Y063956D01*
X062326Y063806D01*
X062251Y063731D01*
X061950Y063731D01*
X061875Y063806D01*
X061875Y063956D01*
X061950Y064031D01*
X063301Y066981D02*
X063226Y067056D01*
X063226Y067356D01*
X063301Y067431D01*
X063451Y067431D01*
X063526Y067356D01*
X063526Y067056D01*
X063451Y066981D01*
X063301Y066981D01*
X063376Y067131D02*
X063526Y066981D01*
X063686Y066981D02*
X063986Y067281D01*
X063986Y067356D01*
X063911Y067431D01*
X063761Y067431D01*
X063686Y067356D01*
X063686Y066981D02*
X063986Y066981D01*
X065951Y068981D02*
X066101Y068981D01*
X066176Y069056D01*
X066336Y069056D02*
X066336Y068981D01*
X066336Y069056D02*
X066636Y069356D01*
X066636Y069431D01*
X066336Y069431D01*
X066176Y069356D02*
X066101Y069431D01*
X065951Y069431D01*
X065876Y069356D01*
X065876Y069056D01*
X065951Y068981D01*
X068226Y068831D02*
X068226Y068581D01*
X068226Y067831D02*
X068226Y067581D01*
X068226Y066831D02*
X068226Y066581D01*
X068226Y065831D02*
X068226Y065581D01*
X068226Y064831D02*
X068226Y064581D01*
X068226Y063831D02*
X068226Y063706D01*
X070976Y063706D01*
X070976Y063831D01*
X070976Y064581D02*
X070976Y064831D01*
X070976Y065581D02*
X070976Y065831D01*
X070976Y066581D02*
X070976Y066831D01*
X070976Y067581D02*
X070976Y067831D01*
X070976Y068581D02*
X070976Y068831D01*
X070976Y069581D02*
X070976Y069831D01*
X070976Y070581D02*
X070976Y070831D01*
X070976Y071581D02*
X070976Y071831D01*
X070976Y072581D02*
X070976Y072831D01*
X070976Y073581D02*
X070976Y073831D01*
X070976Y074581D02*
X070976Y074831D01*
X070976Y075581D02*
X070976Y075831D01*
X070976Y076581D02*
X070976Y076831D01*
X070976Y077581D02*
X070976Y077706D01*
X070101Y077706D01*
X069601Y077206D02*
X069557Y077208D01*
X069514Y077214D01*
X069472Y077223D01*
X069430Y077236D01*
X069390Y077253D01*
X069351Y077273D01*
X069314Y077296D01*
X069280Y077323D01*
X069247Y077352D01*
X069218Y077385D01*
X069191Y077419D01*
X069168Y077456D01*
X069148Y077495D01*
X069131Y077535D01*
X069118Y077577D01*
X069109Y077619D01*
X069103Y077662D01*
X069101Y077706D01*
X068226Y077706D01*
X068226Y077581D01*
X068226Y076831D02*
X068226Y076581D01*
X068226Y075831D02*
X068226Y075581D01*
X068226Y074831D02*
X068226Y074581D01*
X068226Y073831D02*
X068226Y073581D01*
X068226Y072831D02*
X068226Y072581D01*
X068226Y071831D02*
X068226Y071581D01*
X068226Y070831D02*
X068226Y070581D01*
X068226Y069831D02*
X068226Y069581D01*
X062326Y070306D02*
X062326Y070456D01*
X062251Y070531D01*
X062251Y070691D02*
X062176Y070691D01*
X062101Y070766D01*
X062101Y070916D01*
X062176Y070991D01*
X062251Y070991D01*
X062326Y070916D01*
X062326Y070766D01*
X062251Y070691D01*
X062101Y070766D02*
X062026Y070691D01*
X061950Y070691D01*
X061875Y070766D01*
X061875Y070916D01*
X061950Y070991D01*
X062026Y070991D01*
X062101Y070916D01*
X061950Y070531D02*
X061875Y070456D01*
X061875Y070306D01*
X061950Y070231D01*
X062251Y070231D01*
X062326Y070306D01*
X063951Y077981D02*
X063876Y078056D01*
X063951Y077981D02*
X064101Y077981D01*
X064176Y078056D01*
X064176Y078131D01*
X064101Y078206D01*
X063951Y078206D01*
X063876Y078281D01*
X063876Y078356D01*
X063951Y078431D01*
X064101Y078431D01*
X064176Y078356D01*
X064336Y078356D02*
X064411Y078431D01*
X064561Y078431D01*
X064636Y078356D01*
X064636Y078281D01*
X064336Y077981D01*
X064636Y077981D01*
X069226Y078531D02*
X069226Y078981D01*
X069451Y078981D01*
X069526Y078906D01*
X069526Y078756D01*
X069451Y078681D01*
X069226Y078681D01*
X069376Y078681D02*
X069526Y078531D01*
X069686Y078606D02*
X069761Y078531D01*
X069911Y078531D01*
X069986Y078606D01*
X069986Y078756D01*
X069911Y078831D01*
X069836Y078831D01*
X069686Y078756D01*
X069686Y078981D01*
X069986Y078981D01*
X070101Y077706D02*
X070099Y077662D01*
X070093Y077619D01*
X070084Y077577D01*
X070071Y077535D01*
X070054Y077495D01*
X070034Y077456D01*
X070011Y077419D01*
X069984Y077385D01*
X069955Y077352D01*
X069922Y077323D01*
X069888Y077296D01*
X069851Y077273D01*
X069812Y077253D01*
X069772Y077236D01*
X069730Y077223D01*
X069688Y077214D01*
X069645Y077208D01*
X069601Y077206D01*
X078851Y064456D02*
X092851Y064456D01*
X092851Y052956D01*
X078851Y052956D01*
X078851Y057706D01*
X078101Y057706D01*
X078101Y059706D01*
X078851Y059706D01*
X078851Y064456D01*
X078851Y059706D02*
X078851Y057706D01*
X088375Y048666D02*
X088450Y048741D01*
X088526Y048741D01*
X088601Y048666D01*
X088676Y048741D01*
X088751Y048741D01*
X088826Y048666D01*
X088826Y048516D01*
X088751Y048441D01*
X088751Y048281D02*
X088826Y048206D01*
X088826Y048056D01*
X088751Y047981D01*
X088450Y047981D01*
X088375Y048056D01*
X088375Y048206D01*
X088450Y048281D01*
X088450Y048441D02*
X088375Y048516D01*
X088375Y048666D01*
X088601Y048666D02*
X088601Y048591D01*
X092375Y048666D02*
X092601Y048441D01*
X092601Y048741D01*
X092826Y048666D02*
X092375Y048666D01*
X092450Y048281D02*
X092375Y048206D01*
X092375Y048056D01*
X092450Y047981D01*
X092751Y047981D01*
X092826Y048056D01*
X092826Y048206D01*
X092751Y048281D01*
X095726Y048581D02*
X095726Y048831D01*
X095726Y049581D02*
X095726Y049831D01*
X095726Y050581D02*
X095726Y050831D01*
X095726Y051581D02*
X095726Y051831D01*
X095726Y052581D02*
X095726Y052831D01*
X095726Y053581D02*
X095726Y053831D01*
X095726Y054581D02*
X095726Y054706D01*
X096601Y054706D01*
X096603Y054662D01*
X096609Y054619D01*
X096618Y054577D01*
X096631Y054535D01*
X096648Y054495D01*
X096668Y054456D01*
X096691Y054419D01*
X096718Y054385D01*
X096747Y054352D01*
X096780Y054323D01*
X096814Y054296D01*
X096851Y054273D01*
X096890Y054253D01*
X096930Y054236D01*
X096972Y054223D01*
X097014Y054214D01*
X097057Y054208D01*
X097101Y054206D01*
X097145Y054208D01*
X097188Y054214D01*
X097230Y054223D01*
X097272Y054236D01*
X097312Y054253D01*
X097351Y054273D01*
X097388Y054296D01*
X097422Y054323D01*
X097455Y054352D01*
X097484Y054385D01*
X097511Y054419D01*
X097534Y054456D01*
X097554Y054495D01*
X097571Y054535D01*
X097584Y054577D01*
X097593Y054619D01*
X097599Y054662D01*
X097601Y054706D01*
X098476Y054706D01*
X098476Y054581D01*
X098476Y053831D02*
X098476Y053581D01*
X098476Y052831D02*
X098476Y052581D01*
X098476Y051831D02*
X098476Y051581D01*
X098476Y050831D02*
X098476Y050581D01*
X098476Y049831D02*
X098476Y049581D01*
X098476Y048831D02*
X098476Y048581D01*
X098476Y047831D02*
X098476Y047581D01*
X098476Y046831D02*
X098476Y046581D01*
X098476Y045831D02*
X098476Y045581D01*
X098476Y044831D02*
X098476Y044581D01*
X098476Y043831D02*
X098476Y043581D01*
X098476Y042831D02*
X098476Y042581D01*
X098476Y041831D02*
X098476Y041581D01*
X098476Y040831D02*
X098476Y040706D01*
X095726Y040706D01*
X095726Y040831D01*
X095726Y041581D02*
X095726Y041831D01*
X095726Y042581D02*
X095726Y042831D01*
X095726Y043581D02*
X095726Y043831D01*
X095726Y044581D02*
X095726Y044831D01*
X095726Y045581D02*
X095726Y045831D01*
X095726Y046581D02*
X095726Y046831D01*
X095726Y047581D02*
X095726Y047831D01*
X090286Y045381D02*
X090286Y044931D01*
X090136Y044931D02*
X090436Y044931D01*
X090136Y045231D02*
X090286Y045381D01*
X089976Y045306D02*
X089976Y045006D01*
X089901Y044931D01*
X089751Y044931D01*
X089676Y045006D01*
X089676Y045306D01*
X089751Y045381D01*
X089901Y045381D01*
X089976Y045306D01*
X089826Y045081D02*
X089976Y044931D01*
X088826Y042241D02*
X088826Y041941D01*
X088526Y042241D01*
X088450Y042241D01*
X088375Y042166D01*
X088375Y042016D01*
X088450Y041941D01*
X088450Y041781D02*
X088375Y041706D01*
X088375Y041556D01*
X088450Y041481D01*
X088751Y041481D01*
X088826Y041556D01*
X088826Y041706D01*
X088751Y041781D01*
X105126Y049056D02*
X105201Y048981D01*
X105351Y048981D01*
X105426Y049056D01*
X105586Y049056D02*
X105661Y048981D01*
X105811Y048981D01*
X105886Y049056D01*
X105886Y049206D01*
X105811Y049281D01*
X105736Y049281D01*
X105586Y049206D01*
X105586Y049431D01*
X105886Y049431D01*
X105426Y049356D02*
X105351Y049431D01*
X105201Y049431D01*
X105126Y049356D01*
X105126Y049056D01*
X107101Y046656D02*
X114101Y046656D01*
X114101Y060406D01*
X107101Y060406D01*
X107101Y046656D01*
X097586Y056031D02*
X097286Y056031D01*
X097436Y056031D02*
X097436Y056481D01*
X097286Y056331D01*
X097126Y056406D02*
X097126Y056256D01*
X097051Y056181D01*
X096826Y056181D01*
X096976Y056181D02*
X097126Y056031D01*
X096826Y056031D02*
X096826Y056481D01*
X097051Y056481D01*
X097126Y056406D01*
X097186Y058531D02*
X097486Y058531D01*
X097336Y058531D02*
X097336Y058981D01*
X097186Y058831D01*
X097026Y058906D02*
X096951Y058981D01*
X096801Y058981D01*
X096726Y058906D01*
X096726Y058831D01*
X096801Y058756D01*
X096951Y058756D01*
X097026Y058681D01*
X097026Y058606D01*
X096951Y058531D01*
X096801Y058531D01*
X096726Y058606D01*
X094751Y068606D02*
X087751Y068606D01*
X087751Y080006D01*
X094751Y080006D01*
X094751Y068606D01*
X095951Y071981D02*
X096101Y071981D01*
X096176Y072056D01*
X096336Y071981D02*
X096636Y071981D01*
X096486Y071981D02*
X096486Y072431D01*
X096336Y072281D01*
X096176Y072356D02*
X096101Y072431D01*
X095951Y072431D01*
X095876Y072356D01*
X095876Y072056D01*
X095951Y071981D01*
X103876Y073056D02*
X103951Y072981D01*
X104101Y072981D01*
X104176Y073056D01*
X104336Y073056D02*
X104411Y072981D01*
X104561Y072981D01*
X104636Y073056D01*
X104636Y073131D01*
X104561Y073206D01*
X104336Y073206D01*
X104336Y073056D01*
X104336Y073206D02*
X104486Y073356D01*
X104636Y073431D01*
X104176Y073356D02*
X104101Y073431D01*
X103951Y073431D01*
X103876Y073356D01*
X103876Y073056D01*
X009166Y077606D02*
X009090Y077531D01*
X008940Y077531D01*
X008865Y077606D01*
X008705Y077531D02*
X008405Y077531D01*
X008555Y077531D02*
X008555Y077981D01*
X008405Y077831D01*
X008245Y077981D02*
X008245Y077531D01*
X007945Y077981D01*
X007945Y077531D01*
X007784Y077606D02*
X007709Y077531D01*
X007559Y077531D01*
X007484Y077606D01*
X007484Y077906D01*
X007559Y077981D01*
X007709Y077981D01*
X007784Y077906D01*
X007784Y077606D01*
X007324Y077606D02*
X007249Y077531D01*
X007099Y077531D01*
X007024Y077606D01*
X007024Y077906D01*
X007099Y077981D01*
X007249Y077981D01*
X007324Y077906D01*
X008865Y077906D02*
X008940Y077981D01*
X009090Y077981D01*
X009166Y077906D01*
X009166Y077831D01*
X009090Y077756D01*
X009166Y077681D01*
X009166Y077606D01*
X009090Y077756D02*
X009015Y077756D01*
X009000Y057662D02*
X009076Y057662D01*
X009151Y057587D01*
X009226Y057662D01*
X009301Y057662D01*
X009376Y057587D01*
X009376Y057437D01*
X009301Y057362D01*
X009376Y057201D02*
X008925Y057201D01*
X009000Y057362D02*
X008925Y057437D01*
X008925Y057587D01*
X009000Y057662D01*
X009151Y057587D02*
X009151Y057512D01*
X009376Y057201D02*
X008925Y056901D01*
X009376Y056901D01*
X009301Y056741D02*
X009000Y056741D01*
X008925Y056666D01*
X008925Y056516D01*
X009000Y056441D01*
X009301Y056441D01*
X009376Y056516D01*
X009376Y056666D01*
X009301Y056741D01*
X009301Y056281D02*
X009376Y056206D01*
X009376Y056056D01*
X009301Y055981D01*
X009000Y055981D01*
X008925Y056056D01*
X008925Y056206D01*
X009000Y056281D01*
D18*
X062601Y063456D02*
X062601Y064456D01*
X064601Y064456D01*
X064601Y063456D01*
X062601Y063456D01*
X063601Y063706D02*
X063601Y064206D01*
X062701Y065856D02*
X062703Y065797D01*
X062709Y065739D01*
X062718Y065680D01*
X062732Y065623D01*
X062749Y065567D01*
X062770Y065512D01*
X062794Y065458D01*
X062822Y065406D01*
X062853Y065356D01*
X062887Y065308D01*
X062924Y065263D01*
X062965Y065220D01*
X063008Y065179D01*
X063053Y065142D01*
X063101Y065108D01*
X063151Y065077D01*
X063203Y065049D01*
X063257Y065025D01*
X063312Y065004D01*
X063368Y064987D01*
X063425Y064973D01*
X063484Y064964D01*
X063542Y064958D01*
X063601Y064956D01*
X063660Y064958D01*
X063718Y064964D01*
X063777Y064973D01*
X063834Y064987D01*
X063890Y065004D01*
X063945Y065025D01*
X063999Y065049D01*
X064051Y065077D01*
X064101Y065108D01*
X064149Y065142D01*
X064194Y065179D01*
X064237Y065220D01*
X064278Y065263D01*
X064315Y065308D01*
X064349Y065356D01*
X064380Y065406D01*
X064408Y065458D01*
X064432Y065512D01*
X064453Y065567D01*
X064470Y065623D01*
X064484Y065680D01*
X064493Y065739D01*
X064499Y065797D01*
X064501Y065856D01*
X064501Y068556D01*
X064499Y068615D01*
X064493Y068673D01*
X064484Y068732D01*
X064470Y068789D01*
X064453Y068845D01*
X064432Y068900D01*
X064408Y068954D01*
X064380Y069006D01*
X064349Y069056D01*
X064315Y069104D01*
X064278Y069149D01*
X064237Y069192D01*
X064194Y069233D01*
X064149Y069270D01*
X064101Y069304D01*
X064051Y069335D01*
X063999Y069363D01*
X063945Y069387D01*
X063890Y069408D01*
X063834Y069425D01*
X063777Y069439D01*
X063718Y069448D01*
X063660Y069454D01*
X063601Y069456D01*
X063542Y069454D01*
X063484Y069448D01*
X063425Y069439D01*
X063368Y069425D01*
X063312Y069408D01*
X063257Y069387D01*
X063203Y069363D01*
X063151Y069335D01*
X063101Y069304D01*
X063053Y069270D01*
X063008Y069233D01*
X062965Y069192D01*
X062924Y069149D01*
X062887Y069104D01*
X062853Y069056D01*
X062822Y069006D01*
X062794Y068954D01*
X062770Y068900D01*
X062749Y068845D01*
X062732Y068789D01*
X062718Y068732D01*
X062709Y068673D01*
X062703Y068615D01*
X062701Y068556D01*
X062701Y065856D01*
X062601Y069956D02*
X062601Y070956D01*
X064601Y070956D01*
X064601Y069956D01*
X062601Y069956D01*
X063601Y070206D02*
X063601Y070706D01*
X065601Y069706D02*
X065601Y071706D01*
X066601Y071706D01*
X066601Y069706D01*
X065601Y069706D01*
X065851Y070706D02*
X066351Y070706D01*
X064951Y077006D02*
X063251Y077006D01*
X062901Y077806D02*
X062901Y078610D01*
X063251Y079406D02*
X064951Y079406D01*
X065301Y078598D02*
X065301Y077806D01*
X063401Y078206D02*
X063403Y078258D01*
X063409Y078310D01*
X063419Y078362D01*
X063432Y078412D01*
X063449Y078462D01*
X063470Y078510D01*
X063495Y078556D01*
X063523Y078600D01*
X063554Y078642D01*
X063588Y078682D01*
X063625Y078719D01*
X063665Y078753D01*
X063707Y078784D01*
X063751Y078812D01*
X063797Y078837D01*
X063845Y078858D01*
X063895Y078875D01*
X063945Y078888D01*
X063997Y078898D01*
X064049Y078904D01*
X064101Y078906D01*
X064153Y078904D01*
X064205Y078898D01*
X064257Y078888D01*
X064307Y078875D01*
X064357Y078858D01*
X064405Y078837D01*
X064451Y078812D01*
X064495Y078784D01*
X064537Y078753D01*
X064577Y078719D01*
X064614Y078682D01*
X064648Y078642D01*
X064679Y078600D01*
X064707Y078556D01*
X064732Y078510D01*
X064753Y078462D01*
X064770Y078412D01*
X064783Y078362D01*
X064793Y078310D01*
X064799Y078258D01*
X064801Y078206D01*
X064799Y078154D01*
X064793Y078102D01*
X064783Y078050D01*
X064770Y078000D01*
X064753Y077950D01*
X064732Y077902D01*
X064707Y077856D01*
X064679Y077812D01*
X064648Y077770D01*
X064614Y077730D01*
X064577Y077693D01*
X064537Y077659D01*
X064495Y077628D01*
X064451Y077600D01*
X064405Y077575D01*
X064357Y077554D01*
X064307Y077537D01*
X064257Y077524D01*
X064205Y077514D01*
X064153Y077508D01*
X064101Y077506D01*
X064049Y077508D01*
X063997Y077514D01*
X063945Y077524D01*
X063895Y077537D01*
X063845Y077554D01*
X063797Y077575D01*
X063751Y077600D01*
X063707Y077628D01*
X063665Y077659D01*
X063625Y077693D01*
X063588Y077730D01*
X063554Y077770D01*
X063523Y077812D01*
X063495Y077856D01*
X063470Y077902D01*
X063449Y077950D01*
X063432Y078000D01*
X063419Y078050D01*
X063409Y078102D01*
X063403Y078154D01*
X063401Y078206D01*
X077624Y074977D02*
X085577Y074977D01*
X085577Y071434D01*
X082467Y071434D01*
X082467Y072024D01*
X080735Y072024D01*
X080735Y071434D01*
X077624Y071434D01*
X077624Y074938D01*
X079351Y072113D02*
X079851Y072113D01*
X080735Y071434D02*
X082467Y071434D01*
X095601Y071706D02*
X095601Y069706D01*
X096601Y069706D01*
X096601Y071706D01*
X095601Y071706D01*
X095851Y070706D02*
X096351Y070706D01*
X103601Y070706D02*
X103601Y072706D01*
X104601Y072706D01*
X104601Y070706D01*
X103601Y070706D01*
X103851Y071706D02*
X104351Y071706D01*
X105278Y069251D02*
X105278Y068956D01*
X114924Y068956D01*
X114924Y069251D01*
X113939Y069251D01*
X113939Y077322D01*
X114924Y077322D01*
X114924Y069251D01*
X106262Y069251D02*
X106262Y077322D01*
X105278Y077322D01*
X105278Y069251D01*
X106262Y069251D01*
X097951Y059906D02*
X096251Y059906D01*
X095901Y059110D02*
X095901Y058306D01*
X096251Y057506D02*
X097951Y057506D01*
X098301Y058306D02*
X098301Y059098D01*
X096401Y058706D02*
X096403Y058758D01*
X096409Y058810D01*
X096419Y058862D01*
X096432Y058912D01*
X096449Y058962D01*
X096470Y059010D01*
X096495Y059056D01*
X096523Y059100D01*
X096554Y059142D01*
X096588Y059182D01*
X096625Y059219D01*
X096665Y059253D01*
X096707Y059284D01*
X096751Y059312D01*
X096797Y059337D01*
X096845Y059358D01*
X096895Y059375D01*
X096945Y059388D01*
X096997Y059398D01*
X097049Y059404D01*
X097101Y059406D01*
X097153Y059404D01*
X097205Y059398D01*
X097257Y059388D01*
X097307Y059375D01*
X097357Y059358D01*
X097405Y059337D01*
X097451Y059312D01*
X097495Y059284D01*
X097537Y059253D01*
X097577Y059219D01*
X097614Y059182D01*
X097648Y059142D01*
X097679Y059100D01*
X097707Y059056D01*
X097732Y059010D01*
X097753Y058962D01*
X097770Y058912D01*
X097783Y058862D01*
X097793Y058810D01*
X097799Y058758D01*
X097801Y058706D01*
X097799Y058654D01*
X097793Y058602D01*
X097783Y058550D01*
X097770Y058500D01*
X097753Y058450D01*
X097732Y058402D01*
X097707Y058356D01*
X097679Y058312D01*
X097648Y058270D01*
X097614Y058230D01*
X097577Y058193D01*
X097537Y058159D01*
X097495Y058128D01*
X097451Y058100D01*
X097405Y058075D01*
X097357Y058054D01*
X097307Y058037D01*
X097257Y058024D01*
X097205Y058014D01*
X097153Y058008D01*
X097101Y058006D01*
X097049Y058008D01*
X096997Y058014D01*
X096945Y058024D01*
X096895Y058037D01*
X096845Y058054D01*
X096797Y058075D01*
X096751Y058100D01*
X096707Y058128D01*
X096665Y058159D01*
X096625Y058193D01*
X096588Y058230D01*
X096554Y058270D01*
X096523Y058312D01*
X096495Y058356D01*
X096470Y058402D01*
X096449Y058450D01*
X096432Y058500D01*
X096419Y058550D01*
X096409Y058602D01*
X096403Y058654D01*
X096401Y058706D01*
X105101Y051706D02*
X106101Y051706D01*
X106101Y049706D01*
X105101Y049706D01*
X105101Y051706D01*
X105351Y050706D02*
X105851Y050706D01*
X094101Y048706D02*
X094101Y046706D01*
X093101Y046706D01*
X093101Y048706D01*
X094101Y048706D01*
X093851Y047706D02*
X093351Y047706D01*
X091101Y047956D02*
X091101Y048956D01*
X089101Y048956D01*
X089101Y047956D01*
X091101Y047956D01*
X090101Y048206D02*
X090101Y048706D01*
X091001Y046556D02*
X090999Y046615D01*
X090993Y046673D01*
X090984Y046732D01*
X090970Y046789D01*
X090953Y046845D01*
X090932Y046900D01*
X090908Y046954D01*
X090880Y047006D01*
X090849Y047056D01*
X090815Y047104D01*
X090778Y047149D01*
X090737Y047192D01*
X090694Y047233D01*
X090649Y047270D01*
X090601Y047304D01*
X090551Y047335D01*
X090499Y047363D01*
X090445Y047387D01*
X090390Y047408D01*
X090334Y047425D01*
X090277Y047439D01*
X090218Y047448D01*
X090160Y047454D01*
X090101Y047456D01*
X090042Y047454D01*
X089984Y047448D01*
X089925Y047439D01*
X089868Y047425D01*
X089812Y047408D01*
X089757Y047387D01*
X089703Y047363D01*
X089651Y047335D01*
X089601Y047304D01*
X089553Y047270D01*
X089508Y047233D01*
X089465Y047192D01*
X089424Y047149D01*
X089387Y047104D01*
X089353Y047056D01*
X089322Y047006D01*
X089294Y046954D01*
X089270Y046900D01*
X089249Y046845D01*
X089232Y046789D01*
X089218Y046732D01*
X089209Y046673D01*
X089203Y046615D01*
X089201Y046556D01*
X089201Y043856D01*
X089203Y043797D01*
X089209Y043739D01*
X089218Y043680D01*
X089232Y043623D01*
X089249Y043567D01*
X089270Y043512D01*
X089294Y043458D01*
X089322Y043406D01*
X089353Y043356D01*
X089387Y043308D01*
X089424Y043263D01*
X089465Y043220D01*
X089508Y043179D01*
X089553Y043142D01*
X089601Y043108D01*
X089651Y043077D01*
X089703Y043049D01*
X089757Y043025D01*
X089812Y043004D01*
X089868Y042987D01*
X089925Y042973D01*
X089984Y042964D01*
X090042Y042958D01*
X090101Y042956D01*
X090160Y042958D01*
X090218Y042964D01*
X090277Y042973D01*
X090334Y042987D01*
X090390Y043004D01*
X090445Y043025D01*
X090499Y043049D01*
X090551Y043077D01*
X090601Y043108D01*
X090649Y043142D01*
X090694Y043179D01*
X090737Y043220D01*
X090778Y043263D01*
X090815Y043308D01*
X090849Y043356D01*
X090880Y043406D01*
X090908Y043458D01*
X090932Y043512D01*
X090953Y043567D01*
X090970Y043623D01*
X090984Y043680D01*
X090993Y043739D01*
X090999Y043797D01*
X091001Y043856D01*
X091001Y046556D01*
X091101Y042456D02*
X089101Y042456D01*
X089101Y041456D01*
X091101Y041456D01*
X091101Y042456D01*
X090101Y042206D02*
X090101Y041706D01*
X104624Y040977D02*
X112577Y040977D01*
X112577Y037434D01*
X109467Y037434D01*
X109467Y038024D01*
X107735Y038024D01*
X107735Y037434D01*
X104624Y037434D01*
X104624Y040938D01*
X106351Y038113D02*
X106851Y038113D01*
X107735Y037434D02*
X109467Y037434D01*
X097601Y004456D02*
X097601Y002956D01*
X093101Y002956D02*
X093101Y004456D01*
X088601Y004456D02*
X088601Y002956D01*
X084101Y002956D02*
X084101Y004456D01*
X079601Y004456D02*
X079601Y002956D01*
X075101Y002956D02*
X075101Y004456D01*
X070601Y004456D02*
X070601Y002956D01*
X066101Y002956D02*
X066101Y004456D01*
X061601Y004456D02*
X061601Y002956D01*
X038963Y004083D02*
X038963Y001328D01*
X034239Y001328D01*
X034239Y004083D01*
X033963Y004083D02*
X033963Y001328D01*
X029239Y001328D01*
X029239Y004083D01*
X029239Y005265D02*
X029239Y005658D01*
X033963Y005658D01*
X033963Y005265D01*
X034239Y005265D02*
X034239Y005658D01*
X038963Y005658D01*
X038963Y005265D01*
X107857Y079585D02*
X108132Y079822D01*
X112069Y079822D01*
X112345Y079585D01*
D19*
X098251Y056656D02*
X098101Y056656D01*
X098051Y056606D01*
X096151Y056606D01*
X096101Y056656D01*
X095951Y056656D01*
X095934Y056654D01*
X095917Y056650D01*
X095901Y056643D01*
X095887Y056633D01*
X095874Y056620D01*
X095864Y056606D01*
X095857Y056590D01*
X095853Y056573D01*
X095851Y056556D01*
X095851Y055856D01*
X095853Y055839D01*
X095857Y055822D01*
X095864Y055806D01*
X095874Y055792D01*
X095887Y055779D01*
X095901Y055769D01*
X095917Y055762D01*
X095934Y055758D01*
X095951Y055756D01*
X096101Y055756D01*
X096151Y055806D01*
X098051Y055806D01*
X098101Y055756D01*
X098251Y055756D01*
X098268Y055758D01*
X098285Y055762D01*
X098301Y055769D01*
X098315Y055779D01*
X098328Y055792D01*
X098338Y055806D01*
X098345Y055822D01*
X098349Y055839D01*
X098351Y055856D01*
X098351Y056556D01*
X098349Y056573D01*
X098345Y056590D01*
X098338Y056606D01*
X098328Y056620D01*
X098315Y056633D01*
X098301Y056643D01*
X098285Y056650D01*
X098268Y056654D01*
X098251Y056656D01*
X070851Y078356D02*
X070851Y079056D01*
X070849Y079073D01*
X070845Y079090D01*
X070838Y079106D01*
X070828Y079120D01*
X070815Y079133D01*
X070801Y079143D01*
X070785Y079150D01*
X070768Y079154D01*
X070751Y079156D01*
X070601Y079156D01*
X070551Y079106D01*
X068651Y079106D01*
X068601Y079156D01*
X068451Y079156D01*
X068434Y079154D01*
X068417Y079150D01*
X068401Y079143D01*
X068387Y079133D01*
X068374Y079120D01*
X068364Y079106D01*
X068357Y079090D01*
X068353Y079073D01*
X068351Y079056D01*
X068351Y078356D01*
X068353Y078339D01*
X068357Y078322D01*
X068364Y078306D01*
X068374Y078292D01*
X068387Y078279D01*
X068401Y078269D01*
X068417Y078262D01*
X068434Y078258D01*
X068451Y078256D01*
X068601Y078256D01*
X068651Y078306D01*
X070551Y078306D01*
X070601Y078256D01*
X070751Y078256D01*
X070768Y078258D01*
X070785Y078262D01*
X070801Y078269D01*
X070815Y078279D01*
X070828Y078292D01*
X070838Y078306D01*
X070845Y078322D01*
X070849Y078339D01*
X070851Y078356D01*
X058451Y066956D02*
X057751Y066956D01*
X057734Y066954D01*
X057717Y066950D01*
X057701Y066943D01*
X057687Y066933D01*
X057674Y066920D01*
X057664Y066906D01*
X057657Y066890D01*
X057653Y066873D01*
X057651Y066856D01*
X057651Y066706D01*
X057701Y066656D01*
X057701Y064756D01*
X057651Y064706D01*
X057651Y064556D01*
X057653Y064539D01*
X057657Y064522D01*
X057664Y064506D01*
X057674Y064492D01*
X057687Y064479D01*
X057701Y064469D01*
X057717Y064462D01*
X057734Y064458D01*
X057751Y064456D01*
X058451Y064456D01*
X058468Y064458D01*
X058485Y064462D01*
X058501Y064469D01*
X058515Y064479D01*
X058528Y064492D01*
X058538Y064506D01*
X058545Y064522D01*
X058549Y064539D01*
X058551Y064556D01*
X058551Y064706D01*
X058501Y064756D01*
X058501Y066656D01*
X058551Y066706D01*
X058551Y066856D01*
X058549Y066873D01*
X058545Y066890D01*
X058538Y066906D01*
X058528Y066920D01*
X058515Y066933D01*
X058501Y066943D01*
X058485Y066950D01*
X058468Y066954D01*
X058451Y066956D01*
X055051Y066856D02*
X055051Y066706D01*
X055001Y066656D01*
X055001Y064756D01*
X055051Y064706D01*
X055051Y064556D01*
X055049Y064539D01*
X055045Y064522D01*
X055038Y064506D01*
X055028Y064492D01*
X055015Y064479D01*
X055001Y064469D01*
X054985Y064462D01*
X054968Y064458D01*
X054951Y064456D01*
X054251Y064456D01*
X054234Y064458D01*
X054217Y064462D01*
X054201Y064469D01*
X054187Y064479D01*
X054174Y064492D01*
X054164Y064506D01*
X054157Y064522D01*
X054153Y064539D01*
X054151Y064556D01*
X054151Y064706D01*
X054201Y064756D01*
X054201Y066656D01*
X054151Y066706D01*
X054151Y066856D01*
X054153Y066873D01*
X054157Y066890D01*
X054164Y066906D01*
X054174Y066920D01*
X054187Y066933D01*
X054201Y066943D01*
X054217Y066950D01*
X054234Y066954D01*
X054251Y066956D01*
X054951Y066956D01*
X054968Y066954D01*
X054985Y066950D01*
X055001Y066943D01*
X055015Y066933D01*
X055028Y066920D01*
X055038Y066906D01*
X055045Y066890D01*
X055049Y066873D01*
X055051Y066856D01*
X051051Y069556D02*
X051051Y069706D01*
X051001Y069756D01*
X051001Y071656D01*
X051051Y071706D01*
X051051Y071856D01*
X051049Y071873D01*
X051045Y071890D01*
X051038Y071906D01*
X051028Y071920D01*
X051015Y071933D01*
X051001Y071943D01*
X050985Y071950D01*
X050968Y071954D01*
X050951Y071956D01*
X050251Y071956D01*
X050234Y071954D01*
X050217Y071950D01*
X050201Y071943D01*
X050187Y071933D01*
X050174Y071920D01*
X050164Y071906D01*
X050157Y071890D01*
X050153Y071873D01*
X050151Y071856D01*
X050151Y071706D01*
X050201Y071656D01*
X050201Y069756D01*
X050151Y069706D01*
X050151Y069556D01*
X050153Y069539D01*
X050157Y069522D01*
X050164Y069506D01*
X050174Y069492D01*
X050187Y069479D01*
X050201Y069469D01*
X050217Y069462D01*
X050234Y069458D01*
X050251Y069456D01*
X050951Y069456D01*
X050968Y069458D01*
X050985Y069462D01*
X051001Y069469D01*
X051015Y069479D01*
X051028Y069492D01*
X051038Y069506D01*
X051045Y069522D01*
X051049Y069539D01*
X051051Y069556D01*
X026551Y069356D02*
X026551Y069206D01*
X026501Y069156D01*
X026501Y067256D01*
X026551Y067206D01*
X026551Y067056D01*
X026549Y067039D01*
X026545Y067022D01*
X026538Y067006D01*
X026528Y066992D01*
X026515Y066979D01*
X026501Y066969D01*
X026485Y066962D01*
X026468Y066958D01*
X026451Y066956D01*
X025751Y066956D01*
X025734Y066958D01*
X025717Y066962D01*
X025701Y066969D01*
X025687Y066979D01*
X025674Y066992D01*
X025664Y067006D01*
X025657Y067022D01*
X025653Y067039D01*
X025651Y067056D01*
X025651Y067206D01*
X025701Y067256D01*
X025701Y069156D01*
X025651Y069206D01*
X025651Y069356D01*
X025653Y069373D01*
X025657Y069390D01*
X025664Y069406D01*
X025674Y069420D01*
X025687Y069433D01*
X025701Y069443D01*
X025717Y069450D01*
X025734Y069454D01*
X025751Y069456D01*
X026451Y069456D01*
X026468Y069454D01*
X026485Y069450D01*
X026501Y069443D01*
X026515Y069433D01*
X026528Y069420D01*
X026538Y069406D01*
X026545Y069390D01*
X026549Y069373D01*
X026551Y069356D01*
X025051Y069356D02*
X025051Y069206D01*
X025001Y069156D01*
X025001Y067256D01*
X025051Y067206D01*
X025051Y067056D01*
X025049Y067039D01*
X025045Y067022D01*
X025038Y067006D01*
X025028Y066992D01*
X025015Y066979D01*
X025001Y066969D01*
X024985Y066962D01*
X024968Y066958D01*
X024951Y066956D01*
X024251Y066956D01*
X024234Y066958D01*
X024217Y066962D01*
X024201Y066969D01*
X024187Y066979D01*
X024174Y066992D01*
X024164Y067006D01*
X024157Y067022D01*
X024153Y067039D01*
X024151Y067056D01*
X024151Y067206D01*
X024201Y067256D01*
X024201Y069156D01*
X024151Y069206D01*
X024151Y069356D01*
X024153Y069373D01*
X024157Y069390D01*
X024164Y069406D01*
X024174Y069420D01*
X024187Y069433D01*
X024201Y069443D01*
X024217Y069450D01*
X024234Y069454D01*
X024251Y069456D01*
X024951Y069456D01*
X024968Y069454D01*
X024985Y069450D01*
X025001Y069443D01*
X025015Y069433D01*
X025028Y069420D01*
X025038Y069406D01*
X025045Y069390D01*
X025049Y069373D01*
X025051Y069356D01*
X023551Y069356D02*
X023551Y069206D01*
X023501Y069156D01*
X023501Y067256D01*
X023551Y067206D01*
X023551Y067056D01*
X023549Y067039D01*
X023545Y067022D01*
X023538Y067006D01*
X023528Y066992D01*
X023515Y066979D01*
X023501Y066969D01*
X023485Y066962D01*
X023468Y066958D01*
X023451Y066956D01*
X022751Y066956D01*
X022734Y066958D01*
X022717Y066962D01*
X022701Y066969D01*
X022687Y066979D01*
X022674Y066992D01*
X022664Y067006D01*
X022657Y067022D01*
X022653Y067039D01*
X022651Y067056D01*
X022651Y067206D01*
X022701Y067256D01*
X022701Y069156D01*
X022651Y069206D01*
X022651Y069356D01*
X022653Y069373D01*
X022657Y069390D01*
X022664Y069406D01*
X022674Y069420D01*
X022687Y069433D01*
X022701Y069443D01*
X022717Y069450D01*
X022734Y069454D01*
X022751Y069456D01*
X023451Y069456D01*
X023468Y069454D01*
X023485Y069450D01*
X023501Y069443D01*
X023515Y069433D01*
X023528Y069420D01*
X023538Y069406D01*
X023545Y069390D01*
X023549Y069373D01*
X023551Y069356D01*
X022051Y069356D02*
X022051Y069206D01*
X022001Y069156D01*
X022001Y067256D01*
X022051Y067206D01*
X022051Y067056D01*
X022049Y067039D01*
X022045Y067022D01*
X022038Y067006D01*
X022028Y066992D01*
X022015Y066979D01*
X022001Y066969D01*
X021985Y066962D01*
X021968Y066958D01*
X021951Y066956D01*
X021251Y066956D01*
X021234Y066958D01*
X021217Y066962D01*
X021201Y066969D01*
X021187Y066979D01*
X021174Y066992D01*
X021164Y067006D01*
X021157Y067022D01*
X021153Y067039D01*
X021151Y067056D01*
X021151Y067206D01*
X021201Y067256D01*
X021201Y069156D01*
X021151Y069206D01*
X021151Y069356D01*
X021153Y069373D01*
X021157Y069390D01*
X021164Y069406D01*
X021174Y069420D01*
X021187Y069433D01*
X021201Y069443D01*
X021217Y069450D01*
X021234Y069454D01*
X021251Y069456D01*
X021951Y069456D01*
X021968Y069454D01*
X021985Y069450D01*
X022001Y069443D01*
X022015Y069433D01*
X022028Y069420D01*
X022038Y069406D01*
X022045Y069390D01*
X022049Y069373D01*
X022051Y069356D01*
X020551Y069356D02*
X020551Y069206D01*
X020501Y069156D01*
X020501Y067256D01*
X020551Y067206D01*
X020551Y067056D01*
X020549Y067039D01*
X020545Y067022D01*
X020538Y067006D01*
X020528Y066992D01*
X020515Y066979D01*
X020501Y066969D01*
X020485Y066962D01*
X020468Y066958D01*
X020451Y066956D01*
X019751Y066956D01*
X019734Y066958D01*
X019717Y066962D01*
X019701Y066969D01*
X019687Y066979D01*
X019674Y066992D01*
X019664Y067006D01*
X019657Y067022D01*
X019653Y067039D01*
X019651Y067056D01*
X019651Y067206D01*
X019701Y067256D01*
X019701Y069156D01*
X019651Y069206D01*
X019651Y069356D01*
X019653Y069373D01*
X019657Y069390D01*
X019664Y069406D01*
X019674Y069420D01*
X019687Y069433D01*
X019701Y069443D01*
X019717Y069450D01*
X019734Y069454D01*
X019751Y069456D01*
X020451Y069456D01*
X020468Y069454D01*
X020485Y069450D01*
X020501Y069443D01*
X020515Y069433D01*
X020528Y069420D01*
X020538Y069406D01*
X020545Y069390D01*
X020549Y069373D01*
X020551Y069356D01*
X019051Y069356D02*
X019051Y069206D01*
X019001Y069156D01*
X019001Y067256D01*
X019051Y067206D01*
X019051Y067056D01*
X019049Y067039D01*
X019045Y067022D01*
X019038Y067006D01*
X019028Y066992D01*
X019015Y066979D01*
X019001Y066969D01*
X018985Y066962D01*
X018968Y066958D01*
X018951Y066956D01*
X018251Y066956D01*
X018234Y066958D01*
X018217Y066962D01*
X018201Y066969D01*
X018187Y066979D01*
X018174Y066992D01*
X018164Y067006D01*
X018157Y067022D01*
X018153Y067039D01*
X018151Y067056D01*
X018151Y067206D01*
X018201Y067256D01*
X018201Y069156D01*
X018151Y069206D01*
X018151Y069356D01*
X018153Y069373D01*
X018157Y069390D01*
X018164Y069406D01*
X018174Y069420D01*
X018187Y069433D01*
X018201Y069443D01*
X018217Y069450D01*
X018234Y069454D01*
X018251Y069456D01*
X018951Y069456D01*
X018968Y069454D01*
X018985Y069450D01*
X019001Y069443D01*
X019015Y069433D01*
X019028Y069420D01*
X019038Y069406D01*
X019045Y069390D01*
X019049Y069373D01*
X019051Y069356D01*
X017551Y069356D02*
X017551Y069206D01*
X017501Y069156D01*
X017501Y067256D01*
X017551Y067206D01*
X017551Y067056D01*
X017549Y067039D01*
X017545Y067022D01*
X017538Y067006D01*
X017528Y066992D01*
X017515Y066979D01*
X017501Y066969D01*
X017485Y066962D01*
X017468Y066958D01*
X017451Y066956D01*
X016751Y066956D01*
X016734Y066958D01*
X016717Y066962D01*
X016701Y066969D01*
X016687Y066979D01*
X016674Y066992D01*
X016664Y067006D01*
X016657Y067022D01*
X016653Y067039D01*
X016651Y067056D01*
X016651Y067206D01*
X016701Y067256D01*
X016701Y069156D01*
X016651Y069206D01*
X016651Y069356D01*
X016653Y069373D01*
X016657Y069390D01*
X016664Y069406D01*
X016674Y069420D01*
X016687Y069433D01*
X016701Y069443D01*
X016717Y069450D01*
X016734Y069454D01*
X016751Y069456D01*
X017451Y069456D01*
X017468Y069454D01*
X017485Y069450D01*
X017501Y069443D01*
X017515Y069433D01*
X017528Y069420D01*
X017538Y069406D01*
X017545Y069390D01*
X017549Y069373D01*
X017551Y069356D01*
X016051Y069356D02*
X016051Y069206D01*
X016001Y069156D01*
X016001Y067256D01*
X016051Y067206D01*
X016051Y067056D01*
X016049Y067039D01*
X016045Y067022D01*
X016038Y067006D01*
X016028Y066992D01*
X016015Y066979D01*
X016001Y066969D01*
X015985Y066962D01*
X015968Y066958D01*
X015951Y066956D01*
X015251Y066956D01*
X015234Y066958D01*
X015217Y066962D01*
X015201Y066969D01*
X015187Y066979D01*
X015174Y066992D01*
X015164Y067006D01*
X015157Y067022D01*
X015153Y067039D01*
X015151Y067056D01*
X015151Y067206D01*
X015201Y067256D01*
X015201Y069156D01*
X015151Y069206D01*
X015151Y069356D01*
X015153Y069373D01*
X015157Y069390D01*
X015164Y069406D01*
X015174Y069420D01*
X015187Y069433D01*
X015201Y069443D01*
X015217Y069450D01*
X015234Y069454D01*
X015251Y069456D01*
X015951Y069456D01*
X015968Y069454D01*
X015985Y069450D01*
X016001Y069443D01*
X016015Y069433D01*
X016028Y069420D01*
X016038Y069406D01*
X016045Y069390D01*
X016049Y069373D01*
X016051Y069356D01*
X014551Y069356D02*
X014551Y069206D01*
X014501Y069156D01*
X014501Y067256D01*
X014551Y067206D01*
X014551Y067056D01*
X014549Y067039D01*
X014545Y067022D01*
X014538Y067006D01*
X014528Y066992D01*
X014515Y066979D01*
X014501Y066969D01*
X014485Y066962D01*
X014468Y066958D01*
X014451Y066956D01*
X013751Y066956D01*
X013734Y066958D01*
X013717Y066962D01*
X013701Y066969D01*
X013687Y066979D01*
X013674Y066992D01*
X013664Y067006D01*
X013657Y067022D01*
X013653Y067039D01*
X013651Y067056D01*
X013651Y067206D01*
X013701Y067256D01*
X013701Y069156D01*
X013651Y069206D01*
X013651Y069356D01*
X013653Y069373D01*
X013657Y069390D01*
X013664Y069406D01*
X013674Y069420D01*
X013687Y069433D01*
X013701Y069443D01*
X013717Y069450D01*
X013734Y069454D01*
X013751Y069456D01*
X014451Y069456D01*
X014468Y069454D01*
X014485Y069450D01*
X014501Y069443D01*
X014515Y069433D01*
X014528Y069420D01*
X014538Y069406D01*
X014545Y069390D01*
X014549Y069373D01*
X014551Y069356D01*
X013051Y069356D02*
X013051Y069206D01*
X013001Y069156D01*
X013001Y067256D01*
X013051Y067206D01*
X013051Y067056D01*
X013049Y067039D01*
X013045Y067022D01*
X013038Y067006D01*
X013028Y066992D01*
X013015Y066979D01*
X013001Y066969D01*
X012985Y066962D01*
X012968Y066958D01*
X012951Y066956D01*
X012251Y066956D01*
X012234Y066958D01*
X012217Y066962D01*
X012201Y066969D01*
X012187Y066979D01*
X012174Y066992D01*
X012164Y067006D01*
X012157Y067022D01*
X012153Y067039D01*
X012151Y067056D01*
X012151Y067206D01*
X012201Y067256D01*
X012201Y069156D01*
X012151Y069206D01*
X012151Y069356D01*
X012153Y069373D01*
X012157Y069390D01*
X012164Y069406D01*
X012174Y069420D01*
X012187Y069433D01*
X012201Y069443D01*
X012217Y069450D01*
X012234Y069454D01*
X012251Y069456D01*
X012951Y069456D01*
X012968Y069454D01*
X012985Y069450D01*
X013001Y069443D01*
X013015Y069433D01*
X013028Y069420D01*
X013038Y069406D01*
X013045Y069390D01*
X013049Y069373D01*
X013051Y069356D01*
X060751Y009456D02*
X061451Y009456D01*
X061468Y009454D01*
X061485Y009450D01*
X061501Y009443D01*
X061515Y009433D01*
X061528Y009420D01*
X061538Y009406D01*
X061545Y009390D01*
X061549Y009373D01*
X061551Y009356D01*
X061551Y009206D01*
X061501Y009156D01*
X061501Y007256D01*
X061551Y007206D01*
X061551Y007056D01*
X061549Y007039D01*
X061545Y007022D01*
X061538Y007006D01*
X061528Y006992D01*
X061515Y006979D01*
X061501Y006969D01*
X061485Y006962D01*
X061468Y006958D01*
X061451Y006956D01*
X060751Y006956D01*
X060734Y006958D01*
X060717Y006962D01*
X060701Y006969D01*
X060687Y006979D01*
X060674Y006992D01*
X060664Y007006D01*
X060657Y007022D01*
X060653Y007039D01*
X060651Y007056D01*
X060651Y007206D01*
X060701Y007256D01*
X060701Y009156D01*
X060651Y009206D01*
X060651Y009356D01*
X060653Y009373D01*
X060657Y009390D01*
X060664Y009406D01*
X060674Y009420D01*
X060687Y009433D01*
X060701Y009443D01*
X060717Y009450D01*
X060734Y009454D01*
X060751Y009456D01*
X065151Y009356D02*
X065151Y009206D01*
X065201Y009156D01*
X065201Y007256D01*
X065151Y007206D01*
X065151Y007056D01*
X065153Y007039D01*
X065157Y007022D01*
X065164Y007006D01*
X065174Y006992D01*
X065187Y006979D01*
X065201Y006969D01*
X065217Y006962D01*
X065234Y006958D01*
X065251Y006956D01*
X065951Y006956D01*
X065968Y006958D01*
X065985Y006962D01*
X066001Y006969D01*
X066015Y006979D01*
X066028Y006992D01*
X066038Y007006D01*
X066045Y007022D01*
X066049Y007039D01*
X066051Y007056D01*
X066051Y007206D01*
X066001Y007256D01*
X066001Y009156D01*
X066051Y009206D01*
X066051Y009356D01*
X066049Y009373D01*
X066045Y009390D01*
X066038Y009406D01*
X066028Y009420D01*
X066015Y009433D01*
X066001Y009443D01*
X065985Y009450D01*
X065968Y009454D01*
X065951Y009456D01*
X065251Y009456D01*
X065234Y009454D01*
X065217Y009450D01*
X065201Y009443D01*
X065187Y009433D01*
X065174Y009420D01*
X065164Y009406D01*
X065157Y009390D01*
X065153Y009373D01*
X065151Y009356D01*
X069651Y009356D02*
X069651Y009206D01*
X069701Y009156D01*
X069701Y007256D01*
X069651Y007206D01*
X069651Y007056D01*
X069653Y007039D01*
X069657Y007022D01*
X069664Y007006D01*
X069674Y006992D01*
X069687Y006979D01*
X069701Y006969D01*
X069717Y006962D01*
X069734Y006958D01*
X069751Y006956D01*
X070451Y006956D01*
X070468Y006958D01*
X070485Y006962D01*
X070501Y006969D01*
X070515Y006979D01*
X070528Y006992D01*
X070538Y007006D01*
X070545Y007022D01*
X070549Y007039D01*
X070551Y007056D01*
X070551Y007206D01*
X070501Y007256D01*
X070501Y009156D01*
X070551Y009206D01*
X070551Y009356D01*
X070549Y009373D01*
X070545Y009390D01*
X070538Y009406D01*
X070528Y009420D01*
X070515Y009433D01*
X070501Y009443D01*
X070485Y009450D01*
X070468Y009454D01*
X070451Y009456D01*
X069751Y009456D01*
X069734Y009454D01*
X069717Y009450D01*
X069701Y009443D01*
X069687Y009433D01*
X069674Y009420D01*
X069664Y009406D01*
X069657Y009390D01*
X069653Y009373D01*
X069651Y009356D01*
X074151Y009356D02*
X074151Y009206D01*
X074201Y009156D01*
X074201Y007256D01*
X074151Y007206D01*
X074151Y007056D01*
X074153Y007039D01*
X074157Y007022D01*
X074164Y007006D01*
X074174Y006992D01*
X074187Y006979D01*
X074201Y006969D01*
X074217Y006962D01*
X074234Y006958D01*
X074251Y006956D01*
X074951Y006956D01*
X074968Y006958D01*
X074985Y006962D01*
X075001Y006969D01*
X075015Y006979D01*
X075028Y006992D01*
X075038Y007006D01*
X075045Y007022D01*
X075049Y007039D01*
X075051Y007056D01*
X075051Y007206D01*
X075001Y007256D01*
X075001Y009156D01*
X075051Y009206D01*
X075051Y009356D01*
X075049Y009373D01*
X075045Y009390D01*
X075038Y009406D01*
X075028Y009420D01*
X075015Y009433D01*
X075001Y009443D01*
X074985Y009450D01*
X074968Y009454D01*
X074951Y009456D01*
X074251Y009456D01*
X074234Y009454D01*
X074217Y009450D01*
X074201Y009443D01*
X074187Y009433D01*
X074174Y009420D01*
X074164Y009406D01*
X074157Y009390D01*
X074153Y009373D01*
X074151Y009356D01*
X078651Y009356D02*
X078651Y009206D01*
X078701Y009156D01*
X078701Y007256D01*
X078651Y007206D01*
X078651Y007056D01*
X078653Y007039D01*
X078657Y007022D01*
X078664Y007006D01*
X078674Y006992D01*
X078687Y006979D01*
X078701Y006969D01*
X078717Y006962D01*
X078734Y006958D01*
X078751Y006956D01*
X079451Y006956D01*
X079468Y006958D01*
X079485Y006962D01*
X079501Y006969D01*
X079515Y006979D01*
X079528Y006992D01*
X079538Y007006D01*
X079545Y007022D01*
X079549Y007039D01*
X079551Y007056D01*
X079551Y007206D01*
X079501Y007256D01*
X079501Y009156D01*
X079551Y009206D01*
X079551Y009356D01*
X079549Y009373D01*
X079545Y009390D01*
X079538Y009406D01*
X079528Y009420D01*
X079515Y009433D01*
X079501Y009443D01*
X079485Y009450D01*
X079468Y009454D01*
X079451Y009456D01*
X078751Y009456D01*
X078734Y009454D01*
X078717Y009450D01*
X078701Y009443D01*
X078687Y009433D01*
X078674Y009420D01*
X078664Y009406D01*
X078657Y009390D01*
X078653Y009373D01*
X078651Y009356D01*
X083151Y009356D02*
X083151Y009206D01*
X083201Y009156D01*
X083201Y007256D01*
X083151Y007206D01*
X083151Y007056D01*
X083153Y007039D01*
X083157Y007022D01*
X083164Y007006D01*
X083174Y006992D01*
X083187Y006979D01*
X083201Y006969D01*
X083217Y006962D01*
X083234Y006958D01*
X083251Y006956D01*
X083951Y006956D01*
X083968Y006958D01*
X083985Y006962D01*
X084001Y006969D01*
X084015Y006979D01*
X084028Y006992D01*
X084038Y007006D01*
X084045Y007022D01*
X084049Y007039D01*
X084051Y007056D01*
X084051Y007206D01*
X084001Y007256D01*
X084001Y009156D01*
X084051Y009206D01*
X084051Y009356D01*
X084049Y009373D01*
X084045Y009390D01*
X084038Y009406D01*
X084028Y009420D01*
X084015Y009433D01*
X084001Y009443D01*
X083985Y009450D01*
X083968Y009454D01*
X083951Y009456D01*
X083251Y009456D01*
X083234Y009454D01*
X083217Y009450D01*
X083201Y009443D01*
X083187Y009433D01*
X083174Y009420D01*
X083164Y009406D01*
X083157Y009390D01*
X083153Y009373D01*
X083151Y009356D01*
X087651Y009356D02*
X087651Y009206D01*
X087701Y009156D01*
X087701Y007256D01*
X087651Y007206D01*
X087651Y007056D01*
X087653Y007039D01*
X087657Y007022D01*
X087664Y007006D01*
X087674Y006992D01*
X087687Y006979D01*
X087701Y006969D01*
X087717Y006962D01*
X087734Y006958D01*
X087751Y006956D01*
X088451Y006956D01*
X088468Y006958D01*
X088485Y006962D01*
X088501Y006969D01*
X088515Y006979D01*
X088528Y006992D01*
X088538Y007006D01*
X088545Y007022D01*
X088549Y007039D01*
X088551Y007056D01*
X088551Y007206D01*
X088501Y007256D01*
X088501Y009156D01*
X088551Y009206D01*
X088551Y009356D01*
X088549Y009373D01*
X088545Y009390D01*
X088538Y009406D01*
X088528Y009420D01*
X088515Y009433D01*
X088501Y009443D01*
X088485Y009450D01*
X088468Y009454D01*
X088451Y009456D01*
X087751Y009456D01*
X087734Y009454D01*
X087717Y009450D01*
X087701Y009443D01*
X087687Y009433D01*
X087674Y009420D01*
X087664Y009406D01*
X087657Y009390D01*
X087653Y009373D01*
X087651Y009356D01*
X092151Y009356D02*
X092151Y009206D01*
X092201Y009156D01*
X092201Y007256D01*
X092151Y007206D01*
X092151Y007056D01*
X092153Y007039D01*
X092157Y007022D01*
X092164Y007006D01*
X092174Y006992D01*
X092187Y006979D01*
X092201Y006969D01*
X092217Y006962D01*
X092234Y006958D01*
X092251Y006956D01*
X092951Y006956D01*
X092968Y006958D01*
X092985Y006962D01*
X093001Y006969D01*
X093015Y006979D01*
X093028Y006992D01*
X093038Y007006D01*
X093045Y007022D01*
X093049Y007039D01*
X093051Y007056D01*
X093051Y007206D01*
X093001Y007256D01*
X093001Y009156D01*
X093051Y009206D01*
X093051Y009356D01*
X093049Y009373D01*
X093045Y009390D01*
X093038Y009406D01*
X093028Y009420D01*
X093015Y009433D01*
X093001Y009443D01*
X092985Y009450D01*
X092968Y009454D01*
X092951Y009456D01*
X092251Y009456D01*
X092234Y009454D01*
X092217Y009450D01*
X092201Y009443D01*
X092187Y009433D01*
X092174Y009420D01*
X092164Y009406D01*
X092157Y009390D01*
X092153Y009373D01*
X092151Y009356D01*
X096651Y009356D02*
X096651Y009206D01*
X096701Y009156D01*
X096701Y007256D01*
X096651Y007206D01*
X096651Y007056D01*
X096653Y007039D01*
X096657Y007022D01*
X096664Y007006D01*
X096674Y006992D01*
X096687Y006979D01*
X096701Y006969D01*
X096717Y006962D01*
X096734Y006958D01*
X096751Y006956D01*
X097451Y006956D01*
X097468Y006958D01*
X097485Y006962D01*
X097501Y006969D01*
X097515Y006979D01*
X097528Y006992D01*
X097538Y007006D01*
X097545Y007022D01*
X097549Y007039D01*
X097551Y007056D01*
X097551Y007206D01*
X097501Y007256D01*
X097501Y009156D01*
X097551Y009206D01*
X097551Y009356D01*
X097549Y009373D01*
X097545Y009390D01*
X097538Y009406D01*
X097528Y009420D01*
X097515Y009433D01*
X097501Y009443D01*
X097485Y009450D01*
X097468Y009454D01*
X097451Y009456D01*
X096751Y009456D01*
X096734Y009454D01*
X096717Y009450D01*
X096701Y009443D01*
X096687Y009433D01*
X096674Y009420D01*
X096664Y009406D01*
X096657Y009390D01*
X096653Y009373D01*
X096651Y009356D01*
X095601Y003706D02*
X095603Y003769D01*
X095609Y003831D01*
X095619Y003893D01*
X095632Y003955D01*
X095650Y004015D01*
X095671Y004074D01*
X095696Y004132D01*
X095725Y004188D01*
X095757Y004242D01*
X095792Y004294D01*
X095830Y004343D01*
X095872Y004391D01*
X095916Y004435D01*
X095964Y004477D01*
X096013Y004515D01*
X096065Y004550D01*
X096119Y004582D01*
X096175Y004611D01*
X096233Y004636D01*
X096292Y004657D01*
X096352Y004675D01*
X096414Y004688D01*
X096476Y004698D01*
X096538Y004704D01*
X096601Y004706D01*
X096664Y004704D01*
X096726Y004698D01*
X096788Y004688D01*
X096850Y004675D01*
X096910Y004657D01*
X096969Y004636D01*
X097027Y004611D01*
X097083Y004582D01*
X097137Y004550D01*
X097189Y004515D01*
X097238Y004477D01*
X097286Y004435D01*
X097330Y004391D01*
X097372Y004343D01*
X097410Y004294D01*
X097445Y004242D01*
X097477Y004188D01*
X097506Y004132D01*
X097531Y004074D01*
X097552Y004015D01*
X097570Y003955D01*
X097583Y003893D01*
X097593Y003831D01*
X097599Y003769D01*
X097601Y003706D01*
X097599Y003643D01*
X097593Y003581D01*
X097583Y003519D01*
X097570Y003457D01*
X097552Y003397D01*
X097531Y003338D01*
X097506Y003280D01*
X097477Y003224D01*
X097445Y003170D01*
X097410Y003118D01*
X097372Y003069D01*
X097330Y003021D01*
X097286Y002977D01*
X097238Y002935D01*
X097189Y002897D01*
X097137Y002862D01*
X097083Y002830D01*
X097027Y002801D01*
X096969Y002776D01*
X096910Y002755D01*
X096850Y002737D01*
X096788Y002724D01*
X096726Y002714D01*
X096664Y002708D01*
X096601Y002706D01*
X096538Y002708D01*
X096476Y002714D01*
X096414Y002724D01*
X096352Y002737D01*
X096292Y002755D01*
X096233Y002776D01*
X096175Y002801D01*
X096119Y002830D01*
X096065Y002862D01*
X096013Y002897D01*
X095964Y002935D01*
X095916Y002977D01*
X095872Y003021D01*
X095830Y003069D01*
X095792Y003118D01*
X095757Y003170D01*
X095725Y003224D01*
X095696Y003280D01*
X095671Y003338D01*
X095650Y003397D01*
X095632Y003457D01*
X095619Y003519D01*
X095609Y003581D01*
X095603Y003643D01*
X095601Y003706D01*
X091101Y003706D02*
X091103Y003769D01*
X091109Y003831D01*
X091119Y003893D01*
X091132Y003955D01*
X091150Y004015D01*
X091171Y004074D01*
X091196Y004132D01*
X091225Y004188D01*
X091257Y004242D01*
X091292Y004294D01*
X091330Y004343D01*
X091372Y004391D01*
X091416Y004435D01*
X091464Y004477D01*
X091513Y004515D01*
X091565Y004550D01*
X091619Y004582D01*
X091675Y004611D01*
X091733Y004636D01*
X091792Y004657D01*
X091852Y004675D01*
X091914Y004688D01*
X091976Y004698D01*
X092038Y004704D01*
X092101Y004706D01*
X092164Y004704D01*
X092226Y004698D01*
X092288Y004688D01*
X092350Y004675D01*
X092410Y004657D01*
X092469Y004636D01*
X092527Y004611D01*
X092583Y004582D01*
X092637Y004550D01*
X092689Y004515D01*
X092738Y004477D01*
X092786Y004435D01*
X092830Y004391D01*
X092872Y004343D01*
X092910Y004294D01*
X092945Y004242D01*
X092977Y004188D01*
X093006Y004132D01*
X093031Y004074D01*
X093052Y004015D01*
X093070Y003955D01*
X093083Y003893D01*
X093093Y003831D01*
X093099Y003769D01*
X093101Y003706D01*
X093099Y003643D01*
X093093Y003581D01*
X093083Y003519D01*
X093070Y003457D01*
X093052Y003397D01*
X093031Y003338D01*
X093006Y003280D01*
X092977Y003224D01*
X092945Y003170D01*
X092910Y003118D01*
X092872Y003069D01*
X092830Y003021D01*
X092786Y002977D01*
X092738Y002935D01*
X092689Y002897D01*
X092637Y002862D01*
X092583Y002830D01*
X092527Y002801D01*
X092469Y002776D01*
X092410Y002755D01*
X092350Y002737D01*
X092288Y002724D01*
X092226Y002714D01*
X092164Y002708D01*
X092101Y002706D01*
X092038Y002708D01*
X091976Y002714D01*
X091914Y002724D01*
X091852Y002737D01*
X091792Y002755D01*
X091733Y002776D01*
X091675Y002801D01*
X091619Y002830D01*
X091565Y002862D01*
X091513Y002897D01*
X091464Y002935D01*
X091416Y002977D01*
X091372Y003021D01*
X091330Y003069D01*
X091292Y003118D01*
X091257Y003170D01*
X091225Y003224D01*
X091196Y003280D01*
X091171Y003338D01*
X091150Y003397D01*
X091132Y003457D01*
X091119Y003519D01*
X091109Y003581D01*
X091103Y003643D01*
X091101Y003706D01*
X086601Y003706D02*
X086603Y003769D01*
X086609Y003831D01*
X086619Y003893D01*
X086632Y003955D01*
X086650Y004015D01*
X086671Y004074D01*
X086696Y004132D01*
X086725Y004188D01*
X086757Y004242D01*
X086792Y004294D01*
X086830Y004343D01*
X086872Y004391D01*
X086916Y004435D01*
X086964Y004477D01*
X087013Y004515D01*
X087065Y004550D01*
X087119Y004582D01*
X087175Y004611D01*
X087233Y004636D01*
X087292Y004657D01*
X087352Y004675D01*
X087414Y004688D01*
X087476Y004698D01*
X087538Y004704D01*
X087601Y004706D01*
X087664Y004704D01*
X087726Y004698D01*
X087788Y004688D01*
X087850Y004675D01*
X087910Y004657D01*
X087969Y004636D01*
X088027Y004611D01*
X088083Y004582D01*
X088137Y004550D01*
X088189Y004515D01*
X088238Y004477D01*
X088286Y004435D01*
X088330Y004391D01*
X088372Y004343D01*
X088410Y004294D01*
X088445Y004242D01*
X088477Y004188D01*
X088506Y004132D01*
X088531Y004074D01*
X088552Y004015D01*
X088570Y003955D01*
X088583Y003893D01*
X088593Y003831D01*
X088599Y003769D01*
X088601Y003706D01*
X088599Y003643D01*
X088593Y003581D01*
X088583Y003519D01*
X088570Y003457D01*
X088552Y003397D01*
X088531Y003338D01*
X088506Y003280D01*
X088477Y003224D01*
X088445Y003170D01*
X088410Y003118D01*
X088372Y003069D01*
X088330Y003021D01*
X088286Y002977D01*
X088238Y002935D01*
X088189Y002897D01*
X088137Y002862D01*
X088083Y002830D01*
X088027Y002801D01*
X087969Y002776D01*
X087910Y002755D01*
X087850Y002737D01*
X087788Y002724D01*
X087726Y002714D01*
X087664Y002708D01*
X087601Y002706D01*
X087538Y002708D01*
X087476Y002714D01*
X087414Y002724D01*
X087352Y002737D01*
X087292Y002755D01*
X087233Y002776D01*
X087175Y002801D01*
X087119Y002830D01*
X087065Y002862D01*
X087013Y002897D01*
X086964Y002935D01*
X086916Y002977D01*
X086872Y003021D01*
X086830Y003069D01*
X086792Y003118D01*
X086757Y003170D01*
X086725Y003224D01*
X086696Y003280D01*
X086671Y003338D01*
X086650Y003397D01*
X086632Y003457D01*
X086619Y003519D01*
X086609Y003581D01*
X086603Y003643D01*
X086601Y003706D01*
X082101Y003706D02*
X082103Y003769D01*
X082109Y003831D01*
X082119Y003893D01*
X082132Y003955D01*
X082150Y004015D01*
X082171Y004074D01*
X082196Y004132D01*
X082225Y004188D01*
X082257Y004242D01*
X082292Y004294D01*
X082330Y004343D01*
X082372Y004391D01*
X082416Y004435D01*
X082464Y004477D01*
X082513Y004515D01*
X082565Y004550D01*
X082619Y004582D01*
X082675Y004611D01*
X082733Y004636D01*
X082792Y004657D01*
X082852Y004675D01*
X082914Y004688D01*
X082976Y004698D01*
X083038Y004704D01*
X083101Y004706D01*
X083164Y004704D01*
X083226Y004698D01*
X083288Y004688D01*
X083350Y004675D01*
X083410Y004657D01*
X083469Y004636D01*
X083527Y004611D01*
X083583Y004582D01*
X083637Y004550D01*
X083689Y004515D01*
X083738Y004477D01*
X083786Y004435D01*
X083830Y004391D01*
X083872Y004343D01*
X083910Y004294D01*
X083945Y004242D01*
X083977Y004188D01*
X084006Y004132D01*
X084031Y004074D01*
X084052Y004015D01*
X084070Y003955D01*
X084083Y003893D01*
X084093Y003831D01*
X084099Y003769D01*
X084101Y003706D01*
X084099Y003643D01*
X084093Y003581D01*
X084083Y003519D01*
X084070Y003457D01*
X084052Y003397D01*
X084031Y003338D01*
X084006Y003280D01*
X083977Y003224D01*
X083945Y003170D01*
X083910Y003118D01*
X083872Y003069D01*
X083830Y003021D01*
X083786Y002977D01*
X083738Y002935D01*
X083689Y002897D01*
X083637Y002862D01*
X083583Y002830D01*
X083527Y002801D01*
X083469Y002776D01*
X083410Y002755D01*
X083350Y002737D01*
X083288Y002724D01*
X083226Y002714D01*
X083164Y002708D01*
X083101Y002706D01*
X083038Y002708D01*
X082976Y002714D01*
X082914Y002724D01*
X082852Y002737D01*
X082792Y002755D01*
X082733Y002776D01*
X082675Y002801D01*
X082619Y002830D01*
X082565Y002862D01*
X082513Y002897D01*
X082464Y002935D01*
X082416Y002977D01*
X082372Y003021D01*
X082330Y003069D01*
X082292Y003118D01*
X082257Y003170D01*
X082225Y003224D01*
X082196Y003280D01*
X082171Y003338D01*
X082150Y003397D01*
X082132Y003457D01*
X082119Y003519D01*
X082109Y003581D01*
X082103Y003643D01*
X082101Y003706D01*
X077601Y003706D02*
X077603Y003769D01*
X077609Y003831D01*
X077619Y003893D01*
X077632Y003955D01*
X077650Y004015D01*
X077671Y004074D01*
X077696Y004132D01*
X077725Y004188D01*
X077757Y004242D01*
X077792Y004294D01*
X077830Y004343D01*
X077872Y004391D01*
X077916Y004435D01*
X077964Y004477D01*
X078013Y004515D01*
X078065Y004550D01*
X078119Y004582D01*
X078175Y004611D01*
X078233Y004636D01*
X078292Y004657D01*
X078352Y004675D01*
X078414Y004688D01*
X078476Y004698D01*
X078538Y004704D01*
X078601Y004706D01*
X078664Y004704D01*
X078726Y004698D01*
X078788Y004688D01*
X078850Y004675D01*
X078910Y004657D01*
X078969Y004636D01*
X079027Y004611D01*
X079083Y004582D01*
X079137Y004550D01*
X079189Y004515D01*
X079238Y004477D01*
X079286Y004435D01*
X079330Y004391D01*
X079372Y004343D01*
X079410Y004294D01*
X079445Y004242D01*
X079477Y004188D01*
X079506Y004132D01*
X079531Y004074D01*
X079552Y004015D01*
X079570Y003955D01*
X079583Y003893D01*
X079593Y003831D01*
X079599Y003769D01*
X079601Y003706D01*
X079599Y003643D01*
X079593Y003581D01*
X079583Y003519D01*
X079570Y003457D01*
X079552Y003397D01*
X079531Y003338D01*
X079506Y003280D01*
X079477Y003224D01*
X079445Y003170D01*
X079410Y003118D01*
X079372Y003069D01*
X079330Y003021D01*
X079286Y002977D01*
X079238Y002935D01*
X079189Y002897D01*
X079137Y002862D01*
X079083Y002830D01*
X079027Y002801D01*
X078969Y002776D01*
X078910Y002755D01*
X078850Y002737D01*
X078788Y002724D01*
X078726Y002714D01*
X078664Y002708D01*
X078601Y002706D01*
X078538Y002708D01*
X078476Y002714D01*
X078414Y002724D01*
X078352Y002737D01*
X078292Y002755D01*
X078233Y002776D01*
X078175Y002801D01*
X078119Y002830D01*
X078065Y002862D01*
X078013Y002897D01*
X077964Y002935D01*
X077916Y002977D01*
X077872Y003021D01*
X077830Y003069D01*
X077792Y003118D01*
X077757Y003170D01*
X077725Y003224D01*
X077696Y003280D01*
X077671Y003338D01*
X077650Y003397D01*
X077632Y003457D01*
X077619Y003519D01*
X077609Y003581D01*
X077603Y003643D01*
X077601Y003706D01*
X073101Y003706D02*
X073103Y003769D01*
X073109Y003831D01*
X073119Y003893D01*
X073132Y003955D01*
X073150Y004015D01*
X073171Y004074D01*
X073196Y004132D01*
X073225Y004188D01*
X073257Y004242D01*
X073292Y004294D01*
X073330Y004343D01*
X073372Y004391D01*
X073416Y004435D01*
X073464Y004477D01*
X073513Y004515D01*
X073565Y004550D01*
X073619Y004582D01*
X073675Y004611D01*
X073733Y004636D01*
X073792Y004657D01*
X073852Y004675D01*
X073914Y004688D01*
X073976Y004698D01*
X074038Y004704D01*
X074101Y004706D01*
X074164Y004704D01*
X074226Y004698D01*
X074288Y004688D01*
X074350Y004675D01*
X074410Y004657D01*
X074469Y004636D01*
X074527Y004611D01*
X074583Y004582D01*
X074637Y004550D01*
X074689Y004515D01*
X074738Y004477D01*
X074786Y004435D01*
X074830Y004391D01*
X074872Y004343D01*
X074910Y004294D01*
X074945Y004242D01*
X074977Y004188D01*
X075006Y004132D01*
X075031Y004074D01*
X075052Y004015D01*
X075070Y003955D01*
X075083Y003893D01*
X075093Y003831D01*
X075099Y003769D01*
X075101Y003706D01*
X075099Y003643D01*
X075093Y003581D01*
X075083Y003519D01*
X075070Y003457D01*
X075052Y003397D01*
X075031Y003338D01*
X075006Y003280D01*
X074977Y003224D01*
X074945Y003170D01*
X074910Y003118D01*
X074872Y003069D01*
X074830Y003021D01*
X074786Y002977D01*
X074738Y002935D01*
X074689Y002897D01*
X074637Y002862D01*
X074583Y002830D01*
X074527Y002801D01*
X074469Y002776D01*
X074410Y002755D01*
X074350Y002737D01*
X074288Y002724D01*
X074226Y002714D01*
X074164Y002708D01*
X074101Y002706D01*
X074038Y002708D01*
X073976Y002714D01*
X073914Y002724D01*
X073852Y002737D01*
X073792Y002755D01*
X073733Y002776D01*
X073675Y002801D01*
X073619Y002830D01*
X073565Y002862D01*
X073513Y002897D01*
X073464Y002935D01*
X073416Y002977D01*
X073372Y003021D01*
X073330Y003069D01*
X073292Y003118D01*
X073257Y003170D01*
X073225Y003224D01*
X073196Y003280D01*
X073171Y003338D01*
X073150Y003397D01*
X073132Y003457D01*
X073119Y003519D01*
X073109Y003581D01*
X073103Y003643D01*
X073101Y003706D01*
X068601Y003706D02*
X068603Y003769D01*
X068609Y003831D01*
X068619Y003893D01*
X068632Y003955D01*
X068650Y004015D01*
X068671Y004074D01*
X068696Y004132D01*
X068725Y004188D01*
X068757Y004242D01*
X068792Y004294D01*
X068830Y004343D01*
X068872Y004391D01*
X068916Y004435D01*
X068964Y004477D01*
X069013Y004515D01*
X069065Y004550D01*
X069119Y004582D01*
X069175Y004611D01*
X069233Y004636D01*
X069292Y004657D01*
X069352Y004675D01*
X069414Y004688D01*
X069476Y004698D01*
X069538Y004704D01*
X069601Y004706D01*
X069664Y004704D01*
X069726Y004698D01*
X069788Y004688D01*
X069850Y004675D01*
X069910Y004657D01*
X069969Y004636D01*
X070027Y004611D01*
X070083Y004582D01*
X070137Y004550D01*
X070189Y004515D01*
X070238Y004477D01*
X070286Y004435D01*
X070330Y004391D01*
X070372Y004343D01*
X070410Y004294D01*
X070445Y004242D01*
X070477Y004188D01*
X070506Y004132D01*
X070531Y004074D01*
X070552Y004015D01*
X070570Y003955D01*
X070583Y003893D01*
X070593Y003831D01*
X070599Y003769D01*
X070601Y003706D01*
X070599Y003643D01*
X070593Y003581D01*
X070583Y003519D01*
X070570Y003457D01*
X070552Y003397D01*
X070531Y003338D01*
X070506Y003280D01*
X070477Y003224D01*
X070445Y003170D01*
X070410Y003118D01*
X070372Y003069D01*
X070330Y003021D01*
X070286Y002977D01*
X070238Y002935D01*
X070189Y002897D01*
X070137Y002862D01*
X070083Y002830D01*
X070027Y002801D01*
X069969Y002776D01*
X069910Y002755D01*
X069850Y002737D01*
X069788Y002724D01*
X069726Y002714D01*
X069664Y002708D01*
X069601Y002706D01*
X069538Y002708D01*
X069476Y002714D01*
X069414Y002724D01*
X069352Y002737D01*
X069292Y002755D01*
X069233Y002776D01*
X069175Y002801D01*
X069119Y002830D01*
X069065Y002862D01*
X069013Y002897D01*
X068964Y002935D01*
X068916Y002977D01*
X068872Y003021D01*
X068830Y003069D01*
X068792Y003118D01*
X068757Y003170D01*
X068725Y003224D01*
X068696Y003280D01*
X068671Y003338D01*
X068650Y003397D01*
X068632Y003457D01*
X068619Y003519D01*
X068609Y003581D01*
X068603Y003643D01*
X068601Y003706D01*
X064101Y003706D02*
X064103Y003769D01*
X064109Y003831D01*
X064119Y003893D01*
X064132Y003955D01*
X064150Y004015D01*
X064171Y004074D01*
X064196Y004132D01*
X064225Y004188D01*
X064257Y004242D01*
X064292Y004294D01*
X064330Y004343D01*
X064372Y004391D01*
X064416Y004435D01*
X064464Y004477D01*
X064513Y004515D01*
X064565Y004550D01*
X064619Y004582D01*
X064675Y004611D01*
X064733Y004636D01*
X064792Y004657D01*
X064852Y004675D01*
X064914Y004688D01*
X064976Y004698D01*
X065038Y004704D01*
X065101Y004706D01*
X065164Y004704D01*
X065226Y004698D01*
X065288Y004688D01*
X065350Y004675D01*
X065410Y004657D01*
X065469Y004636D01*
X065527Y004611D01*
X065583Y004582D01*
X065637Y004550D01*
X065689Y004515D01*
X065738Y004477D01*
X065786Y004435D01*
X065830Y004391D01*
X065872Y004343D01*
X065910Y004294D01*
X065945Y004242D01*
X065977Y004188D01*
X066006Y004132D01*
X066031Y004074D01*
X066052Y004015D01*
X066070Y003955D01*
X066083Y003893D01*
X066093Y003831D01*
X066099Y003769D01*
X066101Y003706D01*
X066099Y003643D01*
X066093Y003581D01*
X066083Y003519D01*
X066070Y003457D01*
X066052Y003397D01*
X066031Y003338D01*
X066006Y003280D01*
X065977Y003224D01*
X065945Y003170D01*
X065910Y003118D01*
X065872Y003069D01*
X065830Y003021D01*
X065786Y002977D01*
X065738Y002935D01*
X065689Y002897D01*
X065637Y002862D01*
X065583Y002830D01*
X065527Y002801D01*
X065469Y002776D01*
X065410Y002755D01*
X065350Y002737D01*
X065288Y002724D01*
X065226Y002714D01*
X065164Y002708D01*
X065101Y002706D01*
X065038Y002708D01*
X064976Y002714D01*
X064914Y002724D01*
X064852Y002737D01*
X064792Y002755D01*
X064733Y002776D01*
X064675Y002801D01*
X064619Y002830D01*
X064565Y002862D01*
X064513Y002897D01*
X064464Y002935D01*
X064416Y002977D01*
X064372Y003021D01*
X064330Y003069D01*
X064292Y003118D01*
X064257Y003170D01*
X064225Y003224D01*
X064196Y003280D01*
X064171Y003338D01*
X064150Y003397D01*
X064132Y003457D01*
X064119Y003519D01*
X064109Y003581D01*
X064103Y003643D01*
X064101Y003706D01*
X059601Y003706D02*
X059603Y003769D01*
X059609Y003831D01*
X059619Y003893D01*
X059632Y003955D01*
X059650Y004015D01*
X059671Y004074D01*
X059696Y004132D01*
X059725Y004188D01*
X059757Y004242D01*
X059792Y004294D01*
X059830Y004343D01*
X059872Y004391D01*
X059916Y004435D01*
X059964Y004477D01*
X060013Y004515D01*
X060065Y004550D01*
X060119Y004582D01*
X060175Y004611D01*
X060233Y004636D01*
X060292Y004657D01*
X060352Y004675D01*
X060414Y004688D01*
X060476Y004698D01*
X060538Y004704D01*
X060601Y004706D01*
X060664Y004704D01*
X060726Y004698D01*
X060788Y004688D01*
X060850Y004675D01*
X060910Y004657D01*
X060969Y004636D01*
X061027Y004611D01*
X061083Y004582D01*
X061137Y004550D01*
X061189Y004515D01*
X061238Y004477D01*
X061286Y004435D01*
X061330Y004391D01*
X061372Y004343D01*
X061410Y004294D01*
X061445Y004242D01*
X061477Y004188D01*
X061506Y004132D01*
X061531Y004074D01*
X061552Y004015D01*
X061570Y003955D01*
X061583Y003893D01*
X061593Y003831D01*
X061599Y003769D01*
X061601Y003706D01*
X061599Y003643D01*
X061593Y003581D01*
X061583Y003519D01*
X061570Y003457D01*
X061552Y003397D01*
X061531Y003338D01*
X061506Y003280D01*
X061477Y003224D01*
X061445Y003170D01*
X061410Y003118D01*
X061372Y003069D01*
X061330Y003021D01*
X061286Y002977D01*
X061238Y002935D01*
X061189Y002897D01*
X061137Y002862D01*
X061083Y002830D01*
X061027Y002801D01*
X060969Y002776D01*
X060910Y002755D01*
X060850Y002737D01*
X060788Y002724D01*
X060726Y002714D01*
X060664Y002708D01*
X060601Y002706D01*
X060538Y002708D01*
X060476Y002714D01*
X060414Y002724D01*
X060352Y002737D01*
X060292Y002755D01*
X060233Y002776D01*
X060175Y002801D01*
X060119Y002830D01*
X060065Y002862D01*
X060013Y002897D01*
X059964Y002935D01*
X059916Y002977D01*
X059872Y003021D01*
X059830Y003069D01*
X059792Y003118D01*
X059757Y003170D01*
X059725Y003224D01*
X059696Y003280D01*
X059671Y003338D01*
X059650Y003397D01*
X059632Y003457D01*
X059619Y003519D01*
X059609Y003581D01*
X059603Y003643D01*
X059601Y003706D01*
D20*
X095681Y056206D03*
X098521Y056206D03*
X071021Y078706D03*
X068181Y078706D03*
D21*
X058101Y067126D03*
X054601Y067126D03*
X050601Y069286D03*
X050601Y072126D03*
X054601Y064286D03*
X058101Y064286D03*
X026101Y066786D03*
X024601Y066786D03*
X023101Y066786D03*
X021601Y066786D03*
X020101Y066786D03*
X018601Y066786D03*
X017101Y066786D03*
X015601Y066786D03*
X014101Y066786D03*
X012601Y066786D03*
X012601Y069626D03*
X014101Y069626D03*
X015601Y069626D03*
X017101Y069626D03*
X018601Y069626D03*
X020101Y069626D03*
X021601Y069626D03*
X023101Y069626D03*
X024601Y069626D03*
X026101Y069626D03*
X061101Y009626D03*
X061101Y006786D03*
X065601Y006786D03*
X065601Y009626D03*
X070101Y009626D03*
X070101Y006786D03*
X074601Y006786D03*
X074601Y009626D03*
X079101Y009626D03*
X079101Y006786D03*
X083601Y006786D03*
X083601Y009626D03*
X088101Y009626D03*
X088101Y006786D03*
X092601Y006786D03*
X092601Y009626D03*
X097101Y009626D03*
X097101Y006786D03*
M02*
