G75*
G70*
%OFA0B0*%
%FSLAX24Y24*%
%IPPOS*%
%LPD*%
%AMOC8*
5,1,8,0,0,1.08239X$1,22.5*
%
%ADD10R,0.3000X0.7000*%
%ADD11R,0.1500X0.3500*%
%ADD12R,0.2000X1.1500*%
%ADD13R,0.8000X0.1000*%
%ADD14R,0.2500X0.5500*%
%ADD15R,0.0800X0.3900*%
%ADD16R,0.5000X0.0500*%
%ADD17R,0.3500X0.1500*%
%ADD18R,2.3500X0.2000*%
%ADD19R,1.9000X0.0500*%
%ADD20R,0.0300X0.2200*%
%ADD21R,0.5000X0.0300*%
%ADD22R,0.2000X0.8000*%
%ADD23R,0.1500X0.2000*%
%ADD24R,0.2000X0.1500*%
%ADD25R,1.6000X0.3000*%
%ADD26R,0.2500X1.5000*%
%ADD27R,1.0000X0.1500*%
%ADD28R,0.2000X0.4000*%
%ADD29R,1.0000X0.0500*%
%ADD30R,1.2000X0.3000*%
%ADD31R,1.2500X0.1000*%
%ADD32R,0.0825X0.0825*%
%ADD33R,0.1065X0.1065*%
%ADD34C,0.0740*%
%ADD35C,0.0650*%
%ADD36C,0.0520*%
%ADD37OC8,0.0520*%
%ADD38OC8,0.0740*%
%ADD39C,0.0600*%
%ADD40C,0.0600*%
%ADD41C,0.0860*%
%ADD42C,0.0515*%
%ADD43C,0.0500*%
%ADD44C,0.0396*%
%ADD45C,0.1400*%
%ADD46C,0.0591*%
%ADD47C,0.2500*%
%ADD48C,0.0200*%
D10*
X007601Y050206D03*
D11*
X009851Y048956D03*
D12*
X016101Y042956D03*
D13*
X011101Y037706D03*
D14*
X008351Y039956D03*
D15*
X009501Y040756D03*
D16*
X014601Y048856D03*
D17*
X008851Y043456D03*
D18*
X023851Y056206D03*
D19*
X022601Y054956D03*
D20*
X035751Y056306D03*
D21*
X033401Y057256D03*
D22*
X030601Y048706D03*
D23*
X032351Y045706D03*
D24*
X032101Y048456D03*
D25*
X024601Y040706D03*
D26*
X037851Y040206D03*
D27*
X034101Y033456D03*
D28*
X030101Y036206D03*
D29*
X034101Y032456D03*
D30*
X024101Y049206D03*
D31*
X023351Y037706D03*
D32*
X033031Y037106D03*
X033031Y038756D03*
X033031Y040406D03*
X033031Y042056D03*
X033031Y043706D03*
X033031Y045356D03*
X033031Y047006D03*
X033031Y048656D03*
X033031Y050306D03*
X033031Y051956D03*
X033031Y053606D03*
X033031Y055256D03*
X035201Y055256D03*
X035201Y053606D03*
X035201Y051956D03*
X035201Y050306D03*
X035201Y048656D03*
X035201Y047006D03*
X035201Y045356D03*
X035201Y043706D03*
X035201Y042056D03*
X035201Y040406D03*
X035201Y038756D03*
X035201Y037106D03*
X045931Y038706D03*
X045931Y040356D03*
X048101Y040356D03*
X048101Y038706D03*
X012671Y041806D03*
X012671Y043456D03*
X012671Y045106D03*
X012671Y046756D03*
X012671Y048406D03*
X012671Y050056D03*
X012671Y051706D03*
X012671Y053356D03*
X012671Y055006D03*
X012671Y056656D03*
X010501Y056656D03*
X010501Y055006D03*
X010501Y053356D03*
X010501Y051706D03*
X010501Y050056D03*
X010501Y048406D03*
X010501Y046756D03*
X010501Y045106D03*
X010501Y043456D03*
X010501Y041806D03*
D33*
X010551Y073686D03*
X008901Y073686D03*
X007251Y073686D03*
X005601Y073686D03*
X003951Y073686D03*
X003951Y075856D03*
X005601Y075856D03*
X007251Y075856D03*
X008901Y075856D03*
X010551Y075856D03*
X012201Y075856D03*
X012201Y073686D03*
X015951Y073686D03*
X017601Y073686D03*
X019251Y073686D03*
X020901Y073686D03*
X022551Y073686D03*
X024201Y073686D03*
X024201Y075856D03*
X022551Y075856D03*
X020901Y075856D03*
X019251Y075856D03*
X017601Y075856D03*
X015951Y075856D03*
X027851Y075976D03*
X027851Y073806D03*
X031351Y073806D03*
X034851Y073806D03*
X034851Y075976D03*
X031351Y075976D03*
X038351Y075976D03*
X038351Y073806D03*
X041851Y073806D03*
X041851Y075976D03*
X045351Y075976D03*
X045351Y073806D03*
X048851Y073806D03*
X048851Y075976D03*
X052351Y075976D03*
X052351Y073806D03*
X055851Y073806D03*
X055851Y075976D03*
X059351Y075976D03*
X059351Y073806D03*
D34*
X062821Y077316D03*
X062821Y079096D03*
X065381Y079096D03*
X065381Y077316D03*
X080101Y063706D03*
X081101Y063706D03*
X082101Y063706D03*
X083101Y063706D03*
X084101Y063706D03*
X085101Y063706D03*
X086101Y063706D03*
X087101Y063706D03*
X088101Y063706D03*
X089101Y063706D03*
X090101Y063706D03*
X091101Y063706D03*
X092101Y063706D03*
X092101Y062706D03*
X091101Y062706D03*
X090101Y062706D03*
X089101Y062706D03*
X088101Y062706D03*
X087101Y062706D03*
X086101Y062706D03*
X085101Y062706D03*
X084101Y062706D03*
X083101Y062706D03*
X082101Y062706D03*
X081101Y062706D03*
X080101Y062706D03*
X088101Y068956D03*
X088101Y069956D03*
X088101Y070956D03*
X088101Y071956D03*
X088101Y072956D03*
X094351Y072956D03*
X094351Y073956D03*
X094351Y074956D03*
X094351Y075956D03*
X094351Y071956D03*
X094351Y070956D03*
X094351Y069956D03*
X094351Y068956D03*
X095821Y059596D03*
X095821Y057816D03*
X098381Y057816D03*
X098381Y059596D03*
X092101Y054706D03*
X091101Y054706D03*
X090101Y054706D03*
X089101Y054706D03*
X088101Y054706D03*
X087101Y054706D03*
X086101Y054706D03*
X085101Y054706D03*
X084101Y054706D03*
X083101Y054706D03*
X082101Y054706D03*
X081101Y054706D03*
X080101Y054706D03*
X080101Y053706D03*
X081101Y053706D03*
X082101Y053706D03*
X083101Y053706D03*
X084101Y053706D03*
X085101Y053706D03*
X086101Y053706D03*
X087101Y053706D03*
X088101Y053706D03*
X089101Y053706D03*
X090101Y053706D03*
X091101Y053706D03*
X092101Y053706D03*
X107601Y054206D03*
X107601Y055206D03*
X107601Y056206D03*
X107601Y057206D03*
X107601Y053206D03*
X107601Y052206D03*
X107601Y051206D03*
X107601Y050206D03*
X113601Y050206D03*
X113601Y051206D03*
X113601Y052206D03*
X113601Y053206D03*
X113601Y054206D03*
X113601Y055206D03*
X113601Y056206D03*
X113601Y057206D03*
D35*
X105601Y051206D03*
X105601Y050206D03*
X093601Y048206D03*
X093601Y047206D03*
X090601Y048456D03*
X089601Y048456D03*
X089601Y041956D03*
X090601Y041956D03*
X064101Y063956D03*
X063101Y063956D03*
X066101Y070206D03*
X064101Y070456D03*
X063101Y070456D03*
X066101Y071206D03*
X096101Y071206D03*
X096101Y070206D03*
X104101Y071206D03*
X104101Y072206D03*
D36*
X090101Y046206D03*
X090101Y044206D03*
X063601Y066206D03*
X063601Y068206D03*
D37*
X058101Y067706D03*
X054601Y067706D03*
X050601Y068706D03*
X050601Y072706D03*
X054601Y063706D03*
X058101Y063706D03*
X067601Y078706D03*
X071601Y078706D03*
X095101Y056206D03*
X099101Y056206D03*
X097101Y010206D03*
X092601Y010206D03*
X088101Y010206D03*
X083601Y010206D03*
X079101Y010206D03*
X074601Y010206D03*
X070101Y010206D03*
X065601Y010206D03*
X061101Y010206D03*
X061101Y006206D03*
X061101Y003706D03*
X060101Y003706D03*
X064601Y003706D03*
X065601Y003706D03*
X065601Y006206D03*
X069101Y003706D03*
X070101Y003706D03*
X070101Y006206D03*
X073601Y003706D03*
X074601Y003706D03*
X078101Y003706D03*
X079101Y003706D03*
X079101Y006206D03*
X082601Y003706D03*
X083601Y003706D03*
X083601Y006206D03*
X087101Y003706D03*
X088101Y003706D03*
X088101Y006206D03*
X091601Y003706D03*
X092601Y003706D03*
X096101Y003706D03*
X097101Y003706D03*
X097101Y006206D03*
X092601Y006206D03*
X074601Y006206D03*
X026101Y066206D03*
X024601Y066206D03*
X023101Y066206D03*
X021601Y066206D03*
X020101Y066206D03*
X018601Y066206D03*
X017101Y066206D03*
X015601Y066206D03*
X014101Y066206D03*
X012601Y066206D03*
X012601Y070206D03*
X014101Y070206D03*
X015601Y070206D03*
X017101Y070206D03*
X018601Y070206D03*
X020101Y070206D03*
X021601Y070206D03*
X023101Y070206D03*
X024601Y070206D03*
X026101Y070206D03*
D38*
X079601Y072706D03*
X079601Y073706D03*
X080601Y073706D03*
X081601Y073706D03*
X082601Y073706D03*
X083601Y073706D03*
X083601Y072706D03*
X082601Y072706D03*
X081601Y072706D03*
X080601Y072706D03*
X106601Y039706D03*
X107601Y039706D03*
X108601Y039706D03*
X109601Y039706D03*
X110601Y039706D03*
X110601Y038706D03*
X109601Y038706D03*
X108601Y038706D03*
X107601Y038706D03*
X106601Y038706D03*
D39*
X098901Y041206D02*
X098301Y041206D01*
X098301Y042206D02*
X098901Y042206D01*
X098901Y043206D02*
X098301Y043206D01*
X098301Y044206D02*
X098901Y044206D01*
X098901Y045206D02*
X098301Y045206D01*
X098301Y046206D02*
X098901Y046206D01*
X098901Y047206D02*
X098301Y047206D01*
X098301Y048206D02*
X098901Y048206D01*
X098901Y049206D02*
X098301Y049206D01*
X098301Y050206D02*
X098901Y050206D01*
X098901Y051206D02*
X098301Y051206D01*
X098301Y052206D02*
X098901Y052206D01*
X098901Y053206D02*
X098301Y053206D01*
X098301Y054206D02*
X098901Y054206D01*
X095901Y054206D02*
X095301Y054206D01*
X095301Y053206D02*
X095901Y053206D01*
X095901Y052206D02*
X095301Y052206D01*
X095301Y051206D02*
X095901Y051206D01*
X095901Y050206D02*
X095301Y050206D01*
X095301Y049206D02*
X095901Y049206D01*
X095901Y048206D02*
X095301Y048206D01*
X095301Y047206D02*
X095901Y047206D01*
X095901Y046206D02*
X095301Y046206D01*
X095301Y045206D02*
X095901Y045206D01*
X095901Y044206D02*
X095301Y044206D01*
X095301Y043206D02*
X095901Y043206D01*
X095901Y042206D02*
X095301Y042206D01*
X095301Y041206D02*
X095901Y041206D01*
X071401Y064206D02*
X070801Y064206D01*
X070801Y065206D02*
X071401Y065206D01*
X071401Y066206D02*
X070801Y066206D01*
X070801Y067206D02*
X071401Y067206D01*
X071401Y068206D02*
X070801Y068206D01*
X070801Y069206D02*
X071401Y069206D01*
X071401Y070206D02*
X070801Y070206D01*
X070801Y071206D02*
X071401Y071206D01*
X071401Y072206D02*
X070801Y072206D01*
X070801Y073206D02*
X071401Y073206D01*
X071401Y074206D02*
X070801Y074206D01*
X070801Y075206D02*
X071401Y075206D01*
X071401Y076206D02*
X070801Y076206D01*
X070801Y077206D02*
X071401Y077206D01*
X068401Y077206D02*
X067801Y077206D01*
X067801Y076206D02*
X068401Y076206D01*
X068401Y075206D02*
X067801Y075206D01*
X067801Y074206D02*
X068401Y074206D01*
X068401Y073206D02*
X067801Y073206D01*
X067801Y072206D02*
X068401Y072206D01*
X068401Y071206D02*
X067801Y071206D01*
X067801Y070206D02*
X068401Y070206D01*
X068401Y069206D02*
X067801Y069206D01*
X067801Y068206D02*
X068401Y068206D01*
X068401Y067206D02*
X067801Y067206D01*
X067801Y066206D02*
X068401Y066206D01*
X068401Y065206D02*
X067801Y065206D01*
X067801Y064206D02*
X068401Y064206D01*
X059601Y068906D02*
X059601Y069506D01*
X058601Y069506D02*
X058601Y068906D01*
X056101Y068906D02*
X056101Y069506D01*
X055101Y069506D02*
X055101Y068906D01*
X055101Y071906D02*
X055101Y072506D01*
X056101Y072506D02*
X056101Y071906D01*
X058601Y071906D02*
X058601Y072506D01*
X059601Y072506D02*
X059601Y071906D01*
D40*
X105770Y072105D03*
X105770Y071318D03*
X105770Y070530D03*
X105770Y069743D03*
X105770Y072893D03*
X105770Y073680D03*
X105770Y074467D03*
X105770Y075255D03*
X105770Y076042D03*
X105770Y076830D03*
X114431Y076830D03*
X114431Y076042D03*
X114431Y075255D03*
X114431Y074467D03*
X114431Y073680D03*
X114431Y072893D03*
X114431Y072105D03*
X114431Y071318D03*
X114431Y070530D03*
X114431Y069743D03*
D41*
X038569Y004674D03*
X037585Y004674D03*
X035617Y004674D03*
X034632Y004674D03*
X033569Y004674D03*
X032585Y004674D03*
X030617Y004674D03*
X029632Y004674D03*
X031601Y002706D03*
X036601Y002706D03*
D42*
X003101Y031269D02*
X002586Y031269D01*
X002586Y032056D02*
X003101Y032056D01*
X003101Y032843D02*
X002586Y032843D01*
X002586Y033631D02*
X003101Y033631D01*
X003101Y034418D02*
X002586Y034418D01*
X002586Y035206D02*
X003101Y035206D01*
D43*
X017601Y043206D02*
X031601Y043206D01*
X040201Y053606D02*
X050001Y053606D01*
X050601Y054206D01*
X064351Y070206D02*
X064101Y070456D01*
X064101Y071206D01*
X065601Y072706D01*
X065601Y077096D01*
X065381Y077316D01*
X062821Y077316D01*
X059351Y075976D02*
X059081Y075706D01*
X058601Y075706D01*
X058101Y075206D01*
X058101Y072706D01*
X058601Y072206D01*
X059601Y072206D02*
X059601Y073706D01*
X059501Y073806D01*
X059351Y073806D01*
X061601Y071706D02*
X060601Y070706D01*
X052601Y070706D01*
X054601Y072706D02*
X055101Y072206D01*
X054601Y072706D02*
X054601Y075206D01*
X055101Y075706D01*
X055581Y075706D01*
X055851Y075976D01*
X055851Y073806D02*
X056001Y073806D01*
X056101Y073706D01*
X056101Y072206D01*
X052351Y073806D02*
X048851Y073806D01*
X064351Y070206D02*
X066101Y070206D01*
X068101Y070206D01*
X068101Y071206D02*
X066101Y071206D01*
X071601Y078706D02*
X079101Y078706D01*
X079601Y078206D01*
X079601Y074706D01*
X089101Y074706D01*
X089601Y074206D01*
X089601Y072706D01*
X090101Y072206D01*
X094101Y072206D01*
X094351Y071956D01*
X094601Y072206D01*
X095601Y072206D01*
X096101Y071706D01*
X096101Y071206D01*
X098601Y071206D01*
X099601Y072206D01*
X104101Y072206D01*
X104101Y076206D01*
X104601Y076706D01*
X105646Y076706D01*
X105770Y076830D01*
X104101Y071206D02*
X104101Y070206D01*
X101601Y070206D01*
X099601Y070206D02*
X098601Y071206D01*
X099601Y070206D02*
X099601Y057206D01*
X099101Y056706D01*
X099101Y056206D01*
X099101Y055706D01*
X098601Y055206D01*
X097601Y055206D01*
X097101Y054706D01*
X097101Y049206D01*
X096101Y048206D01*
X095601Y048206D01*
X093601Y048206D01*
X093601Y047206D02*
X092101Y047206D01*
X091601Y046706D01*
X092101Y047206D02*
X090851Y048456D01*
X090601Y048456D01*
X093601Y047206D02*
X095601Y047206D01*
X096601Y047206D01*
X097601Y048206D01*
X098601Y048206D01*
X099101Y048206D01*
X099601Y048706D01*
X099601Y054706D01*
X099101Y056206D02*
X105101Y050206D01*
X105601Y050206D01*
X107601Y050206D01*
X107601Y051206D02*
X105601Y051206D01*
X103101Y047706D02*
X107601Y043206D01*
X107601Y039706D01*
X108601Y039706D01*
X109601Y039706D01*
X110601Y039706D01*
X113101Y039706D01*
X114101Y038706D01*
X114101Y037206D01*
X112601Y035706D01*
X109101Y035706D01*
X107601Y034206D01*
X107601Y012706D01*
X105101Y010206D01*
X097101Y010206D01*
X092601Y010206D01*
X088101Y010206D01*
X083601Y010206D01*
X079101Y010206D01*
X074601Y010206D02*
X070101Y010206D01*
X065601Y010206D02*
X061101Y010206D01*
X095821Y057816D02*
X098381Y057816D01*
X091101Y068206D02*
X087101Y068206D01*
X086101Y069206D01*
X086101Y072706D01*
X085101Y073706D01*
X083601Y073706D01*
X082601Y073706D01*
X081601Y073706D01*
X080601Y073706D01*
X079601Y073706D02*
X079601Y074706D01*
X091101Y068206D02*
X091601Y068706D01*
X094101Y068706D01*
X094351Y068956D01*
X094601Y069206D01*
X095601Y069206D01*
X096101Y069706D01*
X096101Y070206D01*
X104101Y070206D02*
X104101Y069706D01*
X105733Y069706D01*
X105770Y069743D01*
X027851Y073806D02*
X024321Y073806D01*
X024201Y073686D01*
X022551Y073686D01*
X021601Y066206D02*
X020101Y066206D01*
D44*
X025101Y011206D03*
X026101Y011206D03*
X027101Y011206D03*
X003601Y036706D03*
X004351Y037206D03*
X005101Y037706D03*
X005851Y038206D03*
X005851Y045206D03*
X005101Y045206D03*
X004351Y045206D03*
X003601Y045206D03*
X014101Y053206D03*
X014101Y054206D03*
X016401Y062806D03*
X020901Y064506D03*
X024601Y062206D03*
X026601Y071206D03*
X010601Y070206D03*
X030601Y053206D03*
X029101Y044706D03*
X031601Y043206D03*
X017601Y043206D03*
X017601Y044206D03*
X017701Y045106D03*
X050601Y054206D03*
X054601Y060706D03*
X058101Y060706D03*
X052601Y070706D03*
X061601Y071706D03*
X070301Y075706D03*
X073601Y072706D03*
X074101Y072206D03*
X079601Y070706D03*
X079101Y067706D03*
X079601Y064706D03*
X077601Y064706D03*
X074101Y066706D03*
X073601Y065206D03*
X085101Y057706D03*
X093601Y058206D03*
X094101Y057706D03*
X099601Y054706D03*
X103101Y047706D03*
X103601Y042706D03*
X103101Y042206D03*
X103601Y037706D03*
X103101Y037206D03*
X091601Y046706D03*
X083101Y034706D03*
X084101Y033206D03*
X085101Y031706D03*
X083101Y016706D03*
X079101Y014706D03*
X079101Y013706D03*
X079101Y012706D03*
X074601Y012706D03*
X074601Y013706D03*
X070101Y012706D03*
X064601Y011706D03*
X064601Y016706D03*
X097101Y062706D03*
X097101Y063706D03*
X101601Y070206D03*
D45*
X045931Y038706D02*
X043601Y038706D01*
X043601Y048706D01*
X043601Y049706D01*
X043601Y050706D01*
X040601Y053206D02*
X040601Y038206D01*
X040601Y037206D01*
X040601Y036206D01*
X037101Y034206D02*
X036601Y033706D01*
X032101Y033706D01*
X031601Y034206D01*
X031601Y038756D01*
X033031Y038756D01*
X033031Y040406D01*
X033031Y042056D01*
X033031Y045356D02*
X035201Y045356D01*
X035201Y047006D02*
X036801Y047006D01*
X037101Y046706D01*
X037101Y034206D01*
X031601Y038756D02*
X015151Y038756D01*
X015101Y038706D01*
X014601Y038206D01*
X008601Y038206D01*
X008101Y038706D01*
X008101Y040706D01*
X009101Y041706D01*
X010401Y041706D01*
X010501Y041806D01*
X010501Y043456D01*
X010451Y046706D02*
X007101Y046706D01*
X006601Y047206D01*
X006601Y053206D01*
X006751Y053356D01*
X002451Y053356D01*
X002101Y053706D01*
X002101Y073206D01*
X002601Y073706D01*
X003931Y073706D01*
X003951Y073686D01*
X005601Y073686D01*
X007251Y073686D01*
X008901Y073686D01*
X010501Y056656D02*
X012671Y056656D01*
X012671Y055006D01*
X012671Y056656D02*
X012721Y056706D01*
X031101Y056706D01*
X032551Y055256D01*
X033031Y055256D01*
X035201Y055256D01*
X035201Y053606D01*
X040201Y053606D01*
X040601Y053206D01*
X035201Y051956D02*
X033031Y051956D01*
X032781Y052206D01*
X031601Y052206D01*
X031101Y051706D01*
X031101Y048206D01*
X030101Y047206D01*
X028601Y047206D01*
X027601Y047206D01*
X026601Y047206D01*
X018601Y047206D01*
X018601Y048206D01*
X018601Y049206D01*
X018601Y049906D01*
X018501Y050006D01*
X012701Y050006D01*
X012671Y050056D02*
X010501Y050056D01*
X010501Y048406D01*
X010501Y046756D01*
X010451Y046706D01*
X010501Y046756D02*
X012671Y046756D01*
X012671Y048406D02*
X014901Y048406D01*
X015101Y048206D01*
X015101Y038706D01*
X031101Y048206D02*
X032301Y047006D01*
X033031Y047006D01*
X033031Y045356D01*
X033031Y047006D02*
X033031Y048656D01*
X035201Y048656D01*
X012671Y053356D02*
X010501Y053356D01*
X006751Y053356D01*
D46*
X018601Y050206D03*
X018601Y049206D03*
X018601Y048206D03*
X018601Y047206D03*
X026601Y047206D03*
X027601Y047206D03*
X028601Y047206D03*
X026601Y048206D03*
X026601Y049206D03*
X026601Y050206D03*
X043601Y050706D03*
X043601Y049706D03*
X043601Y048706D03*
X040601Y038206D03*
X040601Y037206D03*
X040601Y036206D03*
X027201Y063606D03*
X026601Y064206D03*
X027201Y064806D03*
X026001Y064806D03*
X026001Y063606D03*
D47*
X026601Y064206D02*
X029601Y064206D01*
X029601Y072706D01*
X028501Y073806D01*
X027851Y073806D01*
X031351Y073806D01*
X034851Y073806D01*
X038351Y073806D01*
X041851Y073806D01*
X045351Y073806D01*
X048851Y073806D01*
D48*
X050601Y072706D02*
X051101Y072706D01*
X051601Y072206D01*
X051601Y061706D01*
X052101Y061206D01*
X067601Y061206D01*
X068101Y061706D01*
X068101Y064206D01*
X070101Y065706D02*
X070101Y060706D01*
X069601Y060206D01*
X055101Y060206D01*
X054601Y060706D01*
X058101Y060706D02*
X069101Y060706D01*
X069601Y061206D01*
X069601Y066706D01*
X070101Y067206D01*
X071101Y067206D01*
X071101Y066206D02*
X070601Y066206D01*
X070101Y065706D01*
X071101Y065206D02*
X072101Y065206D01*
X072601Y064706D01*
X072601Y059706D01*
X072101Y059206D01*
X042101Y059206D01*
X039601Y061706D01*
X025101Y061706D01*
X024601Y062206D01*
X025601Y062206D02*
X024101Y063706D01*
X023101Y063706D01*
X022401Y064406D01*
X022401Y069506D01*
X023101Y070206D01*
X026101Y068206D02*
X026101Y066206D01*
X026101Y068206D02*
X027101Y069206D01*
X027101Y070706D01*
X026601Y071206D01*
X023151Y074806D02*
X022301Y074806D01*
X021701Y074206D01*
X021701Y072406D01*
X021601Y072306D01*
X021601Y072206D01*
X020101Y070706D01*
X020101Y070206D01*
X019801Y070206D01*
X019401Y069806D01*
X019401Y064406D01*
X023101Y060706D01*
X038601Y060706D01*
X041101Y058206D01*
X074101Y058206D01*
X074601Y058706D01*
X074601Y072706D01*
X074101Y073206D01*
X071101Y073206D01*
X071101Y074206D02*
X074601Y074206D01*
X075101Y073706D01*
X075101Y058206D01*
X074601Y057706D01*
X040601Y057706D01*
X038101Y060206D01*
X022101Y060206D01*
X019601Y062706D01*
X018601Y062706D01*
X017901Y063406D01*
X017901Y069806D01*
X018301Y070206D01*
X018601Y070206D01*
X018601Y071206D01*
X020101Y072706D01*
X020101Y074406D01*
X020501Y074806D01*
X021501Y074806D01*
X022551Y075856D01*
X023151Y074806D02*
X024201Y075856D01*
X020901Y075856D02*
X020051Y075006D01*
X019201Y075006D01*
X018401Y074206D01*
X018401Y072906D01*
X017101Y071606D01*
X017101Y070206D01*
X017001Y070306D01*
X016701Y070306D01*
X016401Y070006D01*
X016401Y062806D01*
X015701Y062206D02*
X014901Y063006D01*
X014901Y069806D01*
X015301Y070206D01*
X015601Y070206D01*
X015601Y071206D01*
X016801Y072406D01*
X016801Y074406D01*
X017201Y074806D01*
X018201Y074806D01*
X019251Y075856D01*
X017601Y075856D02*
X016451Y074706D01*
X015101Y074706D01*
X014601Y074206D01*
X014601Y072706D01*
X014101Y072206D01*
X014101Y070206D01*
X013901Y070206D01*
X013401Y069706D01*
X013401Y062506D01*
X014201Y061706D01*
X018601Y061706D01*
X021101Y059206D01*
X037101Y059206D01*
X039601Y056706D01*
X075601Y056706D01*
X076101Y057206D01*
X076101Y075706D01*
X075601Y076206D01*
X071101Y076206D01*
X070301Y075706D02*
X069101Y075706D01*
X068601Y075206D01*
X068101Y075206D01*
X068101Y077206D02*
X068601Y077206D01*
X069601Y078106D01*
X071601Y078106D01*
X072101Y077706D01*
X078101Y077706D01*
X078601Y077206D01*
X078601Y072206D01*
X079101Y071706D01*
X081101Y071706D01*
X081601Y072206D01*
X081601Y072706D01*
X079601Y070706D02*
X079601Y068206D01*
X079101Y067706D01*
X079601Y064706D02*
X077601Y064706D01*
X074101Y066706D02*
X074101Y072206D01*
X073601Y072706D02*
X073601Y065206D01*
X072101Y063706D02*
X072101Y060206D01*
X071601Y059706D01*
X042601Y059706D01*
X040101Y062206D01*
X025601Y062206D01*
X024201Y061206D02*
X020901Y064506D01*
X019101Y062206D02*
X015701Y062206D01*
X018101Y061206D02*
X012101Y061206D01*
X011101Y062206D01*
X011101Y069206D01*
X012101Y070206D01*
X012601Y070206D01*
X012601Y071706D01*
X013601Y072706D01*
X013601Y075206D01*
X014101Y075706D01*
X015801Y075706D01*
X015951Y075856D01*
X010601Y073636D02*
X010551Y073686D01*
X010601Y073636D02*
X010601Y070206D01*
X019101Y062206D02*
X021601Y059706D01*
X037601Y059706D01*
X040101Y057206D01*
X075101Y057206D01*
X075601Y057706D01*
X075601Y074706D01*
X075101Y075206D01*
X071101Y075206D01*
X071101Y077206D02*
X076101Y077206D01*
X076601Y076706D01*
X076601Y056706D01*
X076101Y056206D01*
X039101Y056206D01*
X036601Y058706D01*
X020601Y058706D01*
X018101Y061206D01*
X024201Y061206D02*
X039101Y061206D01*
X041601Y058706D01*
X072601Y058706D01*
X073101Y059206D01*
X073101Y071706D01*
X072601Y072206D01*
X071101Y072206D01*
X068101Y069206D02*
X064601Y069206D01*
X063601Y068206D01*
X063101Y068706D01*
X063101Y070456D01*
X065101Y068206D02*
X068101Y068206D01*
X065101Y068206D02*
X063601Y066706D01*
X063601Y066206D01*
X063101Y065706D01*
X063101Y063956D01*
X058101Y067706D02*
X058101Y068706D01*
X058601Y069206D01*
X055101Y069206D02*
X054601Y068706D01*
X054601Y067706D01*
X067601Y077706D02*
X068101Y077206D01*
X067601Y077706D02*
X067601Y078706D01*
X067211Y079096D01*
X065381Y079096D01*
X062821Y079096D01*
X071101Y064206D02*
X071601Y064206D01*
X072101Y063706D01*
X084101Y055706D02*
X085101Y056706D01*
X093101Y056706D01*
X094101Y057706D01*
X093601Y058206D02*
X093101Y057706D01*
X085101Y057706D01*
X084101Y055706D02*
X084101Y054706D01*
X085101Y053706D02*
X085101Y053206D01*
X084601Y052706D01*
X082601Y052706D01*
X082101Y053206D01*
X082101Y053706D01*
X081101Y053706D01*
X080101Y053706D01*
X083101Y050706D02*
X083101Y034706D01*
X084101Y033206D02*
X084101Y049706D01*
X084601Y050206D01*
X095601Y050206D01*
X095601Y051206D02*
X083601Y051206D01*
X083101Y050706D01*
X085101Y048706D02*
X085601Y049206D01*
X095601Y049206D01*
X095601Y052206D02*
X088601Y052206D01*
X088101Y052706D01*
X088101Y053706D01*
X088101Y054706D02*
X088101Y055206D01*
X088601Y055706D01*
X092601Y055706D01*
X095101Y053206D01*
X095601Y053206D01*
X095101Y056206D02*
X095101Y058876D01*
X095821Y059596D01*
X098381Y059596D01*
X097101Y062706D02*
X092101Y062706D01*
X092101Y063706D02*
X097101Y063706D01*
X090101Y063706D02*
X090101Y064206D01*
X089601Y064706D01*
X085601Y064706D01*
X085101Y064206D01*
X085101Y063706D01*
X085101Y048706D02*
X085101Y031706D01*
X095601Y041206D02*
X095601Y015706D01*
X093601Y013706D01*
X079101Y013706D01*
X079101Y012706D02*
X094601Y012706D01*
X097101Y015206D01*
X097101Y041706D01*
X097601Y042206D01*
X098601Y042206D01*
X098601Y043206D02*
X101101Y043206D01*
X105601Y038706D01*
X106601Y038706D01*
X104101Y037206D02*
X109101Y037206D01*
X109601Y037706D01*
X109601Y038706D01*
X110601Y038706D02*
X110601Y037206D01*
X110101Y036706D01*
X103601Y036706D01*
X103101Y037206D01*
X103601Y037706D02*
X104101Y037206D01*
X103101Y042206D02*
X101101Y044206D01*
X098601Y044206D01*
X098601Y045206D02*
X101101Y045206D01*
X103601Y042706D01*
X095601Y043206D02*
X094101Y043206D01*
X093601Y042706D01*
X093601Y016706D01*
X092601Y015706D01*
X078601Y015706D01*
X078101Y015206D01*
X078101Y003706D01*
X079101Y003706D02*
X079101Y006206D01*
X074601Y006206D02*
X074601Y003706D01*
X070101Y003706D02*
X070101Y006206D01*
X069101Y003706D02*
X069101Y013206D01*
X069601Y013706D01*
X074601Y013706D01*
X074601Y012706D02*
X070101Y012706D01*
X064601Y011706D02*
X064601Y016706D01*
X079101Y014706D02*
X093101Y014706D01*
X094601Y016206D01*
X094601Y041706D01*
X095101Y042206D01*
X095601Y042206D01*
X093101Y044206D02*
X092601Y043706D01*
X092601Y017206D01*
X092101Y016706D01*
X083101Y016706D01*
X083601Y006206D02*
X083601Y003706D01*
X088101Y003706D02*
X088101Y006206D01*
X092601Y006206D02*
X092601Y003706D01*
X097101Y003706D02*
X097101Y006206D01*
X065601Y006206D02*
X065601Y003706D01*
X061101Y003706D02*
X061101Y006206D01*
X033601Y006706D02*
X033569Y004674D01*
X033601Y006706D02*
X005101Y035206D01*
X003101Y035206D01*
X003101Y034418D02*
X004888Y034418D01*
X028101Y011206D01*
X028101Y004706D01*
X029632Y004674D01*
X027101Y011206D02*
X004601Y033706D01*
X003101Y033706D01*
X003101Y033631D01*
X003101Y032843D02*
X003239Y032706D01*
X004601Y032706D01*
X026101Y011206D01*
X025101Y011206D02*
X004601Y031706D01*
X003451Y031706D01*
X003101Y032056D01*
X003601Y036706D02*
X003601Y045206D01*
X004351Y045206D02*
X004351Y037206D01*
X005101Y037706D02*
X005101Y045206D01*
X005851Y045206D02*
X005851Y038206D01*
X017601Y044206D02*
X032531Y044206D01*
X033031Y043706D01*
X029101Y044706D02*
X028701Y045106D01*
X017701Y045106D01*
X014101Y053206D02*
X030601Y053206D01*
X032931Y053706D02*
X033031Y053606D01*
X032931Y053706D02*
X014601Y053706D01*
X014101Y054206D01*
X089601Y048456D02*
X089601Y046706D01*
X090101Y046206D01*
X095601Y046206D01*
X095601Y045206D02*
X091601Y045206D01*
X090601Y044206D01*
X090101Y044206D01*
X089601Y043706D01*
X089601Y041956D01*
X093101Y044206D02*
X095601Y044206D01*
M02*
