%
M48
M72
T01C0.0236
T02C0.0276
T03C0.0315
T04C0.0320
T05C0.0394
T06C0.0400
T07C0.0472
T08C0.0512
T09C0.0550
T10C0.0710
T11C0.1180
T12C0.1300
%
T01
X25101Y11206
X26101Y11206
X27101Y11206
X3601Y36706
X4351Y37206
X5101Y37706
X5851Y38206
X5851Y45206
X5101Y45206
X4351Y45206
X3601Y45206
X14101Y53206
X14101Y54206
X16401Y62806
X20901Y64506
X24601Y62206
X26601Y71206
X10601Y70206
X30601Y53206
X29101Y44706
X31601Y43206
X17601Y43206
X17601Y44206
X17701Y45106
X50601Y54206
X54601Y60706
X58101Y60706
X52601Y70706
X61601Y71706
X70301Y75706
X73601Y72706
X74101Y72206
X79601Y70706
X79101Y67706
X79601Y64706
X77601Y64706
X74101Y66706
X73601Y65206
X85101Y57706
X93601Y58206
X94101Y57706
X99601Y54706
X103101Y47706
X103601Y42706
X103101Y42206
X103601Y37706
X103101Y37206
X91601Y46706
X83101Y34706
X84101Y33206
X85101Y31706
X83101Y16706
X79101Y14706
X79101Y13706
X79101Y12706
X74601Y12706
X74601Y13706
X70101Y12706
X64601Y11706
X64601Y16706
X97101Y62706
X97101Y63706
X101601Y70206
T02
X104101Y71206
X104101Y72206
X96101Y71206
X96101Y70206
X105601Y51206
X105601Y50206
X93601Y48206
X93601Y47206
X90601Y48456
X89601Y48456
X89601Y41956
X90601Y41956
X64101Y63956
X63101Y63956
X66101Y70206
X64101Y70456
X63101Y70456
X66101Y71206
T03
X105770Y71318
X105770Y72105
X105770Y72893
X105770Y73680
X105770Y74467
X105770Y75255
X105770Y76042
X105770Y76830
X105770Y70530
X105770Y69743
X114431Y69743
X114431Y70530
X114431Y71318
X114431Y72105
X114431Y72893
X114431Y73680
X114431Y74467
X114431Y75255
X114431Y76042
X114431Y76830
X3101Y35206
X3101Y34418
X3101Y33631
X3101Y32843
X3101Y32056
X3101Y31269
T04
X12601Y66206
X14101Y66206
X15601Y66206
X17101Y66206
X18601Y66206
X20101Y66206
X21601Y66206
X23101Y66206
X24601Y66206
X26101Y66206
X26101Y70206
X24601Y70206
X23101Y70206
X21601Y70206
X20101Y70206
X18601Y70206
X17101Y70206
X15601Y70206
X14101Y70206
X12601Y70206
X50601Y68706
X54601Y67706
X58101Y67706
X58101Y63706
X54601Y63706
X63601Y66206
X63601Y68206
X50601Y72706
X67601Y78706
X71601Y78706
X95101Y56206
X99101Y56206
X90101Y46206
X90101Y44206
X88101Y10206
X92601Y10206
X97101Y10206
X97101Y6206
X97101Y3706
X96101Y3706
X92601Y3706
X91601Y3706
X92601Y6206
X88101Y6206
X88101Y3706
X87101Y3706
X83601Y3706
X82601Y3706
X83601Y6206
X79101Y6206
X79101Y3706
X78101Y3706
X74601Y3706
X73601Y3706
X74601Y6206
X70101Y6206
X70101Y3706
X69101Y3706
X65601Y3706
X64601Y3706
X65601Y6206
X61101Y6206
X61101Y3706
X60101Y3706
X61101Y10206
X65601Y10206
X70101Y10206
X74601Y10206
X79101Y10206
X83601Y10206
T05
X40601Y36206
X40601Y37206
X40601Y38206
X28601Y47206
X27601Y47206
X26601Y47206
X26601Y48206
X26601Y49206
X26601Y50206
X18601Y50206
X18601Y49206
X18601Y48206
X18601Y47206
X26001Y63606
X26601Y64206
X27201Y64806
X26001Y64806
X27201Y63606
X43601Y50706
X43601Y49706
X43601Y48706
T06
X68101Y64206
X68101Y65206
X68101Y66206
X68101Y67206
X68101Y68206
X68101Y69206
X68101Y70206
X68101Y71206
X68101Y72206
X68101Y73206
X68101Y74206
X68101Y75206
X68101Y76206
X68101Y77206
X65381Y77316
X65381Y79096
X62821Y79096
X62821Y77316
X59601Y72206
X58601Y72206
X56101Y72206
X55101Y72206
X55101Y69206
X56101Y69206
X58601Y69206
X59601Y69206
X71101Y69206
X71101Y70206
X71101Y71206
X71101Y72206
X71101Y73206
X71101Y74206
X71101Y75206
X71101Y76206
X71101Y77206
X79601Y73706
X80601Y73706
X81601Y73706
X82601Y73706
X83601Y73706
X83601Y72706
X82601Y72706
X81601Y72706
X80601Y72706
X79601Y72706
X88101Y72956
X88101Y71956
X88101Y70956
X88101Y69956
X88101Y68956
X94351Y68956
X94351Y69956
X94351Y70956
X94351Y71956
X94351Y72956
X94351Y73956
X94351Y74956
X94351Y75956
X92101Y63706
X91101Y63706
X90101Y63706
X89101Y63706
X88101Y63706
X87101Y63706
X86101Y63706
X85101Y63706
X84101Y63706
X83101Y63706
X82101Y63706
X81101Y63706
X80101Y63706
X80101Y62706
X81101Y62706
X82101Y62706
X83101Y62706
X84101Y62706
X85101Y62706
X86101Y62706
X87101Y62706
X88101Y62706
X89101Y62706
X90101Y62706
X91101Y62706
X92101Y62706
X95821Y59596
X95821Y57816
X98381Y57816
X98381Y59596
X92101Y54706
X91101Y54706
X90101Y54706
X89101Y54706
X88101Y54706
X87101Y54706
X86101Y54706
X85101Y54706
X84101Y54706
X83101Y54706
X82101Y54706
X81101Y54706
X80101Y54706
X80101Y53706
X81101Y53706
X82101Y53706
X83101Y53706
X84101Y53706
X85101Y53706
X86101Y53706
X87101Y53706
X88101Y53706
X89101Y53706
X90101Y53706
X91101Y53706
X92101Y53706
X95601Y54206
X95601Y53206
X95601Y52206
X95601Y51206
X95601Y50206
X95601Y49206
X95601Y48206
X95601Y47206
X95601Y46206
X95601Y45206
X95601Y44206
X95601Y43206
X95601Y42206
X95601Y41206
X98601Y41206
X98601Y42206
X98601Y43206
X98601Y44206
X98601Y45206
X98601Y46206
X98601Y47206
X98601Y48206
X98601Y49206
X98601Y50206
X98601Y51206
X98601Y52206
X98601Y53206
X98601Y54206
X107601Y54206
X107601Y55206
X107601Y56206
X107601Y57206
X107601Y53206
X107601Y52206
X107601Y51206
X107601Y50206
X113601Y50206
X113601Y51206
X113601Y52206
X113601Y53206
X113601Y54206
X113601Y55206
X113601Y56206
X113601Y57206
X110601Y39706
X109601Y39706
X108601Y39706
X107601Y39706
X106601Y39706
X106601Y38706
X107601Y38706
X108601Y38706
X109601Y38706
X110601Y38706
X71101Y64206
X71101Y65206
X71101Y66206
X71101Y67206
X71101Y68206
T07
X36601Y4674
X38569Y2706
X38569Y1721
X34632Y1721
X34632Y2706
X33569Y2706
X33569Y1721
X31601Y4674
X29632Y2706
X29632Y1721
T08
X31601Y2706
X32585Y4674
X33569Y4674
X34632Y4674
X35617Y4674
X37585Y4674
X38569Y4674
X36601Y2706
X30617Y4674
X29632Y4674
T09
X33031Y37106
X33031Y38756
X33031Y40406
X33031Y42056
X33031Y43706
X33031Y45356
X33031Y47006
X33031Y48656
X33031Y50306
X33031Y51956
X33031Y53606
X33031Y55256
X35201Y55256
X35201Y53606
X35201Y51956
X35201Y50306
X35201Y48656
X35201Y47006
X35201Y45356
X35201Y43706
X35201Y42056
X35201Y40406
X35201Y38756
X35201Y37106
X45931Y38706
X45931Y40356
X48101Y40356
X48101Y38706
X12671Y41806
X12671Y43456
X12671Y45106
X12671Y46756
X12671Y48406
X12671Y50056
X12671Y51706
X12671Y53356
X12671Y55006
X12671Y56656
X10501Y56656
X10501Y55006
X10501Y53356
X10501Y51706
X10501Y50056
X10501Y48406
X10501Y46756
X10501Y45106
X10501Y43456
X10501Y41806
T10
X10551Y73686
X8901Y73686
X7251Y73686
X5601Y73686
X3951Y73686
X3951Y75856
X5601Y75856
X7251Y75856
X8901Y75856
X10551Y75856
X12201Y75856
X12201Y73686
X15951Y73686
X17601Y73686
X19251Y73686
X20901Y73686
X22551Y73686
X24201Y73686
X24201Y75856
X22551Y75856
X20901Y75856
X19251Y75856
X17601Y75856
X15951Y75856
X27851Y75976
X27851Y73806
X31351Y73806
X34851Y73806
X34851Y75976
X31351Y75976
X38351Y75976
X38351Y73806
X41851Y73806
X41851Y75976
X45351Y75976
X45351Y73806
X48851Y73806
X48851Y75976
X52351Y75976
X52351Y73806
X55851Y73806
X55851Y75976
X59351Y75976
X59351Y73806
T11
X59351Y78846
X55851Y78846
X52351Y78846
X48851Y78846
X45351Y78846
X41851Y78846
X38351Y78846
X34851Y78846
X31351Y78846
X27851Y78846
X24201Y79246
X15951Y79246
X12201Y79246
X3951Y79246
X10681Y58506
X33211Y57106
X46111Y42206
X46111Y36856
X33211Y35256
X10681Y39956
T12
X2901Y2206
X40201Y2206
X56801Y3206
X40201Y28206
X56801Y36956
X81101Y51206
X100301Y36956
X110601Y44706
X110601Y62706
X117101Y75206
X102101Y75206
X96601Y77206
X86101Y77206
X81101Y66206
X2901Y28206
X100301Y3206
M30
