G75*
G70*
%OFA0B0*%
%FSLAX24Y24*%
%IPPOS*%
%LPD*%
%AMOC8*
5,1,8,0,0,1.08239X$1,22.5*
%
%ADD10C,0.0000*%
%ADD11OC8,0.0520*%
%ADD12C,0.0740*%
%ADD13C,0.0520*%
%ADD14R,0.1050X0.1050*%
%ADD15C,0.0200*%
%ADD16C,0.0396*%
%ADD17C,0.0500*%
D10*
X000101Y000101D02*
X000101Y017971D01*
X024093Y017971D01*
X024093Y000101D01*
X000101Y000101D01*
X000951Y001601D02*
X000953Y001651D01*
X000959Y001701D01*
X000969Y001751D01*
X000982Y001799D01*
X000999Y001847D01*
X001020Y001893D01*
X001044Y001937D01*
X001072Y001979D01*
X001103Y002019D01*
X001137Y002056D01*
X001174Y002091D01*
X001213Y002122D01*
X001254Y002151D01*
X001298Y002176D01*
X001344Y002198D01*
X001391Y002216D01*
X001439Y002230D01*
X001488Y002241D01*
X001538Y002248D01*
X001588Y002251D01*
X001639Y002250D01*
X001689Y002245D01*
X001739Y002236D01*
X001787Y002224D01*
X001835Y002207D01*
X001881Y002187D01*
X001926Y002164D01*
X001969Y002137D01*
X002009Y002107D01*
X002047Y002074D01*
X002082Y002038D01*
X002115Y001999D01*
X002144Y001958D01*
X002170Y001915D01*
X002193Y001870D01*
X002212Y001823D01*
X002227Y001775D01*
X002239Y001726D01*
X002247Y001676D01*
X002251Y001626D01*
X002251Y001576D01*
X002247Y001526D01*
X002239Y001476D01*
X002227Y001427D01*
X002212Y001379D01*
X002193Y001332D01*
X002170Y001287D01*
X002144Y001244D01*
X002115Y001203D01*
X002082Y001164D01*
X002047Y001128D01*
X002009Y001095D01*
X001969Y001065D01*
X001926Y001038D01*
X001881Y001015D01*
X001835Y000995D01*
X001787Y000978D01*
X001739Y000966D01*
X001689Y000957D01*
X001639Y000952D01*
X001588Y000951D01*
X001538Y000954D01*
X001488Y000961D01*
X001439Y000972D01*
X001391Y000986D01*
X001344Y001004D01*
X001298Y001026D01*
X001254Y001051D01*
X001213Y001080D01*
X001174Y001111D01*
X001137Y001146D01*
X001103Y001183D01*
X001072Y001223D01*
X001044Y001265D01*
X001020Y001309D01*
X000999Y001355D01*
X000982Y001403D01*
X000969Y001451D01*
X000959Y001501D01*
X000953Y001551D01*
X000951Y001601D01*
X000951Y016601D02*
X000953Y016651D01*
X000959Y016701D01*
X000969Y016751D01*
X000982Y016799D01*
X000999Y016847D01*
X001020Y016893D01*
X001044Y016937D01*
X001072Y016979D01*
X001103Y017019D01*
X001137Y017056D01*
X001174Y017091D01*
X001213Y017122D01*
X001254Y017151D01*
X001298Y017176D01*
X001344Y017198D01*
X001391Y017216D01*
X001439Y017230D01*
X001488Y017241D01*
X001538Y017248D01*
X001588Y017251D01*
X001639Y017250D01*
X001689Y017245D01*
X001739Y017236D01*
X001787Y017224D01*
X001835Y017207D01*
X001881Y017187D01*
X001926Y017164D01*
X001969Y017137D01*
X002009Y017107D01*
X002047Y017074D01*
X002082Y017038D01*
X002115Y016999D01*
X002144Y016958D01*
X002170Y016915D01*
X002193Y016870D01*
X002212Y016823D01*
X002227Y016775D01*
X002239Y016726D01*
X002247Y016676D01*
X002251Y016626D01*
X002251Y016576D01*
X002247Y016526D01*
X002239Y016476D01*
X002227Y016427D01*
X002212Y016379D01*
X002193Y016332D01*
X002170Y016287D01*
X002144Y016244D01*
X002115Y016203D01*
X002082Y016164D01*
X002047Y016128D01*
X002009Y016095D01*
X001969Y016065D01*
X001926Y016038D01*
X001881Y016015D01*
X001835Y015995D01*
X001787Y015978D01*
X001739Y015966D01*
X001689Y015957D01*
X001639Y015952D01*
X001588Y015951D01*
X001538Y015954D01*
X001488Y015961D01*
X001439Y015972D01*
X001391Y015986D01*
X001344Y016004D01*
X001298Y016026D01*
X001254Y016051D01*
X001213Y016080D01*
X001174Y016111D01*
X001137Y016146D01*
X001103Y016183D01*
X001072Y016223D01*
X001044Y016265D01*
X001020Y016309D01*
X000999Y016355D01*
X000982Y016403D01*
X000969Y016451D01*
X000959Y016501D01*
X000953Y016551D01*
X000951Y016601D01*
X004511Y016471D02*
X004513Y016519D01*
X004519Y016567D01*
X004529Y016614D01*
X004542Y016660D01*
X004559Y016705D01*
X004580Y016748D01*
X004605Y016790D01*
X004632Y016829D01*
X004663Y016866D01*
X004697Y016901D01*
X004733Y016932D01*
X004772Y016961D01*
X004813Y016986D01*
X004856Y017008D01*
X004900Y017026D01*
X004946Y017040D01*
X004993Y017051D01*
X005041Y017058D01*
X005089Y017061D01*
X005137Y017060D01*
X005185Y017055D01*
X005232Y017046D01*
X005279Y017034D01*
X005324Y017017D01*
X005368Y016997D01*
X005410Y016974D01*
X005450Y016947D01*
X005487Y016917D01*
X005522Y016884D01*
X005555Y016848D01*
X005584Y016810D01*
X005610Y016769D01*
X005633Y016727D01*
X005652Y016683D01*
X005667Y016637D01*
X005679Y016591D01*
X005687Y016543D01*
X005691Y016495D01*
X005691Y016447D01*
X005687Y016399D01*
X005679Y016351D01*
X005667Y016305D01*
X005652Y016259D01*
X005633Y016215D01*
X005610Y016173D01*
X005584Y016132D01*
X005555Y016094D01*
X005522Y016058D01*
X005487Y016025D01*
X005450Y015995D01*
X005410Y015968D01*
X005368Y015945D01*
X005324Y015925D01*
X005279Y015908D01*
X005232Y015896D01*
X005185Y015887D01*
X005137Y015882D01*
X005089Y015881D01*
X005041Y015884D01*
X004993Y015891D01*
X004946Y015902D01*
X004900Y015916D01*
X004856Y015934D01*
X004813Y015956D01*
X004772Y015981D01*
X004733Y016010D01*
X004697Y016041D01*
X004663Y016076D01*
X004632Y016113D01*
X004605Y016152D01*
X004580Y016194D01*
X004559Y016237D01*
X004542Y016282D01*
X004529Y016328D01*
X004519Y016375D01*
X004513Y016423D01*
X004511Y016471D01*
X007811Y016471D02*
X007813Y016519D01*
X007819Y016567D01*
X007829Y016614D01*
X007842Y016660D01*
X007859Y016705D01*
X007880Y016748D01*
X007905Y016790D01*
X007932Y016829D01*
X007963Y016866D01*
X007997Y016901D01*
X008033Y016932D01*
X008072Y016961D01*
X008113Y016986D01*
X008156Y017008D01*
X008200Y017026D01*
X008246Y017040D01*
X008293Y017051D01*
X008341Y017058D01*
X008389Y017061D01*
X008437Y017060D01*
X008485Y017055D01*
X008532Y017046D01*
X008579Y017034D01*
X008624Y017017D01*
X008668Y016997D01*
X008710Y016974D01*
X008750Y016947D01*
X008787Y016917D01*
X008822Y016884D01*
X008855Y016848D01*
X008884Y016810D01*
X008910Y016769D01*
X008933Y016727D01*
X008952Y016683D01*
X008967Y016637D01*
X008979Y016591D01*
X008987Y016543D01*
X008991Y016495D01*
X008991Y016447D01*
X008987Y016399D01*
X008979Y016351D01*
X008967Y016305D01*
X008952Y016259D01*
X008933Y016215D01*
X008910Y016173D01*
X008884Y016132D01*
X008855Y016094D01*
X008822Y016058D01*
X008787Y016025D01*
X008750Y015995D01*
X008710Y015968D01*
X008668Y015945D01*
X008624Y015925D01*
X008579Y015908D01*
X008532Y015896D01*
X008485Y015887D01*
X008437Y015882D01*
X008389Y015881D01*
X008341Y015884D01*
X008293Y015891D01*
X008246Y015902D01*
X008200Y015916D01*
X008156Y015934D01*
X008113Y015956D01*
X008072Y015981D01*
X008033Y016010D01*
X007997Y016041D01*
X007963Y016076D01*
X007932Y016113D01*
X007905Y016152D01*
X007880Y016194D01*
X007859Y016237D01*
X007842Y016282D01*
X007829Y016328D01*
X007819Y016375D01*
X007813Y016423D01*
X007811Y016471D01*
X021951Y016601D02*
X021953Y016651D01*
X021959Y016701D01*
X021969Y016751D01*
X021982Y016799D01*
X021999Y016847D01*
X022020Y016893D01*
X022044Y016937D01*
X022072Y016979D01*
X022103Y017019D01*
X022137Y017056D01*
X022174Y017091D01*
X022213Y017122D01*
X022254Y017151D01*
X022298Y017176D01*
X022344Y017198D01*
X022391Y017216D01*
X022439Y017230D01*
X022488Y017241D01*
X022538Y017248D01*
X022588Y017251D01*
X022639Y017250D01*
X022689Y017245D01*
X022739Y017236D01*
X022787Y017224D01*
X022835Y017207D01*
X022881Y017187D01*
X022926Y017164D01*
X022969Y017137D01*
X023009Y017107D01*
X023047Y017074D01*
X023082Y017038D01*
X023115Y016999D01*
X023144Y016958D01*
X023170Y016915D01*
X023193Y016870D01*
X023212Y016823D01*
X023227Y016775D01*
X023239Y016726D01*
X023247Y016676D01*
X023251Y016626D01*
X023251Y016576D01*
X023247Y016526D01*
X023239Y016476D01*
X023227Y016427D01*
X023212Y016379D01*
X023193Y016332D01*
X023170Y016287D01*
X023144Y016244D01*
X023115Y016203D01*
X023082Y016164D01*
X023047Y016128D01*
X023009Y016095D01*
X022969Y016065D01*
X022926Y016038D01*
X022881Y016015D01*
X022835Y015995D01*
X022787Y015978D01*
X022739Y015966D01*
X022689Y015957D01*
X022639Y015952D01*
X022588Y015951D01*
X022538Y015954D01*
X022488Y015961D01*
X022439Y015972D01*
X022391Y015986D01*
X022344Y016004D01*
X022298Y016026D01*
X022254Y016051D01*
X022213Y016080D01*
X022174Y016111D01*
X022137Y016146D01*
X022103Y016183D01*
X022072Y016223D01*
X022044Y016265D01*
X022020Y016309D01*
X021999Y016355D01*
X021982Y016403D01*
X021969Y016451D01*
X021959Y016501D01*
X021953Y016551D01*
X021951Y016601D01*
X021951Y001601D02*
X021953Y001651D01*
X021959Y001701D01*
X021969Y001751D01*
X021982Y001799D01*
X021999Y001847D01*
X022020Y001893D01*
X022044Y001937D01*
X022072Y001979D01*
X022103Y002019D01*
X022137Y002056D01*
X022174Y002091D01*
X022213Y002122D01*
X022254Y002151D01*
X022298Y002176D01*
X022344Y002198D01*
X022391Y002216D01*
X022439Y002230D01*
X022488Y002241D01*
X022538Y002248D01*
X022588Y002251D01*
X022639Y002250D01*
X022689Y002245D01*
X022739Y002236D01*
X022787Y002224D01*
X022835Y002207D01*
X022881Y002187D01*
X022926Y002164D01*
X022969Y002137D01*
X023009Y002107D01*
X023047Y002074D01*
X023082Y002038D01*
X023115Y001999D01*
X023144Y001958D01*
X023170Y001915D01*
X023193Y001870D01*
X023212Y001823D01*
X023227Y001775D01*
X023239Y001726D01*
X023247Y001676D01*
X023251Y001626D01*
X023251Y001576D01*
X023247Y001526D01*
X023239Y001476D01*
X023227Y001427D01*
X023212Y001379D01*
X023193Y001332D01*
X023170Y001287D01*
X023144Y001244D01*
X023115Y001203D01*
X023082Y001164D01*
X023047Y001128D01*
X023009Y001095D01*
X022969Y001065D01*
X022926Y001038D01*
X022881Y001015D01*
X022835Y000995D01*
X022787Y000978D01*
X022739Y000966D01*
X022689Y000957D01*
X022639Y000952D01*
X022588Y000951D01*
X022538Y000954D01*
X022488Y000961D01*
X022439Y000972D01*
X022391Y000986D01*
X022344Y001004D01*
X022298Y001026D01*
X022254Y001051D01*
X022213Y001080D01*
X022174Y001111D01*
X022137Y001146D01*
X022103Y001183D01*
X022072Y001223D01*
X022044Y001265D01*
X022020Y001309D01*
X021999Y001355D01*
X021982Y001403D01*
X021969Y001451D01*
X021959Y001501D01*
X021953Y001551D01*
X021951Y001601D01*
D11*
X022601Y003601D03*
X022601Y008601D03*
X022601Y009601D03*
X022601Y014601D03*
X001601Y014601D03*
X001601Y009601D03*
X001601Y008601D03*
X001601Y003601D03*
D12*
X004101Y004601D03*
X005101Y004601D03*
X007101Y004601D03*
X008101Y004601D03*
X010101Y004601D03*
X011101Y004601D03*
X013101Y004601D03*
X014101Y004601D03*
X016101Y004601D03*
X017101Y004601D03*
X019101Y004601D03*
X020101Y004601D03*
X020101Y007601D03*
X019101Y007601D03*
X017101Y007601D03*
X016101Y007601D03*
X014101Y007601D03*
X013101Y007601D03*
X011101Y007601D03*
X010101Y007601D03*
X008101Y007601D03*
X007101Y007601D03*
X005101Y007601D03*
X004101Y007601D03*
X004101Y010601D03*
X005101Y010601D03*
X007101Y010601D03*
X008101Y010601D03*
X010101Y010601D03*
X011101Y010601D03*
X013101Y010601D03*
X014101Y010601D03*
X016101Y010601D03*
X017101Y010601D03*
X019101Y010601D03*
X020101Y010601D03*
X020101Y001601D03*
X019101Y001601D03*
X017101Y001601D03*
X016101Y001601D03*
X014101Y001601D03*
X013101Y001601D03*
X011101Y001601D03*
X010101Y001601D03*
X008101Y001601D03*
X007101Y001601D03*
X005101Y001601D03*
X004101Y001601D03*
D13*
X011601Y013341D02*
X011601Y013861D01*
X012601Y013861D02*
X012601Y013341D01*
X013601Y013341D02*
X013601Y013861D01*
X014601Y013861D02*
X014601Y013341D01*
X015601Y013341D02*
X015601Y013861D01*
X016601Y013861D02*
X016601Y013341D01*
X017601Y013341D02*
X017601Y013861D01*
X018601Y013861D02*
X018601Y013341D01*
X019601Y013341D02*
X019601Y013861D01*
X019601Y016341D02*
X019601Y016861D01*
X018601Y016861D02*
X018601Y016341D01*
X017601Y016341D02*
X017601Y016861D01*
X016601Y016861D02*
X016601Y016341D01*
X015601Y016341D02*
X015601Y016861D01*
X014601Y016861D02*
X014601Y016341D01*
X013601Y016341D02*
X013601Y016861D01*
X012601Y016861D02*
X012601Y016341D01*
X011601Y016341D02*
X011601Y016861D01*
D14*
X008401Y013601D03*
X006751Y013601D03*
X005101Y013601D03*
D15*
X003101Y012101D02*
X002601Y011601D01*
X002601Y009601D01*
X001601Y008601D01*
X017601Y013101D02*
X017601Y013601D01*
X017601Y013101D02*
X018101Y012601D01*
X020601Y012601D01*
X021601Y011601D01*
X021601Y009601D01*
X022601Y008601D01*
D16*
X003101Y012101D03*
D17*
X005101Y010601D02*
X005141Y010261D01*
X005141Y007941D01*
X005101Y007601D01*
X005141Y007301D01*
X005141Y004901D01*
X005101Y004601D01*
X005141Y004261D01*
X005141Y003141D01*
X005101Y006101D01*
X008101Y006101D01*
X011101Y006101D01*
X014101Y006101D01*
X017101Y006101D01*
X020101Y006101D01*
X020101Y007601D01*
X020101Y010601D01*
X017141Y010261D02*
X017101Y010601D01*
X017141Y010261D02*
X017141Y007941D01*
X017101Y007601D01*
X017141Y007301D01*
X017141Y006101D01*
X017101Y006101D01*
X017141Y003141D01*
X017141Y001941D01*
X017101Y001601D01*
X017141Y003141D02*
X017141Y004261D01*
X017101Y004601D01*
X017141Y004901D01*
X017141Y006101D01*
X014101Y006101D02*
X014101Y004601D01*
X014101Y001601D01*
X014101Y006101D01*
X014101Y007601D01*
X014101Y010601D01*
X011141Y010261D02*
X011101Y010601D01*
X011101Y006101D01*
X011141Y003141D01*
X011141Y001941D01*
X011101Y001601D01*
X011141Y003141D02*
X011141Y004261D01*
X011101Y004601D01*
X011141Y004901D01*
X011141Y007301D01*
X011101Y007601D01*
X011141Y007941D01*
X011141Y010261D01*
X008601Y011101D02*
X008101Y010601D01*
X008101Y007601D01*
X008101Y006101D01*
X008101Y004601D01*
X008101Y001601D01*
X005141Y001941D02*
X005101Y001601D01*
X005141Y001941D02*
X005141Y003141D01*
X008601Y011101D02*
X008601Y013601D01*
X008401Y013601D01*
X006751Y013601D02*
X006601Y013751D01*
X006601Y015101D01*
X009101Y015101D01*
X010601Y016601D01*
X011601Y016601D01*
X020101Y006101D02*
X020101Y004601D01*
X020101Y001601D01*
M02*
