%
M48
M72
T01C0.0236
T02C0.0320
T03C0.0700
T04C0.1180
T05C0.1300
%
T01
X3101Y12101
T02
X4101Y10601
X5101Y10601
X7101Y10601
X8101Y10601
X10101Y10601
X11101Y10601
X13101Y10601
X14101Y10601
X16101Y10601
X17101Y10601
X19101Y10601
X20101Y10601
X22601Y9601
X22601Y8601
X20101Y7601
X19101Y7601
X17101Y7601
X16101Y7601
X14101Y7601
X13101Y7601
X11101Y7601
X10101Y7601
X8101Y7601
X7101Y7601
X5101Y7601
X4101Y7601
X1601Y8601
X1601Y9601
X1601Y14601
X11601Y13601
X12601Y13601
X13601Y13601
X14601Y13601
X15601Y13601
X16601Y13601
X17601Y13601
X18601Y13601
X19601Y13601
X22601Y14601
X19601Y16601
X18601Y16601
X17601Y16601
X16601Y16601
X15601Y16601
X14601Y16601
X13601Y16601
X12601Y16601
X11601Y16601
X11101Y4601
X10101Y4601
X8101Y4601
X7101Y4601
X5101Y4601
X4101Y4601
X1601Y3601
X4101Y1601
X5101Y1601
X7101Y1601
X8101Y1601
X10101Y1601
X11101Y1601
X13101Y1601
X14101Y1601
X16101Y1601
X17101Y1601
X19101Y1601
X20101Y1601
X22601Y3601
X20101Y4601
X19101Y4601
X17101Y4601
X16101Y4601
X14101Y4601
X13101Y4601
T03
X8401Y13601
X6751Y13601
X5101Y13601
T04
X5101Y16471
X8401Y16471
T05
X1601Y1601
X1601Y16601
X22601Y16601
X22601Y1601
M30
